<svg width="16" height="16" viewBox="0 0 16 16" fill="none" xmlns="http://www.w3.org/2000/svg">
<rect width="16" height="16" fill="#EE1D23"/>
<g clip-path="url(#clip0_222_2362)">
<path d="M5.30304 8.1135L4.85297 7.66404L2.60135 7.66356V7.21303H5.30304V6.31595H0.799805V9.01213H2.60135V8.78759H3.50198V9.68612H2.60125V9.46159H0.799805V10.3601L1.25036 10.8097H4.85297L5.30304 10.3601V8.1135ZM10.2512 8.1135L9.80116 7.6596H7.54906V7.21159H10.2512V6.31595H5.74799V9.01213H7.54906V8.78759H8.44959L8.45017 9.68612H7.54906V9.46159H5.74799V10.3601L6.19806 10.8097H9.80116L10.2512 10.3601V8.1135ZM15.1994 8.1135L14.7489 7.6596H12.4972V7.21159H15.1994V6.31595H10.6962V9.01213H12.4972V8.78759H13.3979L13.3984 9.68612H12.4972V9.46159H10.6962V10.3601L11.1463 10.8097H14.7489L15.1994 10.3601V8.1135ZM1.45438 5.87363H1.26109V5.41336L1.00382 5.87363H0.799805V5.12473H0.992707V5.5849L1.24978 5.12473H1.45341L1.45438 5.87363ZM2.2372 5.87363H2.04429V5.5684H1.77649V5.87363H1.58359V5.12473H1.77649V5.41877H2.04429V5.12473H2.2372V5.87363ZM2.40884 5.30167C2.40386 5.29317 2.39722 5.28575 2.38931 5.27986C2.38118 5.2733 2.37106 5.26969 2.36061 5.26963H2.3177V5.12473C2.32698 5.12328 2.33674 5.12135 2.34747 5.11932C2.36952 5.11578 2.39182 5.114 2.41415 5.11401C2.45213 5.11401 2.48277 5.12328 2.50577 5.1422C2.52906 5.16112 2.54858 5.18545 2.56414 5.21557L2.67132 5.41867H2.74632V5.12483H2.93922V5.41877H3.01422L3.12139 5.21566C3.13686 5.18554 3.15686 5.16122 3.17977 5.1423C3.20364 5.12338 3.23389 5.11411 3.27187 5.11411C3.2942 5.11413 3.3165 5.1159 3.33855 5.11942C3.34928 5.12135 3.35953 5.12328 3.3688 5.12483V5.26963H3.32589C3.31528 5.2696 3.30498 5.27321 3.29671 5.27986C3.28881 5.28562 3.2823 5.29307 3.27767 5.30167L3.1759 5.49416L3.38533 5.87412H3.1817L3.01518 5.56898H2.94019V5.87412H2.74719V5.56898H2.67219L2.50616 5.87412H2.30262L2.51157 5.49416L2.40884 5.30167ZM4.04396 5.87363H3.44882V5.12473H4.04348V5.27436H3.64124V5.41877H3.95775V5.5684H3.64124V5.72391H4.04348L4.04396 5.87363ZM4.78377 5.87363H4.59087V5.5684H4.32307V5.87363H4.13017V5.12473H4.32307V5.41877H4.59087V5.12473H4.78377V5.87363ZM5.50715 5.87363H4.91202V5.12473H5.50715V5.27436H5.10492V5.41877H5.42143V5.5684H5.10492V5.72391H5.50715V5.87363ZM5.59336 5.12473H6.04392C6.11891 5.12473 6.17342 5.14172 6.20754 5.17531C6.24165 5.20929 6.25818 5.26374 6.25818 5.33855V5.44551C6.25818 5.52032 6.24117 5.57477 6.20754 5.60875C6.17342 5.64273 6.11891 5.65981 6.04392 5.65981H5.78665V5.87363H5.59375L5.59336 5.12473ZM6.06528 5.33855C6.06528 5.29579 6.04392 5.27445 6.00101 5.27445H5.78675V5.50961H6.00101C6.04392 5.50961 6.06528 5.48827 6.06528 5.44551V5.33855ZM7.00949 5.87363H6.81659V5.5684H6.54879V5.87363H6.35589V5.12473H6.54879V5.41877H6.81659V5.12473H7.00949V5.87363ZM7.2713 5.87363H7.06235L7.3463 5.12473H7.56114L7.84556 5.87363H7.63661L7.58791 5.73994H7.32001L7.2713 5.87363ZM7.36727 5.60093H7.53871L7.45299 5.34975L7.36727 5.60093ZM8.54246 5.87363H8.34956V5.62718H8.20488L8.07103 5.87363H7.8674L8.00667 5.61705C7.96095 5.60633 7.92829 5.58442 7.9078 5.55189C7.88789 5.51936 7.87765 5.47312 7.87765 5.41385V5.33855C7.87765 5.26374 7.89466 5.2092 7.92877 5.17531C7.96289 5.14124 8.01691 5.12473 8.09239 5.12473H8.54295L8.54246 5.87363ZM8.06997 5.41385C8.06997 5.45661 8.09142 5.47804 8.13433 5.47804H8.34908V5.27436H8.13433C8.09142 5.27436 8.06997 5.29579 8.06997 5.33855V5.41385Z" fill="white"/>
<path d="M9.42566 5.49419L9.6346 5.87414H9.43097L9.26484 5.569H9.16849V5.87414H8.97559V5.12485H9.16849V5.41879H9.26484L9.37212 5.21569C9.38625 5.18744 9.40613 5.16245 9.43049 5.14232C9.4534 5.1234 9.48403 5.11414 9.52201 5.11414C9.54435 5.11415 9.56664 5.11593 9.5887 5.11945C9.59952 5.12138 9.60919 5.12331 9.61895 5.12485V5.26965H9.57613C9.56562 5.26954 9.55541 5.27316 9.54733 5.27988C9.53946 5.28578 9.53285 5.2932 9.52791 5.3017L9.42566 5.49419ZM10.3747 5.67055C10.3747 5.74537 10.3576 5.79991 10.3235 5.83389C10.2899 5.86787 10.2353 5.88438 10.1599 5.88438H9.89197C9.81697 5.88438 9.76246 5.86739 9.72835 5.83389C9.69423 5.79981 9.67722 5.74585 9.67722 5.67055V5.32844C9.67722 5.25363 9.69423 5.19918 9.72845 5.1652C9.76246 5.13113 9.81649 5.11414 9.89197 5.11414H10.1599C10.2349 5.11414 10.2894 5.13113 10.3236 5.1652C10.3576 5.19918 10.3747 5.25305 10.3747 5.32844V5.67055ZM10.1817 5.32844C10.1817 5.28568 10.1603 5.26434 10.1174 5.26434H9.93478C9.89187 5.26434 9.87051 5.28568 9.87051 5.32844V5.67113C9.87051 5.7138 9.89187 5.73523 9.93478 5.73523H10.1174C10.1603 5.73523 10.1817 5.7138 10.1817 5.67104V5.32844ZM11.1247 5.45664L10.9742 5.72442H10.8242L10.6742 5.45664V5.87414H10.4813V5.12475H10.6849L10.8997 5.52083L11.1139 5.12475H11.3176V5.87366H11.1247V5.45664ZM12.1004 5.87366H11.9075V5.27438H11.6397V5.87356H11.4468V5.12475H12.1009V5.87366H12.1004ZM12.3632 5.87366H12.1542L12.4382 5.12475H12.653L12.9374 5.87366H12.7285L12.6802 5.73996H12.4124L12.3632 5.87366ZM12.4596 5.60095H12.6311L12.5453 5.34977L12.4596 5.60095ZM13.6448 5.87366H13.4519V5.56881H13.1841V5.87405H12.9912V5.12475H13.1841V5.41879H13.4519V5.12475H13.6448V5.87366ZM14.4276 5.87366H14.2347V5.41387L13.9776 5.87414H13.774V5.12475H13.9669V5.58493L14.224 5.12475H14.4276V5.87366ZM15.0072 5.87366V5.62721H14.8624L14.7285 5.87366H14.5249L14.6642 5.61707C14.6185 5.60636 14.5858 5.58445 14.5653 5.55191C14.5454 5.51938 14.5351 5.47314 14.5351 5.41387V5.33858C14.5351 5.26376 14.5522 5.20922 14.5863 5.17534C14.6204 5.14126 14.6744 5.12475 14.7499 5.12475H15.2004V5.87366H15.0072ZM14.728 5.41387C14.728 5.45664 14.7494 5.47807 14.7923 5.47807H15.0071V5.27438H14.7923C14.7494 5.27438 14.728 5.29581 14.728 5.33858V5.41387Z" fill="white"/>
</g>
<defs>
<clipPath id="clip0_222_2362">
<rect width="14.4" height="5.792" fill="white" transform="translate(0.799805 5.08801)"/>
</clipPath>
</defs>
</svg>
