<svg width="20" height="20" viewBox="0 0 20 20" fill="none" xmlns="http://www.w3.org/2000/svg">
<g opacity="0.5">
<path fill-rule="evenodd" clip-rule="evenodd" d="M9.00125 2.53238C8.56951 2.71104 8.04982 2.98323 7.30823 3.37261L7.09088 3.48671L14.1733 7.21432L16.9489 5.82654C16.7996 5.67992 16.6148 5.53415 16.3797 5.37718C15.903 5.05889 15.2651 4.72334 14.3572 4.24682L12.6905 3.37179C11.949 2.98248 11.4293 2.71048 10.9977 2.53205C10.5775 2.35837 10.2823 2.29175 9.99935 2.29175C9.71661 2.29175 9.4215 2.35847 9.00125 2.53238ZM17.5514 6.92284C17.5934 7.10108 17.6252 7.30351 17.6485 7.53995C17.707 8.13408 17.7077 8.88744 17.7077 9.95175V10.0492C17.7077 11.1131 17.707 11.8663 17.6485 12.4603C17.5913 13.0412 17.4827 13.4169 17.2967 13.7328M17.5514 6.92284L14.791 8.30302V10.8334C14.791 11.1786 14.5112 11.4584 14.166 11.4584C13.8208 11.4584 13.541 11.1786 13.541 10.8334V8.92802L10.6243 10.3864V17.6045C10.7382 17.5693 10.8613 17.5242 10.9976 17.4678C11.4294 17.2892 11.9491 17.0172 12.6907 16.6283L14.3572 15.7542C15.265 15.2777 15.9029 14.9419 16.3796 14.6235C16.8431 14.3139 17.1112 14.0475 17.2967 13.7328M9.37435 17.6047V10.3864L2.4475 6.92293C2.40535 7.10135 2.3735 7.30401 2.3502 7.54079C2.29172 8.13491 2.29102 8.88827 2.29102 9.95258V10.0501C2.29102 11.1136 2.29172 11.8665 2.3502 12.4604C2.40739 13.0412 2.51603 13.4169 2.70201 13.7328M3.0503 5.82678L9.99935 9.30131L12.797 7.90249L5.95826 4.30316C5.89212 4.26835 5.83481 4.22336 5.78723 4.17113L5.64154 4.24762C4.73381 4.72364 4.0957 5.05934 3.61906 5.37765C3.38418 5.5345 3.19949 5.68023 3.0503 5.82678ZM9.37435 17.6047C9.26049 17.5695 9.13734 17.5245 9.00103 17.4681C8.56938 17.2897 8.04969 17.0177 7.30823 16.6284L5.64154 15.7534C4.73366 15.2769 4.09573 14.9413 3.61898 14.623C3.15549 14.3136 2.88741 14.0474 2.70201 13.7328M8.52328 1.37737C9.03137 1.16711 9.49542 1.04175 9.99935 1.04175C10.5031 1.04175 10.967 1.16679 11.4752 1.37686C11.9677 1.58046 12.54 1.88096 13.2535 2.25557L13.2715 2.26504L14.9737 3.15865C15.8417 3.61425 16.5368 3.97907 17.0738 4.33757C17.6312 4.70975 18.0607 5.10168 18.3737 5.63282C18.6851 6.16186 18.8253 6.7351 18.8925 7.4175C18.9577 8.07994 18.9577 8.89472 18.9577 9.91933V10.0817C18.9577 11.1059 18.9577 11.9204 18.8925 12.5828C18.8253 13.2651 18.6852 13.8381 18.3738 14.3672C18.0609 14.8982 17.6314 15.2905 17.0739 15.6629C16.5355 16.0226 15.8381 16.3886 14.9668 16.846L14.9381 16.861L13.2713 17.7352L13.2415 17.7509C12.5337 18.1221 11.965 18.4204 11.4753 18.6229C10.9673 18.8331 10.5033 18.9584 9.99935 18.9584C9.49563 18.9584 9.03168 18.8334 8.5235 18.6233C8.03097 18.4197 7.45867 18.1192 6.74521 17.7446L6.72716 17.7351L5.06055 16.8602L5.025 16.8415C4.15697 16.3859 3.4619 16.0211 2.92492 15.6626C2.36745 15.2904 1.93795 14.8985 1.62503 14.3673C1.31356 13.8383 1.17338 13.2651 1.10621 12.5829C1.041 11.9206 1.04101 11.1063 1.04102 10.0825V9.92016C1.04101 8.89556 1.041 8.08078 1.10621 7.41834C1.17338 6.73593 1.31346 6.16286 1.62493 5.63382C1.9378 5.10277 2.36732 4.71047 2.92485 4.33814C3.46406 3.97804 4.16251 3.61178 5.03547 3.154L6.75306 2.25227C7.46274 1.87964 8.03265 1.5804 8.52328 1.37737Z" fill="#231F20"/>
</g>
</svg>
