<svg xmlns="http://www.w3.org/2000/svg" width="21" height="20" viewBox="0 0 21 20" fill="none">
    <g opacity="0.5">
        <path d="M2 10.0002C2 6.85766 2 5.286 2.97667 4.31016C3.95333 3.33433 5.52417 3.3335 8.66667 3.3335H12C15.1425 3.3335 16.7142 3.3335 17.69 4.31016C18.6658 5.28683 18.6667 6.85766 18.6667 10.0002V11.6668C18.6667 14.8093 18.6667 16.381 17.69 17.3568C16.7133 18.3327 15.1425 18.3335 12 18.3335H8.66667C5.52417 18.3335 3.9525 18.3335 2.97667 17.3568C2.00083 16.3802 2 14.8093 2 11.6668V10.0002Z" stroke="black" />
        <path d="M6.16602 3.3335V2.0835M14.4993 3.3335V2.0835M2.41602 7.50016H18.2493" stroke="black" stroke-linecap="round" />
        <path d="M15.334 14.1667C15.334 14.3877 15.2462 14.5996 15.0899 14.7559C14.9336 14.9122 14.7217 15 14.5007 15C14.2796 15 14.0677 14.9122 13.9114 14.7559C13.7551 14.5996 13.6673 14.3877 13.6673 14.1667C13.6673 13.9457 13.7551 13.7337 13.9114 13.5774C14.0677 13.4211 14.2796 13.3333 14.5007 13.3333C14.7217 13.3333 14.9336 13.4211 15.0899 13.5774C15.2462 13.7337 15.334 13.9457 15.334 14.1667ZM15.334 10.8333C15.334 11.0543 15.2462 11.2663 15.0899 11.4226C14.9336 11.5789 14.7217 11.6667 14.5007 11.6667C14.2796 11.6667 14.0677 11.5789 13.9114 11.4226C13.7551 11.2663 13.6673 11.0543 13.6673 10.8333C13.6673 10.6123 13.7551 10.4004 13.9114 10.2441C14.0677 10.0878 14.2796 10 14.5007 10C14.7217 10 14.9336 10.0878 15.0899 10.2441C15.2462 10.4004 15.334 10.6123 15.334 10.8333ZM11.1673 14.1667C11.1673 14.3877 11.0795 14.5996 10.9232 14.7559C10.767 14.9122 10.555 15 10.334 15C10.113 15 9.90101 14.9122 9.74473 14.7559C9.58845 14.5996 9.50065 14.3877 9.50065 14.1667C9.50065 13.9457 9.58845 13.7337 9.74473 13.5774C9.90101 13.4211 10.113 13.3333 10.334 13.3333C10.555 13.3333 10.767 13.4211 10.9232 13.5774C11.0795 13.7337 11.1673 13.9457 11.1673 14.1667ZM11.1673 10.8333C11.1673 11.0543 11.0795 11.2663 10.9232 11.4226C10.767 11.5789 10.555 11.6667 10.334 11.6667C10.113 11.6667 9.90101 11.5789 9.74473 11.4226C9.58845 11.2663 9.50065 11.0543 9.50065 10.8333C9.50065 10.6123 9.58845 10.4004 9.74473 10.2441C9.90101 10.0878 10.113 10 10.334 10C10.555 10 10.767 10.0878 10.9232 10.2441C11.0795 10.4004 11.1673 10.6123 11.1673 10.8333ZM7.00065 14.1667C7.00065 14.3877 6.91285 14.5996 6.75657 14.7559C6.60029 14.9122 6.38833 15 6.16732 15C5.9463 15 5.73434 14.9122 5.57806 14.7559C5.42178 14.5996 5.33398 14.3877 5.33398 14.1667C5.33398 13.9457 5.42178 13.7337 5.57806 13.5774C5.73434 13.4211 5.9463 13.3333 6.16732 13.3333C6.38833 13.3333 6.60029 13.4211 6.75657 13.5774C6.91285 13.7337 7.00065 13.9457 7.00065 14.1667ZM7.00065 10.8333C7.00065 11.0543 6.91285 11.2663 6.75657 11.4226C6.60029 11.5789 6.38833 11.6667 6.16732 11.6667C5.9463 11.6667 5.73434 11.5789 5.57806 11.4226C5.42178 11.2663 5.33398 11.0543 5.33398 10.8333C5.33398 10.6123 5.42178 10.4004 5.57806 10.2441C5.73434 10.0878 5.9463 10 6.16732 10C6.38833 10 6.60029 10.0878 6.75657 10.2441C6.91285 10.4004 7.00065 10.6123 7.00065 10.8333Z" fill="black" />
    </g>
</svg>