<svg width="20" height="20" viewBox="0 0 20 20" fill="none" xmlns="http://www.w3.org/2000/svg">
<g opacity="0.5">
<path d="M17.3724 3.45711C17.5135 3.70125 17.641 3.93454 17.7549 4.15698C17.8688 4.37942 17.9719 4.60457 18.0641 4.83244C18.1564 5.0603 18.2215 5.29631 18.2594 5.54045C18.2974 5.78459 18.3218 6.05585 18.3327 6.35425C18.3327 6.78285 18.2784 7.19518 18.1699 7.59123C18.0614 7.98728 17.9041 8.36163 17.6979 8.71427C17.4918 9.06692 17.2449 9.38431 16.9574 9.66642C16.6698 9.94854 16.3524 10.1927 16.0052 10.3988C15.658 10.605 15.2864 10.7623 14.8903 10.8709C14.4943 10.9794 14.0792 11.0363 13.6452 11.0417C13.5204 11.0417 13.3956 11.0363 13.2708 11.0255C13.1461 11.0146 13.0186 10.9983 12.8883 10.9766L6.3291 17.5359C6.06869 17.7963 5.773 17.9943 5.44206 18.13C5.11111 18.2656 4.76118 18.3334 4.39225 18.3334C4.0179 18.3334 3.66526 18.2629 3.33431 18.1218C3.00336 17.9808 2.71582 17.7855 2.47168 17.5359C2.22754 17.2863 2.03223 16.9961 1.88574 16.6651C1.73926 16.3342 1.66602 15.9815 1.66602 15.6072C1.66602 15.2437 1.73383 14.8965 1.86947 14.5655C2.0051 14.2346 2.20313 13.9362 2.46354 13.6703L9.02279 7.11108C9.00109 6.9863 8.98481 6.86152 8.97396 6.73674C8.96311 6.61195 8.95768 6.48446 8.95768 6.35425C8.95768 5.92565 9.01194 5.51332 9.12044 5.11727C9.22895 4.72122 9.38629 4.34687 9.59245 3.99422C9.79861 3.64157 10.0455 3.32419 10.333 3.04207C10.6206 2.75996 10.9379 2.51581 11.2852 2.30965C11.6324 2.10349 12.004 1.94615 12.4001 1.83765C12.7961 1.72914 13.2112 1.67217 13.6452 1.66675C13.9382 1.66675 14.2067 1.68845 14.4508 1.73185C14.695 1.77526 14.9337 1.84307 15.167 1.9353C15.4003 2.02753 15.6254 2.1279 15.8424 2.23641C16.0595 2.34492 16.2928 2.47512 16.5423 2.62703L13.3359 5.83342L14.166 6.66349L17.3724 3.45711ZM13.6452 10.0001C14.1497 10.0001 14.6217 9.90514 15.0612 9.71525C15.5007 9.52536 15.8859 9.26495 16.2168 8.934C16.5477 8.60306 16.8082 8.21786 16.998 7.7784C17.1879 7.33895 17.2856 6.86423 17.291 6.35425C17.291 5.9582 17.2259 5.57571 17.0957 5.20679L14.166 8.12834L11.8711 5.83342L14.7926 2.90373C14.4237 2.77352 14.0412 2.70841 13.6452 2.70841C13.1406 2.70841 12.6686 2.80336 12.2292 2.99325C11.7897 3.18313 11.4045 3.44355 11.0736 3.7745C10.7426 4.10544 10.4822 4.49064 10.2923 4.93009C10.1024 5.36955 10.0048 5.84427 9.99935 6.35425C9.99935 6.54414 10.0156 6.7286 10.0482 6.90763C10.0807 7.08667 10.1187 7.26571 10.1621 7.44474L3.2041 14.4109C3.04677 14.5682 2.9247 14.75 2.83789 14.9561C2.75109 15.1623 2.70768 15.3793 2.70768 15.6072C2.70768 15.835 2.75109 16.0521 2.83789 16.2582C2.9247 16.4644 3.04677 16.6434 3.2041 16.7953C3.36144 16.9472 3.54047 17.0666 3.74121 17.1534C3.94195 17.2402 4.15896 17.2863 4.39225 17.2917C4.62012 17.2917 4.83713 17.2483 5.04329 17.1615C5.24946 17.0747 5.43121 16.9527 5.58854 16.7953L12.5547 9.83732C12.7337 9.88072 12.9128 9.9187 13.0918 9.95125C13.2708 9.98381 13.4553 10.0001 13.6452 10.0001Z" fill="#231F20"/>
</g>
</svg>
