<svg xmlns="http://www.w3.org/2000/svg" width="20" height="20" viewBox="0 0 20 20" fill="none">
<path fill-rule="evenodd" clip-rule="evenodd" d="M13.1265 7.18741L10.0008 2.31494L6.87509 7.18741H13.1265ZM11.0529 1.64C10.561 0.873253 9.44053 0.873254 8.94865 1.64001L5.82297 6.51247C5.28927 7.34442 5.88667 8.43741 6.87509 8.43741H13.1265C14.1149 8.43741 14.7123 7.34442 14.1786 6.51247L11.0529 1.64Z" fill="#231F20"/>
<path fill-rule="evenodd" clip-rule="evenodd" d="M13.1265 12.8126L10.0008 17.6851L6.87509 12.8126H13.1265ZM11.0529 18.36C10.561 19.1267 9.44053 19.1267 8.94865 18.36L5.82297 13.4875C5.28927 12.6556 5.88667 11.5626 6.87509 11.5626H13.1265C14.1149 11.5626 14.7123 12.6556 14.1786 13.4875L11.0529 18.36Z" fill="#231F20"/>
</svg>