<svg xmlns="http://www.w3.org/2000/svg" xmlns:xlink="http://www.w3.org/1999/xlink" viewBox="0 0 300 300">
    <style>:root>svg{display:none}:root>svg:target{display:block}</style>
    <svg id="btn-prev" xmlns="http://www.w3.org/2000/svg" viewBox="0 0 16 16">
        <path
            d="M3.7523 8.72165C3.34197 8.32804 3.34198 7.67196 3.7523 7.27835L9.60504 1.66405C9.99193 1.29292 10.6027 1.29292 10.9896 1.66405L11.2477 1.91168C11.658 2.30529 11.658 2.96138 11.2477 3.35499L7.15771 7.27835C6.74738 7.67196 6.74738 8.32804 7.15771 8.72165L11.2477 12.645C11.658 13.0386 11.658 13.6947 11.2477 14.0883L10.9896 14.3359C10.6027 14.7071 9.99193 14.7071 9.60504 14.3359L3.7523 8.72165Z" />
    </svg>
    <svg id="btn-next" xmlns="http://www.w3.org/2000/svg" viewBox="0 0 16 16">
        <path
            d="M12.2477 8.72165C12.658 8.32804 12.658 7.67196 12.2477 7.27835L6.39496 1.66405C6.00807 1.29292 5.39734 1.29292 5.01045 1.66405L4.7523 1.91168C4.34198 2.30529 4.34198 2.96138 4.7523 3.35499L8.84229 7.27835C9.25262 7.67196 9.25262 8.32804 8.84229 8.72165L4.7523 12.645C4.34198 13.0386 4.34198 13.6947 4.7523 14.0883L5.01045 14.3359C5.39734 14.7071 6.00807 14.7071 6.39496 14.3359L12.2477 8.72165Z" />
    </svg>
    <svg id="chevron-bot" xmlns="http://www.w3.org/2000/svg" viewBox="0 0 24 24">
        <path d="M12 15.3751L6 9.3751L7.4 7.9751L12 12.5751L16.6 7.9751L18 9.3751L12 15.3751Z" />
    </svg>
    <svg id="loupe" xmlns="http://www.w3.org/2000/svg" viewBox="0 0 24 24">
        <path
            d="M21.7075 20.29L17.9975 16.61C19.4376 14.8144 20.135 12.5353 19.9463 10.2413C19.7576 7.94731 18.6971 5.81279 16.983 4.27665C15.2688 2.74051 13.0313 1.91951 10.7304 1.98247C8.4295 2.04543 6.24018 2.98757 4.6126 4.61515C2.98502 6.24273 2.04289 8.43204 1.97993 10.7329C1.91697 13.0338 2.73797 15.2714 4.27411 16.9855C5.81025 18.6997 7.94476 19.7601 10.2388 19.9488C12.5328 20.1375 14.8119 19.4401 16.6075 18L20.2875 21.68C20.3804 21.7737 20.491 21.8481 20.6129 21.8989C20.7347 21.9497 20.8655 21.9758 20.9975 21.9758C21.1295 21.9758 21.2602 21.9497 21.382 21.8989C21.5039 21.8481 21.6145 21.7737 21.7075 21.68C21.8877 21.4935 21.9885 21.2443 21.9885 20.985C21.9885 20.7257 21.8877 20.4765 21.7075 20.29ZM10.9975 18C9.61299 18 8.25962 17.5895 7.10847 16.8203C5.95733 16.0511 5.06012 14.9579 4.53031 13.6788C4.00049 12.3997 3.86187 10.9922 4.13197 9.63437C4.40206 8.2765 5.06875 7.02922 6.04772 6.05026C7.02668 5.07129 8.27396 4.4046 9.63183 4.13451C10.9897 3.86441 12.3972 4.00303 13.6762 4.53285C14.9553 5.06266 16.0486 5.95987 16.8178 7.11101C17.5869 8.26216 17.9975 9.61553 17.9975 11C17.9975 12.8565 17.26 14.637 15.9472 15.9498C14.6345 17.2625 12.854 18 10.9975 18Z" />
    </svg>
    <svg id="close" xmlns="http://www.w3.org/2000/svg" viewBox="0 0 18 18">
        <path d="M17 17L1 1M17 1L1 17" stroke-width="2" stroke-linecap="round" />
    </svg>
    <svg id="plus" xmlns="http://www.w3.org/2000/svg" viewBox="0 0 25 24">
        <path d="M19.5 12.998H13.5V18.998H11.5V12.998H5.5V10.998H11.5V4.99799H13.5V10.998H19.5V12.998Z" />
    </svg>
    <svg id="home" xmlns="http://www.w3.org/2000/svg" viewBox="0 0 24 24" fill="none">
        <path
            d="M20.8748 9.89531C20.8748 9.75572 20.8125 9.62186 20.7015 9.52316C20.5906 9.42446 20.4401 9.36901 20.2832 9.36901C20.1263 9.36901 19.9758 9.42446 19.8648 9.52316C19.7538 9.62186 19.6915 9.75572 19.6915 9.89531H20.8748ZM4.30849 9.89531C4.30849 9.75572 4.24615 9.62186 4.1352 9.52316C4.02424 9.42446 3.87375 9.36901 3.71683 9.36901C3.55992 9.36901 3.40943 9.42446 3.29847 9.52316C3.18751 9.62186 3.12518 9.75572 3.12518 9.89531H4.30849ZM22.2309 12.3731C22.342 12.4719 22.4927 12.5274 22.6498 12.5274C22.8069 12.5274 22.9576 12.4719 23.0687 12.3731C23.1798 12.2743 23.2422 12.1402 23.2422 12.0005C23.2422 11.8607 23.1798 11.7267 23.0687 11.6279L22.2309 12.3731ZM12 2.52723L12.4189 2.15462C12.3639 2.10561 12.2986 2.06672 12.2268 2.04019C12.1549 2.01366 12.0778 2 12 2C11.9222 2 11.8451 2.01366 11.7732 2.04019C11.7014 2.06672 11.6361 2.10561 11.5811 2.15462L12 2.52723ZM0.931323 11.6279C0.820226 11.7267 0.757812 11.8607 0.757812 12.0005C0.757812 12.1402 0.820226 12.2743 0.931323 12.3731C1.04242 12.4719 1.1931 12.5274 1.35021 12.5274C1.50733 12.5274 1.65801 12.4719 1.76911 12.3731L0.931323 11.6279ZM6.08345 22H17.9165V20.9474H6.08345V22ZM20.8748 19.3685V9.89531H19.6915V19.3685H20.8748ZM4.30849 19.3685V9.89531H3.12518V19.3685H4.30849ZM23.0687 11.6279L12.4189 2.15462L11.5811 2.89985L22.2309 12.3731L23.0687 11.6279ZM11.5811 2.15462L0.931323 11.6279L1.76911 12.3731L12.4189 2.89985L11.5811 2.15462ZM17.9165 22C18.7011 22 19.4536 21.7228 20.0084 21.2293C20.5631 20.7358 20.8748 20.0665 20.8748 19.3685H19.6915C19.6915 19.7873 19.5045 20.1889 19.1716 20.485C18.8388 20.7811 18.3873 20.9474 17.9165 20.9474V22ZM6.08345 20.9474C5.6127 20.9474 5.16123 20.7811 4.82836 20.485C4.49549 20.1889 4.30849 19.7873 4.30849 19.3685H3.12518C3.12518 20.0665 3.43685 20.7358 3.99164 21.2293C4.54642 21.7228 5.29887 22 6.08345 22V20.9474Z"
            fill="#231F20" stroke="none" />
        <rect x="10" y="14.2417" width="4" height="7" rx="0.5" />
    </svg>
    <svg id="orders" xmlns="http://www.w3.org/2000/svg" viewBox="0 0 24 24" fill="none">
        <path
            d="M17.7143 2.78571H6.28571C5.02335 2.78571 4 3.80905 4 5.07142V19.9286C4 21.1909 5.02335 22.2143 6.28571 22.2143H17.7143C18.9767 22.2143 20 21.1909 20 19.9286V5.07142C20 3.80905 18.9767 2.78571 17.7143 2.78571Z" />
        <path d="M8.57031 8.5H15.4275M8.57031 13.0714H15.4275M8.57031 17.6429H13.1417" stroke-linecap="round" />
    </svg>
    <svg id="news" xmlns="http://www.w3.org/2000/svg" viewBox="0 0 24 24" fill="none">
        <path
            d="M2 3.11111V18.6667C2 19.256 2.23413 19.8213 2.65087 20.238C3.06762 20.6548 3.63285 20.8889 4.22222 20.8889H19.7778C20.3671 20.8889 20.9324 20.6548 21.3491 20.238C21.7659 19.8213 22 19.256 22 18.6667V7.55556H17.5556"
            stroke-linecap="round" stroke-linejoin="round" />
        <path
            d="M2 3.11111H17.5556V18.6667C17.5556 19.256 17.7897 19.8213 18.2064 20.238C18.6232 20.6548 19.1884 20.8889 19.7778 20.8889M13.1111 7.55556H6.44444M13.1111 12H8.66667"
            stroke-linecap="round" stroke-linejoin="round" />
    </svg>
    <svg id="settings" xmlns="http://www.w3.org/2000/svg" viewBox="0 0 24 24" fill="none">
        <path d="M12 15C13.6569 15 15 13.6569 15 12C15 10.3431 13.6569 9 12 9C10.3431 9 9 10.3431 9 12C9 13.6569 10.3431 15 12 15Z" />
        <path
            d="M13.7635 2.152C13.3965 2 12.9305 2 11.9985 2C11.0665 2 10.6005 2 10.2335 2.152C9.99068 2.25251 9.77005 2.3999 9.58422 2.58572C9.39839 2.77155 9.25101 2.99218 9.1505 3.235C9.0585 3.458 9.0215 3.719 9.0075 4.098C9.00099 4.37193 8.9251 4.63973 8.78694 4.87635C8.64878 5.11298 8.45285 5.31069 8.2175 5.451C7.9783 5.58477 7.70908 5.65567 7.43503 5.65707C7.16097 5.65847 6.89104 5.59032 6.6505 5.459C6.3145 5.281 6.0715 5.183 5.8305 5.151C5.30482 5.08187 4.7732 5.22431 4.3525 5.547C4.0385 5.79 3.8045 6.193 3.3385 7C2.8725 7.807 2.6385 8.21 2.5875 8.605C2.55313 8.86545 2.57042 9.13012 2.63836 9.38389C2.70631 9.63767 2.82359 9.87556 2.9835 10.084C3.1315 10.276 3.3385 10.437 3.6595 10.639C4.1325 10.936 4.4365 11.442 4.4365 12C4.4365 12.558 4.1325 13.064 3.6595 13.36C3.3385 13.563 3.1305 13.724 2.9835 13.916C2.82359 14.1244 2.70631 14.3623 2.63836 14.6161C2.57042 14.8699 2.55313 15.1345 2.5875 15.395C2.6395 15.789 2.8725 16.193 3.3375 17C3.8045 17.807 4.0375 18.21 4.3525 18.453C4.56093 18.6129 4.79883 18.7302 5.0526 18.7981C5.30637 18.8661 5.57105 18.8834 5.8315 18.849C6.0715 18.817 6.3145 18.719 6.6505 18.541C6.89104 18.4097 7.16097 18.3415 7.43503 18.3429C7.70908 18.3443 7.9783 18.4152 8.2175 18.549C8.7005 18.829 8.9875 19.344 9.0075 19.902C9.0215 20.282 9.0575 20.542 9.1505 20.765C9.25101 21.0078 9.39839 21.2284 9.58422 21.4143C9.77005 21.6001 9.99068 21.7475 10.2335 21.848C10.6005 22 11.0665 22 11.9985 22C12.9305 22 13.3965 22 13.7635 21.848C14.0063 21.7475 14.2269 21.6001 14.4128 21.4143C14.5986 21.2284 14.746 21.0078 14.8465 20.765C14.9385 20.542 14.9755 20.282 14.9895 19.902C15.0095 19.344 15.2965 18.828 15.7795 18.549C16.0187 18.4152 16.2879 18.3443 16.562 18.3429C16.836 18.3415 17.106 18.4097 17.3465 18.541C17.6825 18.719 17.9255 18.817 18.1655 18.849C18.4259 18.8834 18.6906 18.8661 18.9444 18.7981C19.1982 18.7302 19.4361 18.6129 19.6445 18.453C19.9595 18.211 20.1925 17.807 20.6585 17C21.1245 16.193 21.3585 15.79 21.4095 15.395C21.4439 15.1345 21.4266 14.8699 21.3586 14.6161C21.2907 14.3623 21.1734 14.1244 21.0135 13.916C20.8655 13.724 20.6585 13.563 20.3375 13.361C20.1034 13.2184 19.9094 13.0187 19.7735 12.7807C19.6376 12.5427 19.5643 12.2741 19.5605 12C19.5605 11.442 19.8645 10.936 20.3375 10.64C20.6585 10.437 20.8665 10.276 21.0135 10.084C21.1734 9.87556 21.2907 9.63767 21.3586 9.38389C21.4266 9.13012 21.4439 8.86545 21.4095 8.605C21.3575 8.211 21.1245 7.807 20.6595 7C20.1925 6.193 19.9595 5.79 19.6445 5.547C19.4361 5.38709 19.1982 5.26981 18.9444 5.20187C18.6906 5.13392 18.4259 5.11664 18.1655 5.151C17.9255 5.183 17.6825 5.281 17.3455 5.459C17.1051 5.59014 16.8353 5.6582 16.5615 5.6568C16.2876 5.6554 16.0186 5.58459 15.7795 5.451C15.5441 5.31069 15.3482 5.11298 15.2101 4.87635C15.0719 4.63973 14.996 4.37193 14.9895 4.098C14.9755 3.718 14.9395 3.458 14.8465 3.235C14.746 2.99218 14.5986 2.77155 14.4128 2.58572C14.2269 2.3999 14.0063 2.25251 13.7635 2.152Z" />
    </svg>
    <svg id="website" xmlns="http://www.w3.org/2000/svg" viewBox="0 0 20 20" fill="none">
        <path
            d="M19.2863 10.0001C19.2863 12.4628 18.308 14.8247 16.5666 16.5661C14.8251 18.3075 12.4633 19.2858 10.0006 19.2858C7.53783 19.2858 5.17598 18.3075 3.43457 16.5661C1.69316 14.8247 0.714844 12.4628 0.714844 10.0001M19.2863 10.0001C19.2863 7.53735 18.308 5.17549 16.5666 3.43408C14.8251 1.69267 12.4633 0.714355 10.0006 0.714355C7.53783 0.714355 5.17598 1.69267 3.43457 3.43408C1.69316 5.17549 0.714844 7.53735 0.714844 10.0001M19.2863 10.0001H0.714844"
            stroke-linecap="round" stroke-linejoin="round" />
        <path
            d="M13.5725 10.0001C13.3971 13.3958 12.1464 16.6477 10.0011 19.2858C7.85586 16.6477 6.60511 13.3958 6.42969 10.0001C6.60511 6.60437 7.85586 3.35243 10.0011 0.714355C12.1464 3.35243 13.3971 6.60437 13.5725 10.0001Z"
            stroke-linecap="round" stroke-linejoin="round" />
    </svg>
    <svg id="telegram" xmlns="http://www.w3.org/2000/svg" viewBox="0 0 20 20">
        <path
            d="M17.9998 2.5668L15.4523 17.3339C15.4523 17.3339 15.0958 18.3578 14.1166 17.8667L8.2388 12.6848L8.21154 12.6695C9.0055 11.8498 15.1622 5.48486 15.4313 5.19635C15.8478 4.74952 15.5892 4.48351 15.1056 4.82104L6.01137 11.4616L2.50283 10.1043C2.50283 10.1043 1.95069 9.87843 1.89758 9.38739C1.84376 8.89556 2.52101 8.62955 2.52101 8.62955L16.8242 2.17783C16.8242 2.17783 17.9998 1.58393 17.9998 2.5668V2.5668Z" />
    </svg>
    <svg id="whatsapp" xmlns="http://www.w3.org/2000/svg" viewBox="0 0 20 20">
        <path
            d="M15.6585 4.33333C14.1533 2.83333 12.1463 2 10.0279 2C5.62369 2 2.05575 5.55556 2.05575 9.94444C2.05575 11.3333 2.44599 12.7222 3.11498 13.8889L2 18L6.23694 16.8889C7.40767 17.5 8.68989 17.8333 10.0279 17.8333C14.4321 17.8333 18 14.2778 18 9.88889C17.9443 7.83333 17.1638 5.83333 15.6585 4.33333ZM13.8746 12.7778C13.7073 13.2222 12.9268 13.6667 12.5366 13.7222C12.2021 13.7778 11.7561 13.7778 11.3101 13.6667C11.0314 13.5556 10.6411 13.4444 10.1951 13.2222C8.18815 12.3889 6.90592 10.3889 6.79443 10.2222C6.68293 10.1111 5.95819 9.16667 5.95819 8.16667C5.95819 7.16667 6.45993 6.72222 6.62718 6.5C6.79443 6.27778 7.01742 6.27778 7.18467 6.27778C7.29617 6.27778 7.46341 6.27778 7.57491 6.27778C7.68641 6.27778 7.85366 6.22222 8.02091 6.61111C8.18815 7 8.5784 8 8.63415 8.05556C8.68989 8.16667 8.68989 8.27778 8.63415 8.38889C8.5784 8.5 8.52265 8.61111 8.41115 8.72222C8.29965 8.83333 8.18815 9 8.1324 9.05556C8.0209 9.16667 7.90941 9.27778 8.02091 9.44444C8.1324 9.66667 8.52265 10.2778 9.13589 10.8333C9.91638 11.5 10.5296 11.7222 10.7526 11.8333C10.9756 11.9444 11.0871 11.8889 11.1986 11.7778C11.3101 11.6667 11.7003 11.2222 11.8118 11C11.9233 10.7778 12.0906 10.8333 12.2578 10.8889C12.4251 10.9444 13.4286 11.4444 13.5958 11.5556C13.8188 11.6667 13.9303 11.7222 13.9861 11.7778C14.0418 11.9444 14.0418 12.3333 13.8746 12.7778Z" />
    </svg>
    <svg id="phone" xmlns="http://www.w3.org/2000/svg" viewBox="0 0 20 20">
        <path
            d="M5.98333 8.55833L11.4033 13.9417C11.9842 13.2692 15.6617 9.32667 17.5 14.7117C17.5 14.7117 17.3067 17.5 13.3383 17.5C10.5325 17.5 7.62917 14.135 5.59667 12.2117C3.855 10.5767 2.5 8.46167 2.5 6.53833C2.5 2.59667 5.21 2.5 5.21 2.5C11.4033 4.615 5.98417 8.55833 5.98417 8.55833" />
    </svg>
    <svg id="mail" xmlns="http://www.w3.org/2000/svg" viewBox="0 0 20 20">
        <path
            d="M16.666 3.33325H3.33268C2.41602 3.33325 1.66602 4.08325 1.66602 4.99992V14.9999C1.66602 15.9166 2.41602 16.6666 3.33268 16.6666H16.666C17.5827 16.6666 18.3327 15.9166 18.3327 14.9999V4.99992C18.3327 4.08325 17.5827 3.33325 16.666 3.33325ZM16.3327 6.87492L10.8827 10.2833C10.341 10.6249 9.65768 10.6249 9.11601 10.2833L3.66602 6.87492C3.58246 6.82801 3.50928 6.76464 3.45092 6.68863C3.39256 6.61262 3.35023 6.52557 3.3265 6.43273C3.30276 6.33989 3.2981 6.2432 3.31281 6.14851C3.32752 6.05382 3.3613 5.9631 3.41208 5.88184C3.46287 5.80058 3.52962 5.73046 3.60829 5.67575C3.68696 5.62103 3.77591 5.58284 3.86976 5.5635C3.96362 5.54416 4.06042 5.54406 4.15431 5.56321C4.2482 5.58236 4.33724 5.62036 4.41602 5.67492L9.99935 9.16658L15.5827 5.67492C15.6615 5.62036 15.7505 5.58236 15.8444 5.56321C15.9383 5.54406 16.0351 5.54416 16.1289 5.5635C16.2228 5.58284 16.3117 5.62103 16.3904 5.67575C16.4691 5.73046 16.5358 5.80058 16.5866 5.88184C16.6374 5.9631 16.6712 6.05382 16.6859 6.14851C16.7006 6.2432 16.6959 6.33989 16.6722 6.43273C16.6485 6.52557 16.6061 6.61262 16.5478 6.68863C16.4894 6.76464 16.4162 6.82801 16.3327 6.87492Z" />
    </svg>
    <svg id="address" xmlns="http://www.w3.org/2000/svg" viewBox="0 0 24 24">
        <path
            d="M18.3641 4.63606C20.0164 6.28819 20.9614 8.51817 20.9993 10.8545C21.0372 13.1908 20.1649 15.4502 18.5671 17.1551L18.3641 17.3651L14.1211 21.6071C13.5827 22.1451 12.8599 22.4584 12.0992 22.4834C11.3385 22.5085 10.5967 22.2435 10.0241 21.7421L9.88006 21.6071L5.63606 17.3641C3.94822 15.6762 3 13.387 3 11.0001C3 8.61309 3.94822 6.32389 5.63606 4.63606C7.32389 2.94822 9.61309 2 12.0001 2C14.387 2 16.6762 2.94822 18.3641 4.63606ZM12.0001 8.00006C11.6061 8.00006 11.216 8.07765 10.852 8.22842C10.488 8.37918 10.1573 8.60016 9.87873 8.87873C9.60016 9.15731 9.37918 9.48803 9.22842 9.85201C9.07765 10.216 9.00006 10.6061 9.00006 11.0001C9.00006 11.394 9.07765 11.7841 9.22842 12.1481C9.37918 12.5121 9.60016 12.8428 9.87873 13.1214C10.1573 13.4 10.488 13.6209 10.852 13.7717C11.216 13.9225 11.6061 14.0001 12.0001 14.0001C12.7957 14.0001 13.5588 13.684 14.1214 13.1214C14.684 12.5588 15.0001 11.7957 15.0001 11.0001C15.0001 10.2044 14.684 9.44134 14.1214 8.87873C13.5588 8.31613 12.7957 8.00006 12.0001 8.00006Z" />
    </svg>
    <svg id="upload" xmlns="http://www.w3.org/2000/svg" viewBox="0 0 24 24">
        <path
            d="M11.5 15.577V6.927L9.17 9.257L8.462 8.539L12 5L15.539 8.539L14.831 9.258L12.5 6.927V15.577H11.5ZM6.616 19C6.15533 19 5.771 18.846 5.463 18.538C5.155 18.23 5.00067 17.8453 5 17.384V14.961H6V17.384C6 17.538 6.064 17.6793 6.192 17.808C6.32 17.9367 6.461 18.0007 6.615 18H17.385C17.5383 18 17.6793 17.936 17.808 17.808C17.9367 17.68 18.0007 17.5387 18 17.384V14.961H19V17.384C19 17.8447 18.846 18.229 18.538 18.537C18.23 18.845 17.8453 18.9993 17.384 19H6.616Z" />
    </svg>
    <svg id="link" xmlns="http://www.w3.org/2000/svg" viewBox="0 0 10 10">
        <path
            d="M5.58588 0.197519L9.82343 4.54292C9.88764 4.60876 9.93323 4.68009 9.96019 4.7569C9.98673 4.83371 10 4.91601 10 5.0038C10 5.09158 9.98673 5.17388 9.96019 5.2507C9.93323 5.32751 9.88764 5.39884 9.82343 5.46467L5.58588 9.81008C5.46816 9.93078 5.32113 9.99399 5.14478 9.9997C4.968 10.005 4.81541 9.94176 4.687 9.81008C4.55859 9.68937 4.4916 9.5386 4.48604 9.35776C4.4809 9.17648 4.54254 9.02001 4.67095 8.88833L7.81701 5.66219L0.642055 5.66219C0.460139 5.66219 0.307545 5.59921 0.18427 5.47323C0.0614233 5.34682 0 5.19034 0 5.0038C0 4.81725 0.0614233 4.661 0.18427 4.53502C0.307545 4.40861 0.460139 4.3454 0.642055 4.3454L7.81701 4.3454L4.67095 1.11927C4.55324 0.998566 4.4916 0.84494 4.48604 0.658395C4.4809 0.471849 4.54254 0.318225 4.67095 0.197519C4.78866 0.0658407 4.93847 0 5.12039 0C5.3023 0 5.45746 0.0658407 5.58588 0.197519Z" />
    </svg>
    <svg id="logOut" xmlns="http://www.w3.org/2000/svg" viewBox="0 0 24 24">
        <path
            d="M12 3C12.2549 3.00028 12.5 3.09788 12.6854 3.27285C12.8707 3.44782 12.9822 3.68695 12.9972 3.94139C13.0121 4.19584 12.9293 4.44638 12.7657 4.64183C12.6021 4.83729 12.3701 4.9629 12.117 4.993L12 5H7C6.75507 5.00003 6.51866 5.08996 6.33563 5.25272C6.15259 5.41547 6.03566 5.63975 6.007 5.883L6 6V18C6.00003 18.2449 6.08996 18.4813 6.25272 18.6644C6.41547 18.8474 6.63975 18.9643 6.883 18.993L7 19H11.5C11.7549 19.0003 12 19.0979 12.1854 19.2728C12.3707 19.4478 12.4822 19.687 12.4972 19.9414C12.5121 20.1958 12.4293 20.4464 12.2657 20.6418C12.1021 20.8373 11.8701 20.9629 11.617 20.993L11.5 21H7C6.23479 21 5.49849 20.7077 4.94174 20.1827C4.38499 19.6578 4.04989 18.9399 4.005 18.176L4 18V6C3.99996 5.23479 4.29233 4.49849 4.81728 3.94174C5.34224 3.38499 6.06011 3.04989 6.824 3.005L7 3H12ZM17.707 8.464L20.535 11.293C20.7225 11.4805 20.8278 11.7348 20.8278 12C20.8278 12.2652 20.7225 12.5195 20.535 12.707L17.707 15.536C17.5194 15.7235 17.2649 15.8288 16.9996 15.8287C16.7344 15.8286 16.48 15.7231 16.2925 15.5355C16.105 15.3479 15.9997 15.0934 15.9998 14.8281C15.9999 14.5629 16.1054 14.3085 16.293 14.121L17.414 13H12C11.7348 13 11.4804 12.8946 11.2929 12.7071C11.1054 12.5196 11 12.2652 11 12C11 11.7348 11.1054 11.4804 11.2929 11.2929C11.4804 11.1054 11.7348 11 12 11H17.414L16.293 9.879C16.1054 9.69149 15.9999 9.43712 15.9998 9.17185C15.9997 8.90658 16.105 8.65214 16.2925 8.4645C16.48 8.27686 16.7344 8.17139 16.9996 8.1713C17.2649 8.1712 17.5194 8.27649 17.707 8.464Z" />
    </svg>
    <svg id="filter" xmlns="http://www.w3.org/2000/svg" viewBox="0 0 20 20">
        <path fill-rule="evenodd" clip-rule="evenodd"
            d="M4.12685 1.875H15.8719C16.4277 1.875 16.9027 1.875 17.2827 1.9225C17.6852 1.97333 18.0743 2.0875 18.3943 2.3875C18.7193 2.69333 18.8485 3.07417 18.9052 3.47C18.9577 3.83417 18.9577 4.28667 18.9577 4.80333V5.45C18.9577 5.8575 18.9577 6.20833 18.9277 6.5025C18.8944 6.81917 18.8235 7.115 18.6518 7.39917C18.481 7.68167 18.2518 7.88667 17.9868 8.07C17.7377 8.24333 17.4202 8.4225 17.0452 8.63333L14.5935 10.0133C14.0352 10.3275 13.841 10.4408 13.711 10.5533C13.4135 10.8117 13.2427 11.0992 13.1627 11.4583C13.1285 11.6125 13.1243 11.8058 13.1243 12.3942V14.6708C13.1243 15.4217 13.1243 16.0592 13.0468 16.55C12.9652 17.0708 12.7743 17.5708 12.2743 17.8833C11.7852 18.1892 11.2477 18.1608 10.7243 18.0367C10.2202 17.9175 9.59935 17.6742 8.85435 17.3833L8.78268 17.355C8.43268 17.2183 8.12768 17.0992 7.88602 16.9742C7.62602 16.84 7.38435 16.6733 7.20018 16.4133C7.01268 16.15 6.93852 15.8683 6.90435 15.58C6.87435 15.3175 6.87435 15.0025 6.87435 14.6508V12.3942C6.87435 11.8058 6.87102 11.6125 6.83602 11.4583C6.76055 11.1035 6.56731 10.7845 6.28768 10.5533C6.15768 10.4408 5.96268 10.3275 5.40518 10.0133L2.95352 8.63333C2.57852 8.4225 2.26102 8.24333 2.01185 8.07C1.74685 7.88667 1.51768 7.68167 1.34685 7.39917C1.17518 7.115 1.10435 6.81833 1.07185 6.5025C1.04102 6.20917 1.04102 5.8575 1.04102 5.45V4.80333C1.04102 4.28667 1.04102 3.83417 1.09352 3.47C1.15018 3.07417 1.27935 2.69333 1.60435 2.3875C1.92435 2.0875 2.31268 1.97333 2.71602 1.9225C3.09602 1.875 3.57102 1.875 4.12685 1.875ZM2.87268 3.16333C2.59435 3.19833 2.50602 3.255 2.46018 3.29917C2.41852 3.3375 2.36518 3.405 2.33018 3.6475C2.29268 3.9125 2.29102 4.27417 2.29102 4.84583V5.42083C2.29102 5.86583 2.29102 6.1525 2.31435 6.37417C2.33602 6.58 2.37268 6.67917 2.41768 6.75333C2.46352 6.82917 2.54018 6.915 2.72435 7.04333C2.91935 7.17833 3.18518 7.32917 3.59102 7.5575L6.01852 8.92417L6.08518 8.96167C6.55185 9.22417 6.86852 9.4025 7.10685 9.60917C7.58887 10.0158 7.92287 10.5704 8.05685 11.1867C8.12435 11.4925 8.12435 11.8367 8.12435 12.32V14.6192C8.12435 15.0125 8.12518 15.2542 8.14685 15.4358C8.16518 15.6008 8.19602 15.6567 8.21852 15.6892C8.24352 15.7242 8.29352 15.7783 8.45935 15.8642C8.63602 15.955 8.88018 16.0508 9.26518 16.2017C10.066 16.515 10.6052 16.7242 11.0127 16.8208C11.4118 16.9158 11.5435 16.8667 11.611 16.8242C11.6677 16.7883 11.7552 16.7158 11.8127 16.355C11.8727 15.9742 11.8743 15.4358 11.8743 14.6183V12.32C11.8743 11.8367 11.8743 11.4925 11.9427 11.1867C12.0764 10.5705 12.4101 10.0159 12.8918 9.60917C13.1302 9.4025 13.4477 9.22333 13.9127 8.96167L13.9802 8.92417L16.4077 7.5575C16.8135 7.32917 17.0793 7.17833 17.2743 7.04333C17.4585 6.915 17.5352 6.82917 17.581 6.75333C17.626 6.67917 17.6627 6.58 17.6835 6.37417C17.7069 6.1525 17.7077 5.86583 17.7077 5.42V4.845C17.7077 4.27417 17.706 3.91167 17.6685 3.6475C17.6335 3.405 17.5794 3.3375 17.5394 3.29917C17.4927 3.25583 17.4043 3.19833 17.126 3.16333C16.8343 3.12583 16.4385 3.125 15.8327 3.125H4.16602C3.56018 3.125 3.16518 3.12583 2.87268 3.16333Z"/>
    </svg>
</svg>