<svg xmlns="http://www.w3.org/2000/svg" width="15" height="16" viewBox="0 0 15 16" fill="none">
<path d="M4.9 3.5V2C4.9 1.73478 4.99131 1.48043 5.15384 1.29289C5.31637 1.10536 5.53681 1 5.76667 1H9.23333C9.46319 1 9.68363 1.10536 9.84616 1.29289C10.0087 1.48043 10.1 1.73478 10.1 2V3.5M1 4H14M2.3 4V14C2.3 14.2652 2.39131 14.5196 2.55384 14.7071C2.71637 14.8946 2.93681 15 3.16667 15H11.8333C12.0632 15 12.2836 14.8946 12.4462 14.7071C12.6087 14.5196 12.7 14.2652 12.7 14V4M7.5 7.5V12.5M4.9 9.5V12.5M10.1 9.5V12.5" stroke="#EE1D23"/>
</svg>