<svg width="20" height="20" viewBox="0 0 20 20" fill="none" xmlns="http://www.w3.org/2000/svg">
<g opacity="0.5">
<path fill-rule="evenodd" clip-rule="evenodd" d="M10.0007 2.66493C5.94965 2.66493 2.66567 5.94892 2.66567 9.99992C2.66567 14.0509 5.94965 17.3349 10.0007 17.3349C14.0517 17.3349 17.3356 14.0509 17.3356 9.99992C17.3356 5.94892 14.0517 2.66493 10.0007 2.66493ZM1.33203 9.99992C1.33203 5.21237 5.2131 1.3313 10.0007 1.3313C14.7882 1.3313 18.6693 5.21237 18.6693 9.99992C18.6693 14.7875 14.7882 18.6685 10.0007 18.6685C5.2131 18.6685 1.33203 14.7875 1.33203 9.99992Z" fill="#231F20"/>
<path fill-rule="evenodd" clip-rule="evenodd" d="M9.11213 5.77686C9.4804 5.77686 9.77895 6.0754 9.77895 6.44367V10.2223H13.5576C13.9258 10.2223 14.2244 10.5208 14.2244 10.8891C14.2244 11.2574 13.9258 11.5559 13.5576 11.5559H9.11213C8.74386 11.5559 8.44531 11.2574 8.44531 10.8891V6.44367C8.44531 6.0754 8.74386 5.77686 9.11213 5.77686Z" fill="#231F20"/>
</g>
</svg>
