<svg width="24" height="24" viewBox="0 0 24 24" fill="none" xmlns="http://www.w3.org/2000/svg">
<path d="M3.04025 12L2.44632 11.7566C2.38508 11.9128 2.38508 12.0873 2.44632 12.2435L3.04025 12ZM20.9605 12L21.5545 12.2435C21.6157 12.0873 21.6157 11.9128 21.5545 11.7566L20.9605 12ZM12.0004 17.891C9.03842 17.891 6.95839 16.3829 5.59645 14.8355C4.85267 13.9838 4.22843 13.0304 3.7417 12.0027L3.6393 11.767L3.63418 11.7579L3.04025 12L2.44632 12.2435V12.2462L2.45016 12.2514L2.48344 12.3339L2.58328 12.5603C3.12329 13.7034 3.81695 14.7635 4.64412 15.71C6.1635 17.4367 8.56226 19.2 12.0004 19.2V17.891ZM3.04025 12L3.63418 12.2435L3.6393 12.2331C3.6709 12.1534 3.70506 12.0748 3.7417 11.9974C4.22843 10.9697 4.85267 10.0163 5.59645 9.16456C6.95711 7.61721 9.03842 6.10914 12.0004 6.10914V4.80005C8.56226 4.80005 6.16222 6.5647 4.64412 8.29008C3.81695 9.23658 3.12329 10.2967 2.58328 11.4398C2.53675 11.5418 2.49237 11.6448 2.45016 11.7487L2.4476 11.7539V11.7552H2.44504L3.04025 12ZM12.0004 6.10914C14.9624 6.10914 17.0424 7.61721 18.4043 9.16456C19.1481 10.0163 19.7723 10.9697 20.2591 11.9974L20.3615 12.2331L20.3666 12.2422L20.9605 12L21.5545 11.7566V11.7539L21.5506 11.7487L21.5173 11.6662L21.4175 11.4398C20.8775 10.2967 20.1838 9.23658 19.3567 8.29008C17.8373 6.5647 15.4385 4.80005 12.0004 4.80005V6.10914ZM20.9605 12L20.3666 11.7566L20.3628 11.767L20.3436 11.8128L20.2591 12.0027C19.7723 13.0304 19.1481 13.9838 18.4043 14.8355C17.0437 16.3829 14.9624 17.891 12.0004 17.891V19.2C15.4385 19.2 17.8386 17.4354 19.3567 15.7113C20.1839 14.7644 20.8776 13.7038 21.4175 12.5603C21.464 12.4583 21.5084 12.3553 21.5506 12.2514L21.5532 12.2462V12.2448L21.5545 12.2435L20.9605 12ZM12.0004 13.9637C11.4912 13.9637 11.0028 13.7568 10.6427 13.3885C10.2826 13.0203 10.0804 12.5208 10.0804 12H8.80034C8.80034 12.868 9.13749 13.7005 9.73761 14.3142C10.3377 14.928 11.1517 15.2728 12.0004 15.2728V13.9637ZM13.9204 12C13.9204 12.5208 13.7181 13.0203 13.3581 13.3885C12.998 13.7568 12.5096 13.9637 12.0004 13.9637V15.2728C12.8491 15.2728 13.663 14.928 14.2632 14.3142C14.8633 13.7005 15.2004 12.868 15.2004 12H13.9204ZM12.0004 10.0364C12.5096 10.0364 12.998 10.2433 13.3581 10.6115C13.7181 10.9798 13.9204 11.4793 13.9204 12H15.2004C15.2004 11.1321 14.8633 10.2996 14.2632 9.68588C13.663 9.07213 12.8491 8.72732 12.0004 8.72732V10.0364ZM12.0004 8.72732C11.1517 8.72732 10.3377 9.07213 9.73761 9.68588C9.13749 10.2996 8.80034 11.1321 8.80034 12H10.0804C10.0804 11.4793 10.2826 10.9798 10.6427 10.6115C11.0028 10.2433 11.4912 10.0364 12.0004 10.0364V8.72732Z" fill="black"/>
</svg>
