<svg xmlns="http://www.w3.org/2000/svg" width="24" height="24" viewBox="0 0 24 24" fill="none">
<path fill-rule="evenodd" clip-rule="evenodd" d="M12.2236 2.79156C11.8128 2.7132 11.252 2.70717 10.2411 2.70717C8.52918 2.70717 7.312 2.70918 6.3904 2.84782C5.48667 2.98345 4.96782 3.23964 4.59008 3.6636C4.21233 4.08756 3.9855 4.67127 3.86494 5.68194C3.74171 6.71473 3.73992 8.07502 3.73992 9.9919V14.0105C3.73992 15.9254 3.74171 17.2857 3.86494 18.3184C3.9855 19.3291 4.21233 19.9118 4.59008 20.3378C4.96782 20.7618 5.48577 21.0169 6.38415 21.1526C7.30218 21.2922 8.51132 21.2932 10.2143 21.2932H13.7864C15.4894 21.2932 16.6994 21.2912 17.6174 21.1526C18.5149 21.0169 19.0329 20.7618 19.4106 20.3368C19.7884 19.9118 20.0152 19.3291 20.1358 18.3184C20.259 17.2867 20.2608 15.9254 20.2608 14.0095V13.5705C20.2608 12.0273 20.2519 11.2959 20.1054 10.7444H17.3102C16.2985 10.7444 15.4724 10.7444 14.8187 10.6459C14.1373 10.5424 13.5462 10.3194 13.0738 9.78795C12.6014 9.25649 12.4031 8.59242 12.3111 7.82386C12.2236 7.09047 12.2236 6.16016 12.2236 5.02088V2.79156ZM13.5631 3.57117V4.96764C13.5631 6.17322 13.5649 7.00105 13.639 7.62293C13.7105 8.22371 13.8391 8.51807 14.0213 8.72202C14.2034 8.92596 14.4642 9.07164 14.9982 9.15201C15.551 9.2354 16.2868 9.2374 17.3585 9.2374H19.1624C18.8197 8.87033 18.4713 8.50994 18.1175 8.1564L14.5821 4.57683C14.2486 4.23381 13.9089 3.89852 13.5631 3.57117ZM10.3706 1.2002C11.6074 1.2002 12.4067 1.2002 13.1416 1.51666C13.8766 1.83413 14.4678 2.4329 15.3831 3.3602L15.4787 3.45664L19.0132 7.03621L19.1249 7.14874C20.1822 8.21869 20.8663 8.91089 21.2333 9.83919C21.6003 10.7675 21.6012 11.8023 21.6003 13.4017V14.0658C21.6003 15.9123 21.6003 17.3751 21.4637 18.5194C21.3226 19.6968 21.0261 20.6502 20.3581 21.4027C19.6893 22.1542 18.8418 22.4877 17.7952 22.6465C16.7771 22.8002 15.4778 22.8002 13.8364 22.8002H10.1643C8.52293 22.8002 7.2227 22.8002 6.20555 22.6465C5.15893 22.4877 4.31145 22.1542 3.64258 21.4027C2.9746 20.6502 2.67812 19.6968 2.53702 18.5194C2.40039 17.3741 2.40039 15.9123 2.40039 14.0658V9.93564C2.40039 8.08909 2.40039 6.62632 2.53702 5.48202C2.67812 4.30457 2.9746 3.35115 3.64258 2.59867C4.31235 1.84619 5.16161 1.51365 6.21269 1.35491C7.23431 1.2012 8.54079 1.2012 10.1911 1.2012H10.3715" fill="#231F20"/>
</svg>