<svg xmlns="http://www.w3.org/2000/svg" width="20" height="20" viewBox="0 0 20 20" fill="none">
<path fill-rule="evenodd" clip-rule="evenodd" d="M6.87353 12.8126L9.99922 17.6851L13.1249 12.8126H6.87353ZM8.9471 18.36C9.43897 19.1267 10.5595 19.1267 11.0513 18.36L14.177 13.4875C14.7107 12.6556 14.1133 11.5626 13.1249 11.5626H6.87353C5.88512 11.5626 5.28772 12.6556 5.82141 13.4875L8.9471 18.36Z" fill="#231F20"/>
<path fill-rule="evenodd" clip-rule="evenodd" d="M6.87353 7.1875L9.99922 2.31503L13.1249 7.1875H6.87353ZM8.9471 1.6401C9.43897 0.873344 10.5595 0.873345 11.0513 1.6401L14.177 6.51256C14.7107 7.34451 14.1133 8.4375 13.1249 8.4375H6.87353C5.88512 8.4375 5.28772 7.34451 5.82141 6.51256L8.9471 1.6401Z" fill="#231F20"/>
<path d="M13.3596 7.91256H6.63887L7.07544 5.47001L9.91729 1.58979L13.087 5.47001L13.3596 7.91256Z" fill="#231F20"/>
</svg>