<svg width="250" height="344" viewBox="0 0 250 344" fill="none" xmlns="http://www.w3.org/2000/svg">
<g clip-path="url(#clip0_8_2592)">
<g clip-path="url(#clip1_8_2592)">
<rect width="346" height="346" transform="translate(-96 -2.625)" fill="#231F20"/>
<path d="M203.338 195.156H218.645C219.932 195.156 220.977 194.111 220.977 192.817V186.298C220.977 185.011 219.932 183.959 218.645 183.959H203.338C202.051 183.959 201.006 185.004 201.006 186.298V192.817C201.006 194.104 202.051 195.156 203.338 195.156ZM202.584 186.298C202.584 185.883 202.923 185.544 203.338 185.544H218.645C219.06 185.544 219.399 185.883 219.399 186.298V192.817C219.399 193.232 219.06 193.571 218.645 193.571H203.338C202.923 193.571 202.584 193.232 202.584 192.817V186.298Z" fill="white" fill-opacity="0.5"/>
<path d="M197.58 190.63C197.047 190.63 196.611 191.059 196.611 191.599C196.611 192.138 197.04 192.567 197.58 192.567H199.13V194.242C199.13 196.013 200.57 197.453 202.341 197.453H204.03V199.003C204.03 199.536 204.459 199.972 204.998 199.972C205.538 199.972 205.967 199.543 205.967 199.003V197.453H208.036V199.003C208.036 199.536 208.465 199.972 209.005 199.972C209.545 199.972 209.974 199.543 209.974 199.003V197.453H212.043V199.003C212.043 199.536 212.472 199.972 213.012 199.972C213.551 199.972 213.981 199.543 213.981 199.003V197.453H216.05V199.003C216.05 199.536 216.479 199.972 217.018 199.972C217.558 199.972 217.987 199.543 217.987 199.003V197.453H219.676C221.447 197.453 222.887 196.013 222.887 194.242V192.567H224.437C224.969 192.567 225.405 192.138 225.405 191.599C225.405 191.059 224.976 190.63 224.437 190.63H222.887V188.561H224.437C224.969 188.561 225.405 188.132 225.405 187.592C225.405 187.052 224.976 186.623 224.437 186.623H222.887V184.879C222.887 183.108 221.447 181.668 219.676 181.668H217.987V180.118C217.987 179.585 217.558 179.149 217.018 179.149C216.479 179.149 216.05 179.578 216.05 180.118V181.668H213.981V180.118C213.981 179.585 213.551 179.149 213.012 179.149C212.472 179.149 212.043 179.578 212.043 180.118V181.668H209.974V180.118C209.974 179.585 209.545 179.149 209.005 179.149C208.465 179.149 208.036 179.578 208.036 180.118V181.668H205.967V180.118C205.967 179.585 205.538 179.149 204.998 179.149C204.459 179.149 204.03 179.578 204.03 180.118V181.668H202.341C200.57 181.668 199.13 183.108 199.13 184.879V186.623H197.58C197.047 186.623 196.611 187.052 196.611 187.592C196.611 188.132 197.04 188.561 197.58 188.561H199.13V190.63H197.58ZM200.708 184.886C200.708 183.986 201.435 183.26 202.334 183.26H219.634C220.534 183.26 221.26 183.993 221.26 184.886V194.235C221.26 195.135 220.527 195.861 219.634 195.861H202.334C201.435 195.861 200.708 195.135 200.708 194.235V184.886Z" fill="white" fill-opacity="0.5"/>
<path d="M158.227 236.212H142.92C141.633 236.212 140.588 237.257 140.588 238.551V245.07C140.588 246.357 141.633 247.408 142.92 247.408H158.227C159.514 247.408 160.559 246.364 160.559 245.07V238.551C160.559 237.264 159.514 236.212 158.227 236.212ZM158.981 245.07C158.981 245.485 158.642 245.824 158.227 245.824H142.92C142.505 245.824 142.166 245.485 142.166 245.07V238.551C142.166 238.136 142.505 237.797 142.92 237.797H158.227C158.642 237.797 158.981 238.136 158.981 238.551V245.07Z" fill="white" fill-opacity="0.5"/>
<path d="M163.984 240.814C164.516 240.814 164.952 240.385 164.952 239.845C164.952 239.305 164.523 238.876 163.984 238.876H162.433V237.132C162.433 235.361 160.994 233.921 159.223 233.921H157.534V232.371C157.534 231.838 157.105 231.402 156.565 231.402C156.026 231.402 155.596 231.831 155.596 232.371V233.921H153.527V232.371C153.527 231.838 153.098 231.402 152.559 231.402C152.019 231.402 151.59 231.831 151.59 232.371V233.921H149.521V232.371C149.521 231.838 149.092 231.402 148.552 231.402C148.012 231.402 147.583 231.831 147.583 232.371V233.921H145.514V232.371C145.514 231.838 145.085 231.402 144.545 231.402C144.005 231.402 143.576 231.831 143.576 232.371V233.921H141.888C140.116 233.921 138.677 235.361 138.677 237.132V238.876H137.127C136.594 238.876 136.158 239.305 136.158 239.845C136.158 240.385 136.587 240.814 137.127 240.814H138.677V242.883H137.127C136.594 242.883 136.158 243.312 136.158 243.851C136.158 244.391 136.587 244.82 137.127 244.82H138.677V246.495C138.677 248.266 140.116 249.706 141.888 249.706H143.576V251.256C143.576 251.789 144.005 252.225 144.545 252.225C145.085 252.225 145.514 251.796 145.514 251.256V249.706H147.583V251.256C147.583 251.789 148.012 252.225 148.552 252.225C149.092 252.225 149.521 251.796 149.521 251.256V249.706H151.59V251.256C151.59 251.789 152.019 252.225 152.559 252.225C153.098 252.225 153.527 251.796 153.527 251.256V249.706H155.596V251.256C155.596 251.789 156.026 252.225 156.565 252.225C157.105 252.225 157.534 251.796 157.534 251.256V249.706H159.223C160.994 249.706 162.433 248.266 162.433 246.495V244.82H163.984C164.516 244.82 164.952 244.391 164.952 243.851C164.952 243.312 164.523 242.883 163.984 242.883H162.433V240.814H163.984ZM160.856 246.481C160.856 247.381 160.129 248.107 159.229 248.107H141.929C141.03 248.107 140.303 247.381 140.303 246.481V237.132C140.303 236.233 141.03 235.506 141.929 235.506H159.229C160.129 235.506 160.856 236.239 160.856 237.132V246.481Z" fill="white" fill-opacity="0.5"/>
<path d="M27.9503 195.017C29.0663 195.017 29.971 194.112 29.971 192.996C29.971 191.88 29.0663 190.976 27.9503 190.976C26.8344 190.976 25.9297 191.88 25.9297 192.996C25.9297 194.112 26.8344 195.017 27.9503 195.017Z" fill="#EE1D23"/>
<path d="M31.5625 207.625C31.5625 208.739 32.469 209.646 33.5831 209.646C34.6973 209.646 35.6038 208.739 35.6038 207.625C35.6038 206.511 34.6973 205.604 33.5831 205.604C32.469 205.604 31.5625 206.511 31.5625 207.625Z" fill="#EE1D23"/>
<path d="M39.1554 226.22C40.2714 226.22 41.176 225.315 41.176 224.199C41.176 223.083 40.2714 222.178 39.1554 222.178C38.0394 222.178 37.1348 223.083 37.1348 224.199C37.1348 225.315 38.0394 226.22 39.1554 226.22Z" fill="#EE1D23"/>
<path d="M24.0343 257.588C22.9202 257.588 22.0137 258.494 22.0137 259.609C22.0137 260.723 22.9202 261.629 24.0343 261.629C25.1484 261.629 26.055 260.723 26.055 259.609C26.055 258.494 25.1484 257.588 24.0343 257.588Z" fill="#EE1D23"/>
<path d="M24.0343 269.719C22.9202 269.719 22.0137 270.625 22.0137 271.739C22.0137 272.854 22.9202 273.76 24.0343 273.76C25.1484 273.76 26.055 272.854 26.055 271.739C26.055 270.625 25.1484 269.719 24.0343 269.719Z" fill="#EE1D23"/>
<path d="M24.0343 281.856C22.9202 281.856 22.0137 282.763 22.0137 283.877C22.0137 284.991 22.9202 285.898 24.0343 285.898C25.1484 285.898 26.055 284.991 26.055 283.877C26.055 282.763 25.1484 281.856 24.0343 281.856Z" fill="#EE1D23"/>
<path d="M24.0343 293.987C22.9202 293.987 22.0137 294.893 22.0137 296.007C22.0137 297.122 22.9202 298.028 24.0343 298.028C25.1484 298.028 26.055 297.122 26.055 296.007C26.055 294.893 25.1484 293.987 24.0343 293.987Z" fill="#EE1D23"/>
<path d="M100.015 165.199C100.423 165.607 101.088 165.607 101.503 165.199C101.918 164.791 101.911 164.126 101.503 163.711C101.095 163.303 100.43 163.303 100.015 163.711C99.6069 164.119 99.6069 164.784 100.015 165.199Z" fill="#EE1D23"/>
<path d="M95.5601 169.656C95.9684 170.064 96.6327 170.064 97.0479 169.656C97.4631 169.247 97.4562 168.583 97.0479 168.168C96.6396 167.752 95.9753 167.759 95.5601 168.168C95.1518 168.576 95.1518 169.24 95.5601 169.656Z" fill="#EE1D23"/>
<path d="M91.1031 172.631C90.6948 173.039 90.6948 173.704 91.1031 174.119C91.5114 174.534 92.1757 174.527 92.5909 174.119C92.9992 173.71 92.9992 173.046 92.5909 172.631C92.1826 172.223 91.5183 172.223 91.1031 172.631Z" fill="#EE1D23"/>
<path d="M86.6461 177.08C86.2378 177.489 86.2378 178.153 86.6461 178.568C87.0543 178.976 87.7186 178.976 88.1338 178.568C88.549 178.16 88.5421 177.495 88.1338 177.08C87.7256 176.665 87.0613 176.672 86.6461 177.08Z" fill="#EE1D23"/>
<path d="M188.482 209.369C189.596 209.369 190.502 208.463 190.502 207.349C190.502 206.235 189.596 205.328 188.482 205.328C187.367 205.328 186.461 206.235 186.461 207.349C186.461 208.463 187.367 209.369 188.482 209.369Z" fill="#EE1D23"/>
<path d="M180.98 201.861C182.094 201.861 183 200.955 183 199.84C183 198.726 182.094 197.82 180.98 197.82C179.866 197.82 178.959 198.726 178.959 199.84C178.959 200.955 179.866 201.861 180.98 201.861Z" fill="#EE1D23"/>
<path d="M173.472 194.353C174.588 194.353 175.492 193.448 175.492 192.332C175.492 191.216 174.588 190.312 173.472 190.312C172.356 190.312 171.451 191.216 171.451 192.332C171.451 193.448 172.356 194.353 173.472 194.353Z" fill="#EE1D23"/>
<path d="M107.407 193.121H169.175C169.549 195.155 171.327 196.699 173.473 196.699C175.881 196.699 177.846 194.74 177.846 192.325C177.846 189.91 175.888 187.952 173.473 187.952C171.334 187.952 169.549 189.495 169.175 191.529H107.075C106.868 191.529 106.667 191.612 106.515 191.758L103.283 194.989C103.138 195.135 103.055 195.342 103.055 195.55V253.401C103.055 253.726 103.248 254.01 103.546 254.135C103.643 254.176 103.74 254.19 103.844 254.19C104.051 254.19 104.259 254.107 104.411 253.948L111.919 246.17C112.065 246.024 112.141 245.824 112.141 245.623V203.383L114.909 200.615H176.677C177.05 202.65 178.829 204.193 180.974 204.193C183.382 204.193 185.347 202.235 185.347 199.819C185.347 197.404 183.389 195.446 180.974 195.446C178.836 195.446 177.05 196.989 176.677 199.024H114.576C114.369 199.024 114.168 199.107 114.016 199.252L110.784 202.484C110.639 202.629 110.556 202.837 110.556 203.044V245.291L104.632 251.429V195.868L107.4 193.1L107.407 193.121ZM173.473 189.543C175.009 189.543 176.261 190.796 176.261 192.332C176.261 193.868 175.009 195.121 173.473 195.121C171.936 195.121 170.684 193.868 170.684 192.332C170.684 190.796 171.936 189.543 173.473 189.543ZM180.981 197.051C182.517 197.051 183.77 198.304 183.77 199.84C183.77 201.376 182.517 202.629 180.981 202.629C179.445 202.629 178.192 201.376 178.192 199.84C178.192 198.304 179.445 197.051 180.981 197.051Z" fill="white" fill-opacity="0.5"/>
<path d="M165.964 186.851C167.078 186.851 167.985 185.945 167.985 184.831C167.985 183.717 167.078 182.81 165.964 182.81C164.85 182.81 163.943 183.717 163.943 184.831C163.943 185.945 164.85 186.851 165.964 186.851Z" fill="#EE1D23"/>
<path d="M99.0122 184.264L95.7805 187.495C95.6352 187.641 95.5522 187.848 95.5522 188.056V252.502H67.1248C66.9172 252.502 66.7165 252.585 66.5643 252.73L61.0906 258.204C60.8622 258.432 60.7999 258.771 60.9176 259.069C61.0421 259.366 61.3258 259.56 61.6511 259.56H107.724C107.932 259.56 108.133 259.477 108.285 259.332L119.426 248.191C119.426 248.191 119.454 248.142 119.475 248.114C119.523 248.059 119.565 248.004 119.592 247.935C119.634 247.838 119.655 247.734 119.655 247.63V210.913L122.423 208.145H184.197C184.571 210.179 186.349 211.722 188.495 211.722C190.903 211.722 192.868 209.764 192.868 207.356C192.868 204.947 190.91 202.982 188.495 202.982C186.356 202.982 184.571 204.525 184.197 206.56H121.772L118.077 210.255V247.298L107.399 257.975H63.5679L67.457 254.086H96.348C96.7839 254.086 97.1368 253.733 97.1368 253.298V188.388L99.9048 185.62H161.68C162.053 187.654 163.832 189.198 165.977 189.198C168.385 189.198 170.35 187.239 170.35 184.824C170.35 182.409 168.392 180.451 165.977 180.451C163.839 180.451 162.053 181.994 161.68 184.028H99.5796C99.372 184.028 99.1713 184.111 99.0191 184.257L99.0122 184.264ZM188.488 204.553C190.024 204.553 191.277 205.806 191.277 207.342C191.277 208.878 190.024 210.131 188.488 210.131C186.952 210.131 185.699 208.878 185.699 207.342C185.699 205.806 186.952 204.553 188.488 204.553ZM165.963 182.028C167.499 182.028 168.752 183.281 168.752 184.817C168.752 186.353 167.499 187.606 165.963 187.606C164.427 187.606 163.174 186.353 163.174 184.817C163.174 183.281 164.427 182.028 165.963 182.028Z" fill="white" fill-opacity="0.5"/>
<path d="M211.698 25.1863C212.812 25.1863 213.719 24.2798 213.719 23.1657C213.719 22.0515 212.812 21.145 211.698 21.145C210.584 21.145 209.678 22.0515 209.678 23.1657C209.678 24.2798 210.584 25.1863 211.698 25.1863Z" fill="#EE1D23"/>
<path d="M204.191 32.6946C205.305 32.6946 206.211 31.7881 206.211 30.674C206.211 29.5598 205.305 28.6533 204.191 28.6533C203.076 28.6533 202.17 29.5598 202.17 30.674C202.17 31.7881 203.076 32.6946 204.191 32.6946Z" fill="#EE1D23"/>
<path d="M196.681 40.2029C197.795 40.2029 198.701 39.2964 198.701 38.1823C198.701 37.0681 197.795 36.1616 196.681 36.1616C195.567 36.1616 194.66 37.0681 194.66 38.1823C194.66 39.2964 195.567 40.2029 196.681 40.2029Z" fill="#EE1D23"/>
<path d="M189.173 47.7112C190.287 47.7112 191.194 46.8047 191.194 45.6906C191.194 44.5764 190.287 43.6699 189.173 43.6699C188.059 43.6699 187.152 44.5764 187.152 45.6906C187.152 46.8047 188.059 47.7112 189.173 47.7112Z" fill="#EE1D23"/>
<path d="M173.388 304.277C175.727 304.277 177.616 302.381 177.616 300.049C177.616 297.717 175.72 295.821 173.388 295.821C171.056 295.821 169.16 297.717 169.16 300.049C169.16 302.381 171.056 304.277 173.388 304.277Z" fill="white" fill-opacity="0.5"/>
<path d="M202.813 295.814H194.35V304.277H202.813V295.814Z" fill="white" fill-opacity="0.5"/>
<path d="M163.348 300.381C163.425 300.381 163.494 300.36 163.563 300.339C163.722 305.273 167.77 309.239 172.739 309.239H200.024C205.097 309.239 209.221 305.114 209.221 300.042C209.221 294.97 205.097 290.845 200.024 290.845H187.174V261.581H221.352L232.092 272.32C232.092 272.32 232.14 272.348 232.161 272.369C232.216 272.417 232.279 272.466 232.348 272.493C232.445 272.535 232.548 272.556 232.652 272.556H250.001V270.971H232.977L222.238 260.231C222.238 260.231 222.189 260.203 222.168 260.19C222.106 260.141 222.051 260.093 221.982 260.065C221.885 260.024 221.781 260.003 221.677 260.003H186.385C185.949 260.003 185.596 260.356 185.596 260.792V290.845H172.746C168.082 290.845 164.22 294.34 163.639 298.852C163.549 298.817 163.459 298.796 163.355 298.796H142.838V273.123H153.467V284.666H165.923V270.625L180.538 256.01C180.538 256.01 180.572 255.955 180.593 255.927C180.635 255.872 180.683 255.816 180.711 255.754C180.752 255.657 180.773 255.553 180.773 255.449V233.015C180.773 232.911 180.752 232.807 180.711 232.71C180.683 232.641 180.635 232.593 180.593 232.537C180.572 232.51 180.565 232.482 180.538 232.454L173.984 225.901C174.469 225.195 174.759 224.344 174.759 223.424C174.759 221.015 172.801 219.057 170.386 219.057C167.971 219.057 166.013 221.015 166.013 223.424C166.013 225.832 167.971 227.797 170.386 227.797C171.306 227.797 172.158 227.513 172.863 227.022L179.188 233.347V255.131L165.923 268.397V260.01H153.467V271.552H142.049C141.613 271.552 141.26 271.905 141.26 272.341V343.375H142.844V300.381H163.362H163.348ZM172.739 292.43H200.024C204.225 292.43 207.636 295.848 207.636 300.042C207.636 304.235 204.218 307.654 200.024 307.654H172.739C168.538 307.654 165.127 304.235 165.127 300.042C165.127 295.848 168.545 292.43 172.739 292.43ZM167.597 223.417C167.597 221.88 168.85 220.628 170.386 220.628C171.922 220.628 173.175 221.88 173.175 223.417C173.175 224.953 171.922 226.205 170.386 226.205C168.85 226.205 167.597 224.953 167.597 223.417ZM155.044 261.587H164.338V270.3V283.095H155.044V261.587Z" fill="white" fill-opacity="0.5"/>
<path d="M219.864 220.289C222.864 220.289 225.296 217.857 225.296 214.857C225.296 211.857 222.864 209.425 219.864 209.425C216.864 209.425 214.432 211.857 214.432 214.857C214.432 217.857 216.864 220.289 219.864 220.289Z" fill="#EE1D23"/>
<path d="M210.991 240.717C212.105 240.717 213.012 239.81 213.012 238.696C213.012 237.582 212.105 236.675 210.991 236.675C209.877 236.675 208.971 237.582 208.971 238.696C208.971 239.81 209.877 240.717 210.991 240.717Z" fill="#EE1D23"/>
<path d="M202.189 215.646H209.503C209.912 221.009 214.396 225.251 219.856 225.251C225.586 225.251 230.25 220.586 230.25 214.857C230.25 209.127 225.586 204.463 219.856 204.463C214.126 204.463 209.905 208.705 209.503 214.068H129.266L125.571 217.763V248.467L110.091 263.947H54.9798L26.511 292.416C25.8051 291.932 24.954 291.641 24.0336 291.641C21.6254 291.641 19.6602 293.599 19.6602 296.014C19.6602 298.43 21.6185 300.388 24.0336 300.388C26.4487 300.388 28.407 298.43 28.407 296.014C28.407 295.094 28.1233 294.243 27.632 293.537L55.6372 265.532H110.748L126.92 249.36C126.92 249.36 126.955 249.304 126.976 249.277C127.017 249.221 127.065 249.166 127.093 249.104C127.135 249.007 127.155 248.903 127.155 248.799V218.421L129.923 215.653H188.64V240.973C188.64 241.077 188.66 241.18 188.702 241.277C188.73 241.34 188.771 241.395 188.813 241.45C188.833 241.478 188.84 241.513 188.868 241.533L195.421 248.087C194.937 248.792 194.646 249.644 194.646 250.564C194.646 252.972 196.605 254.937 199.02 254.937C201.435 254.937 203.393 252.979 203.393 250.564C203.393 248.149 201.435 246.19 199.02 246.19C198.099 246.19 197.248 246.474 196.542 246.966L190.217 240.641V215.646H200.597V229.098C200.597 229.202 200.618 229.306 200.66 229.403C200.687 229.465 200.736 229.52 200.777 229.576C200.798 229.603 200.805 229.631 200.833 229.659L207.386 236.212C206.902 236.918 206.611 237.769 206.611 238.689C206.611 241.097 208.569 243.063 210.984 243.063C213.399 243.063 215.358 241.104 215.358 238.689C215.358 236.274 213.399 234.323 210.984 234.323C210.064 234.323 209.213 234.606 208.507 235.098L202.182 228.773V215.646H202.189ZM24.0336 298.803C22.4974 298.803 21.2448 297.551 21.2448 296.014C21.2448 294.478 22.4974 293.226 24.0336 293.226C25.5698 293.226 26.8224 294.478 26.8224 296.014C26.8224 297.551 25.5698 298.803 24.0336 298.803ZM201.815 250.557C201.815 252.093 200.563 253.346 199.027 253.346C197.49 253.346 196.238 252.093 196.238 250.557C196.238 249.021 197.49 247.768 199.027 247.768C200.563 247.768 201.815 249.021 201.815 250.557ZM219.863 206.041C224.721 206.041 228.679 209.992 228.679 214.857C228.679 219.721 224.727 223.673 219.863 223.673C214.998 223.673 211.047 219.721 211.047 214.857C211.047 209.992 214.998 206.041 219.863 206.041ZM213.78 238.689C213.78 240.225 212.527 241.478 210.991 241.478C209.455 241.478 208.202 240.225 208.202 238.689C208.202 237.153 209.455 235.9 210.991 235.9C212.527 235.9 213.78 237.153 213.78 238.689Z" fill="white" fill-opacity="0.5"/>
<path d="M199.026 252.578C200.141 252.578 201.047 251.671 201.047 250.557C201.047 249.443 200.141 248.537 199.026 248.537C197.912 248.537 197.006 249.443 197.006 250.557C197.006 251.671 197.912 252.578 199.026 252.578Z" fill="#EE1D23"/>
<path d="M170.386 221.396C169.272 221.396 168.365 222.303 168.365 223.417C168.365 224.531 169.272 225.437 170.386 225.437C171.5 225.437 172.407 224.531 172.407 223.417C172.407 222.303 171.5 221.396 170.386 221.396Z" fill="#EE1D23"/>
<path d="M31.2316 66.3188C30.1175 66.3188 29.2109 67.2254 29.2109 68.3395C29.2109 69.4536 30.1175 70.3601 31.2316 70.3601C32.3457 70.3601 33.2522 69.4536 33.2522 68.3395C33.2522 67.2254 32.3457 66.3188 31.2316 66.3188Z" fill="white" fill-opacity="0.5"/>
<path d="M48.3781 52.7005C49.494 52.7005 50.3987 51.7958 50.3987 50.6798C50.3987 49.5638 49.494 48.6592 48.3781 48.6592C47.2621 48.6592 46.3574 49.5638 46.3574 50.6798C46.3574 51.7958 47.2621 52.7005 48.3781 52.7005Z" fill="#EE1D23"/>
<path d="M44.38 77.7644C45.496 77.7644 46.4007 76.8598 46.4007 75.7438C46.4007 74.6278 45.496 73.7231 44.38 73.7231C43.264 73.7231 42.3594 74.6278 42.3594 75.7438C42.3594 76.8598 43.264 77.7644 44.38 77.7644Z" fill="white" fill-opacity="0.5"/>
<path d="M-0.0193146 167.566C0.388965 167.974 1.05329 167.974 1.46849 167.566C1.87677 167.157 1.87677 166.493 1.46849 166.078C1.06021 165.669 0.395885 165.669 -0.0193146 166.078C-0.434515 166.486 -0.427595 167.15 -0.0193146 167.566Z" fill="#EE1D23"/>
<path d="M-12.7519 125.969C-12.918 126.018 -13.0425 126.163 -13.0425 126.343V139.346C-13.4854 139.422 -13.9144 139.623 -14.2397 139.948C-15.1185 140.827 -15.1185 142.259 -14.2397 143.138C-13.8106 143.567 -13.2501 143.795 -12.6481 143.795C-12.046 143.795 -11.4786 143.56 -11.0565 143.138C-10.1776 142.259 -10.1776 140.827 -11.0565 139.948C-11.3886 139.616 -11.8108 139.422 -12.2536 139.346V126.468L-8.56528 130.156C-8.57912 130.191 -8.58604 130.232 -8.58604 130.274V143.795C-9.02892 143.871 -9.45796 144.072 -9.7832 144.397C-10.662 145.276 -10.662 146.709 -9.7832 147.587C-9.35416 148.016 -8.79364 148.245 -8.1916 148.245C-7.58956 148.245 -7.02212 148.01 -6.6 147.587C-5.72116 146.709 -5.72116 145.276 -6.6 144.397C-6.93216 144.065 -7.35428 143.871 -7.79716 143.795V130.917L-3.96348 134.751C-4.06036 134.82 -4.12956 134.931 -4.12956 135.062V148.252C-4.57244 148.328 -5.00148 148.529 -5.32672 148.854C-6.20556 149.733 -6.20556 151.165 -5.32672 152.044C-4.89768 152.473 -4.33716 152.701 -3.73512 152.701C-3.13308 152.701 -2.56564 152.466 -2.14351 152.044C-1.26468 151.165 -1.26468 149.733 -2.14351 148.854C-2.47568 148.522 -2.8978 148.328 -3.34068 148.252V135.374L0.32692 139.041V164.618C-0.115961 164.694 -0.544998 164.894 -0.870237 165.22C-1.74908 166.098 -1.74908 167.531 -0.870237 168.41C-0.441198 168.839 0.119324 169.067 0.721365 169.067C1.3234 169.067 1.89085 168.832 2.31297 168.41C3.19181 167.531 3.19181 166.098 2.31297 165.22C1.98081 164.887 1.55868 164.694 1.1158 164.618V139.83L8.96308 147.677V228.807H9.05304L8.96308 228.897L16.6235 236.558C16.5889 236.793 16.5682 237.028 16.5682 237.271C16.5682 240.032 18.8033 242.267 21.5644 242.267C24.3255 242.267 26.5606 240.032 26.5606 237.271C26.5606 234.51 24.3255 232.274 21.5644 232.274C20.6786 232.274 19.8482 232.51 19.1286 232.911L13.3158 227.098V145.913L-16.3641 116.205V-2.625H-20.7168V118.011L-12.7588 125.969H-12.7519ZM-11.6101 142.577C-12.1637 143.131 -13.1256 143.131 -13.6792 142.577C-14.2466 142.01 -14.2466 141.076 -13.6792 140.508C-13.4024 140.231 -13.0356 140.079 -12.6412 140.079C-12.2467 140.079 -11.88 140.231 -11.6032 140.508C-11.0357 141.083 -11.0357 142.01 -11.6032 142.577H-11.6101ZM-7.1536 147.034C-7.7072 147.587 -8.66908 147.587 -9.22268 147.034C-9.79012 146.466 -9.79012 145.532 -9.22268 144.965C-8.94588 144.688 -8.57912 144.536 -8.18468 144.536C-7.79024 144.536 -7.42348 144.688 -7.14668 144.965C-6.57924 145.539 -6.57924 146.466 -7.14668 147.034H-7.1536ZM-2.69712 151.49C-3.25072 152.044 -4.2126 152.044 -4.7662 151.49C-5.33364 150.923 -5.33364 149.989 -4.7662 149.421C-4.4894 149.144 -4.12264 148.992 -3.7282 148.992C-3.33376 148.992 -2.967 149.144 -2.6902 149.421C-2.12276 149.996 -2.12276 150.923 -2.6902 151.49H-2.69712ZM1.75937 167.856C1.20576 168.41 0.243881 168.41 -0.309719 167.856C-0.877159 167.282 -0.877159 166.354 -0.309719 165.787C-0.0329189 165.51 0.333841 165.358 0.728281 165.358C1.12272 165.358 1.48948 165.51 1.76628 165.787C2.33372 166.354 2.33372 167.289 1.76628 167.856H1.75937Z" fill="white" fill-opacity="0.5"/>
<path d="M63.2508 49.884H52.7255C52.7255 49.884 52.6909 49.8909 52.6701 49.8978C52.3034 47.8564 50.518 46.3063 48.3728 46.3063C45.9646 46.3063 43.9994 48.2647 43.9994 50.6798C43.9994 53.0948 45.9577 55.0532 48.3728 55.0532C50.518 55.0532 52.3034 53.5031 52.6701 51.4617C52.6909 51.4617 52.7047 51.4756 52.7255 51.4756H63.2508V57.9734H40.8162C40.8162 57.9734 40.8023 57.9734 40.7954 57.9734C40.6985 57.9734 40.6086 57.9942 40.5186 58.0288C40.4286 58.0634 40.3525 58.1188 40.2833 58.188C40.2833 58.188 40.2695 58.1949 40.2626 58.2018L33.7093 64.755C33.0035 64.2706 32.1523 63.98 31.232 63.98C28.8238 63.98 26.8654 65.9384 26.8654 68.3534C26.8654 70.7685 28.8238 72.7269 31.232 72.7269C33.6401 72.7269 35.6054 70.7685 35.6054 68.3534C35.6054 67.4331 35.3217 66.5819 34.8304 65.8761L41.1483 59.5581H63.2577V65.3778H53.978C53.978 65.3778 53.9642 65.3778 53.9572 65.3778C53.8604 65.3778 53.7704 65.3986 53.6804 65.4332C53.5905 65.4678 53.5144 65.5232 53.4452 65.5924C53.4452 65.5924 53.4313 65.5993 53.4244 65.6062L46.8712 72.1594C46.1653 71.675 45.3142 71.3844 44.3938 71.3844C41.9856 71.3844 40.0204 73.3428 40.0204 75.7578C40.0204 78.1729 41.9787 80.1313 44.3938 80.1313C46.8089 80.1313 48.7672 78.1729 48.7672 75.7578C48.7672 74.8375 48.4835 73.9863 47.9922 73.2805L54.3102 66.9625H63.2646V125.872L54.0818 135.055H19.6617V139.159C19.634 139.235 19.6133 139.318 19.6133 139.401V147.11C19.6133 147.214 19.634 147.318 19.6756 147.414C19.7102 147.497 19.7586 147.567 19.814 147.629C19.8278 147.643 19.8278 147.657 19.8416 147.67L22.575 150.404V176.271C22.575 176.375 22.5958 176.478 22.6373 176.575C22.665 176.638 22.7134 176.693 22.755 176.748C22.7757 176.776 22.7826 176.804 22.8103 176.831L27.1768 181.198V188.706C25.1424 189.08 23.5992 190.858 23.5992 193.003C23.5992 195.412 25.5576 197.377 27.9726 197.377C30.3877 197.377 32.3392 195.418 32.3392 193.003C32.3392 190.865 30.796 189.08 28.7615 188.706V180.873C28.7615 180.769 28.7408 180.665 28.6992 180.568C28.6716 180.499 28.6231 180.451 28.5816 180.395C28.5608 180.367 28.5539 180.34 28.5262 180.312L24.1597 175.946V150.079C24.1597 149.975 24.139 149.871 24.0974 149.774C24.0628 149.691 24.0144 149.622 23.9521 149.56C23.9383 149.546 23.9383 149.532 23.9244 149.518L21.191 146.785V139.401H25.2392V147.11C25.2392 147.214 25.26 147.318 25.3015 147.414C25.3361 147.497 25.3846 147.567 25.4399 147.629C25.4538 147.643 25.4538 147.657 25.4676 147.67L28.201 150.404V176.271C28.201 176.375 28.2218 176.478 28.2633 176.575C28.291 176.638 28.3394 176.693 28.3809 176.748C28.4017 176.776 28.4086 176.804 28.4363 176.831L32.8028 181.198V203.335C30.7683 203.709 29.2252 205.487 29.2252 207.632C29.2252 210.04 31.1835 212.006 33.5986 212.006C36.0137 212.006 37.972 210.047 37.972 207.632C37.972 205.494 36.4289 203.709 34.3944 203.335V180.873C34.3944 180.769 34.3736 180.665 34.3321 180.568C34.3044 180.499 34.256 180.451 34.2145 180.395C34.1937 180.367 34.1868 180.34 34.1591 180.312L29.7926 175.946V150.079C29.7926 149.975 29.7718 149.871 29.7303 149.774C29.7303 149.774 29.7303 149.774 29.7303 149.767C29.7303 149.753 29.7165 149.746 29.7096 149.74C29.675 149.657 29.6265 149.58 29.5642 149.518L26.8308 146.785V139.401H30.8237V147.11C30.8237 147.214 30.8444 147.318 30.886 147.414C30.9206 147.497 30.969 147.567 31.0244 147.629C31.0382 147.643 31.0382 147.657 31.052 147.67L33.7854 150.404V176.271C33.7854 176.375 33.8062 176.478 33.8477 176.575C33.8754 176.638 33.9238 176.693 33.9654 176.748C33.9861 176.776 33.993 176.804 34.0207 176.831L38.3872 181.198V219.908C36.3528 220.282 34.8096 222.06 34.8096 224.206C34.8096 226.614 36.768 228.579 39.183 228.579C41.5981 228.579 43.5565 226.621 43.5565 224.206C43.5565 222.067 42.0133 220.282 39.9788 219.908V180.873C39.9788 180.769 39.9581 180.665 39.9166 180.568C39.8889 180.499 39.8404 180.451 39.7989 180.395C39.7782 180.367 39.7712 180.34 39.7436 180.312L35.377 175.946V150.079C35.377 149.975 35.3563 149.871 35.3148 149.774C35.2871 149.719 35.2456 149.67 35.211 149.615C35.1902 149.58 35.1764 149.546 35.1487 149.518L32.4153 146.785V139.401H36.4081V147.11C36.4081 147.214 36.4289 147.318 36.4704 147.414C36.505 147.497 36.5534 147.567 36.6088 147.629C36.6226 147.643 36.6226 147.657 36.6365 147.67L39.3699 150.404V176.271C39.3699 176.375 39.3906 176.478 39.4322 176.575C39.4598 176.645 39.5083 176.7 39.5498 176.755C39.5706 176.783 39.5775 176.811 39.5982 176.831L43.9648 181.198V238.592L26.5402 256.017C25.8344 255.533 24.9832 255.242 24.0628 255.242C21.6547 255.242 19.6894 257.2 19.6894 259.615C19.6894 262.03 21.6478 263.989 24.0628 263.989C26.4779 263.989 28.4363 262.03 28.4363 259.615C28.4363 258.695 28.1526 257.844 27.6612 257.138L45.3211 239.478L45.5494 239.25V180.547L40.9546 175.953V150.086C40.9546 149.982 40.9338 149.878 40.8923 149.781C40.8577 149.698 40.8092 149.629 40.747 149.567C40.7331 149.553 40.7331 149.539 40.7193 149.525L37.9859 146.792V139.408H41.9787V147.117C41.9787 147.221 41.9995 147.324 42.041 147.421C42.0756 147.504 42.124 147.574 42.1794 147.636C42.1932 147.65 42.1932 147.664 42.2071 147.677L44.9405 150.411V176.278C44.9405 176.382 44.9612 176.485 45.0028 176.582C45.0304 176.645 45.0789 176.7 45.1204 176.755C45.1412 176.783 45.1481 176.811 45.1758 176.838L49.5423 181.205V245.159L26.5471 268.155C25.8413 267.67 24.9901 267.38 24.0698 267.38C21.6616 267.38 19.6963 269.338 19.6963 271.753C19.6963 274.168 21.6547 276.126 24.0698 276.126C26.4848 276.126 28.4432 274.168 28.4432 271.753C28.4432 270.833 28.1595 269.981 27.6682 269.276L50.8986 246.045L51.127 245.817V180.88C51.127 180.776 51.1062 180.672 51.0647 180.575C51.037 180.506 50.9886 180.457 50.947 180.402C50.9263 180.374 50.9194 180.347 50.8917 180.319L46.5252 175.953V150.086C46.5252 149.982 46.5044 149.878 46.4629 149.781C46.4283 149.698 46.3798 149.629 46.3176 149.567C46.3037 149.553 46.3037 149.539 46.2899 149.525L43.5565 146.792V139.408H47.5493V147.117C47.5493 147.221 47.5701 147.324 47.6116 147.421C47.6462 147.504 47.6946 147.574 47.75 147.636C47.7638 147.65 47.7638 147.664 47.7777 147.677L50.5111 150.411V176.278C50.5111 176.382 50.5318 176.485 50.5734 176.582C50.601 176.645 50.6495 176.7 50.691 176.755C50.7118 176.783 50.7187 176.811 50.7464 176.838L55.1129 181.205V251.727L26.5471 280.292C25.8413 279.808 24.9901 279.517 24.0698 279.517C21.6616 279.517 19.6963 281.476 19.6963 283.891C19.6963 286.306 21.6547 288.264 24.0698 288.264C26.4848 288.264 28.4432 286.306 28.4432 283.891C28.4432 282.97 28.1595 282.119 27.6682 281.413L56.4692 252.612L56.6976 252.384V180.88C56.6976 180.776 56.6768 180.672 56.6353 180.575C56.6076 180.506 56.5592 180.457 56.5176 180.402C56.4969 180.374 56.49 180.347 56.4623 180.319L52.0958 175.953V150.086C52.0958 149.982 52.075 149.878 52.0335 149.781C51.9989 149.698 51.9504 149.629 51.8882 149.567C51.8743 149.553 51.8743 149.539 51.8605 149.525L49.1271 146.792V139.408H55.9018L67.6312 127.679L67.5412 127.589H67.6312V46.4586L116.673 -2.625H110.535L63.2577 44.6732V49.884H63.2508ZM48.3728 53.4616C46.8366 53.4616 45.584 52.2091 45.584 50.6728C45.584 49.1366 46.8366 47.8841 48.3728 47.8841C49.909 47.8841 51.1616 49.1366 51.1616 50.6728C51.1616 52.2091 49.909 53.4616 48.3728 53.4616ZM31.225 71.1284C29.6888 71.1284 28.4363 69.8758 28.4363 68.3396C28.4363 66.8034 29.6888 65.5508 31.225 65.5508C32.7613 65.5508 34.0138 66.8034 34.0138 68.3396C34.0138 69.8758 32.7613 71.1284 31.225 71.1284ZM44.38 78.5328C42.8437 78.5328 41.5912 77.2802 41.5912 75.744C41.5912 74.2078 42.8437 72.9552 44.38 72.9552C45.9162 72.9552 47.1687 74.2078 47.1687 75.744C47.1687 77.2802 45.9162 78.5328 44.38 78.5328ZM36.3735 207.625C36.3735 209.162 35.121 210.414 33.5848 210.414C32.0485 210.414 30.796 209.162 30.796 207.625C30.796 206.089 32.0485 204.837 33.5848 204.837C35.121 204.837 36.3735 206.089 36.3735 207.625ZM41.9441 224.199C41.9441 225.735 40.6916 226.988 39.1554 226.988C37.6191 226.988 36.3666 225.735 36.3666 224.199C36.3666 222.663 37.6191 221.41 39.1554 221.41C40.6916 221.41 41.9441 222.663 41.9441 224.199ZM24.0352 262.397C22.4989 262.397 21.2464 261.145 21.2464 259.608C21.2464 258.072 22.4989 256.82 24.0352 256.82C25.5714 256.82 26.8239 258.072 26.8239 259.608C26.8239 261.145 25.5714 262.397 24.0352 262.397ZM24.0352 274.535C22.4989 274.535 21.2464 273.282 21.2464 271.746C21.2464 270.21 22.4989 268.957 24.0352 268.957C25.5714 268.957 26.8239 270.21 26.8239 271.746C26.8239 273.282 25.5714 274.535 24.0352 274.535ZM24.0352 286.673C22.4989 286.673 21.2464 285.42 21.2464 283.884C21.2464 282.348 22.4989 281.095 24.0352 281.095C25.5714 281.095 26.8239 282.348 26.8239 283.884C26.8239 285.42 25.5714 286.673 24.0352 286.673ZM30.7406 192.996C30.7406 194.533 29.4881 195.785 27.9519 195.785C26.4156 195.785 25.1631 194.533 25.1631 192.996C25.1631 191.46 26.4156 190.208 27.9519 190.208C29.4881 190.208 30.7406 191.46 30.7406 192.996Z" fill="white" fill-opacity="0.5"/>
<path d="M170.967 58.3262H163.162C160.116 58.3262 157.646 60.7954 157.646 63.8414V71.6472C157.646 74.6932 160.116 77.1624 163.162 77.1624H170.967C174.013 77.1624 176.483 74.6932 176.483 71.6472V63.8414C176.483 60.7954 174.013 58.3262 170.967 58.3262Z" fill="#EE1D23"/>
<path d="M152.601 96.3865C153.715 96.3865 154.621 95.48 154.621 94.3659C154.621 93.2517 153.715 92.3452 152.601 92.3452C151.487 92.3452 150.58 93.2517 150.58 94.3659C150.58 95.48 151.487 96.3865 152.601 96.3865Z" fill="#EE1D23"/>
<path d="M142.235 72.0416C142.235 70.9275 141.328 70.021 140.214 70.021C139.1 70.021 138.193 70.9275 138.193 72.0416C138.193 73.1558 139.1 74.0623 140.214 74.0623C141.328 74.0623 142.235 73.1558 142.235 72.0416Z" fill="#EE1D23"/>
<path d="M69.8306 18.2939H8.29102V19.0828H69.8306C70.0312 21.0896 71.7267 22.6605 73.7819 22.6605C75.9755 22.6605 77.754 20.8751 77.754 18.6884C77.754 16.5017 75.9686 14.7163 73.7819 14.7163C71.7267 14.7163 70.0243 16.2871 69.8306 18.2939ZM76.972 18.6884C76.972 20.4461 75.5465 21.8716 73.7888 21.8716C72.0311 21.8716 70.6056 20.4461 70.6056 18.6884C70.6056 16.9307 72.0311 15.5052 73.7888 15.5052C75.5465 15.5052 76.972 16.9307 76.972 18.6884Z" fill="white" fill-opacity="0.5"/>
<path d="M71.7617 18.6954C71.7617 19.8096 72.6682 20.7161 73.7824 20.7161C74.8965 20.7161 75.803 19.8096 75.803 18.6954C75.803 17.5813 74.8965 16.6748 73.7824 16.6748C72.6682 16.6748 71.7617 17.5813 71.7617 18.6954Z" fill="#EE1D23"/>
<path d="M62.7099 34.7913C64.9035 34.7913 66.682 33.006 66.682 30.8192C66.682 28.6325 64.8966 26.8472 62.7099 26.8472C60.6547 26.8472 58.9523 28.418 58.7586 30.4248H8.29102V31.2137H58.7586C58.9593 33.2205 60.6547 34.7913 62.7099 34.7913ZM62.7099 27.6291C64.4676 27.6291 65.8931 29.0546 65.8931 30.8123C65.8931 32.57 64.4676 33.9955 62.7099 33.9955C60.9522 33.9955 59.5267 32.57 59.5267 30.8123C59.5267 29.0546 60.9522 27.6291 62.7099 27.6291Z" fill="white" fill-opacity="0.5"/>
<path d="M62.7101 32.8401C63.8242 32.8401 64.7307 31.9336 64.7307 30.8195C64.7307 29.7053 63.8242 28.7988 62.7101 28.7988C61.596 28.7988 60.6895 29.7053 60.6895 30.8195C60.6895 31.9336 61.596 32.8401 62.7101 32.8401Z" fill="#EE1D23"/>
<path d="M198.917 83.0654C197.803 83.0654 196.896 83.9719 196.896 85.0861C196.896 86.2002 197.803 87.1067 198.917 87.1067C200.031 87.1067 200.938 86.2002 200.938 85.0861C200.938 83.9719 200.031 83.0654 198.917 83.0654Z" fill="#EE1D23"/>
<path d="M198.917 99.4934C200.033 99.4934 200.938 98.5888 200.938 97.4728C200.938 96.3568 200.033 95.4521 198.917 95.4521C197.801 95.4521 196.896 96.3568 196.896 97.4728C196.896 98.5888 197.801 99.4934 198.917 99.4934Z" fill="#EE1D23"/>
<path d="M186.669 132.675C185.555 132.675 184.648 133.581 184.648 134.695C184.648 135.81 185.555 136.716 186.669 136.716C187.783 136.716 188.69 135.81 188.69 134.695C188.69 133.581 187.783 132.675 186.669 132.675Z" fill="#EE1D23"/>
<path d="M208.107 105.486C206.992 105.486 206.086 106.393 206.086 107.507C206.086 108.621 206.992 109.528 208.107 109.528C209.221 109.528 210.127 108.621 210.127 107.507C210.127 106.393 209.221 105.486 208.107 105.486Z" fill="#EE1D23"/>
<path d="M192.017 115.527C190.903 115.527 189.996 116.433 189.996 117.547C189.996 118.662 190.903 119.568 192.017 119.568C193.131 119.568 194.037 118.662 194.037 117.547C194.037 116.433 193.131 115.527 192.017 115.527Z" fill="#EE1D23"/>
<path d="M201.021 139.643C202.137 139.643 203.041 138.739 203.041 137.623C203.041 136.507 202.137 135.602 201.021 135.602C199.905 135.602 199 136.507 199 137.623C199 138.739 199.905 139.643 201.021 139.643Z" fill="#EE1D23"/>
<path d="M213.767 145.636C212.653 145.636 211.746 146.543 211.746 147.657C211.746 148.771 212.653 149.678 213.767 149.678C214.881 149.678 215.787 148.771 215.787 147.657C215.787 146.543 214.881 145.636 213.767 145.636Z" fill="#EE1D23"/>
<path d="M235.393 257.2C235.393 258.314 236.299 259.221 237.413 259.221C238.527 259.221 239.434 258.314 239.434 257.2C239.434 256.086 238.527 255.18 237.413 255.18C236.299 255.18 235.393 256.086 235.393 257.2Z" fill="#EE1D23"/>
<path d="M240.554 249.692C240.554 252.1 242.512 254.066 244.927 254.066C247.342 254.066 249.301 252.107 249.301 249.692C249.301 247.554 247.758 245.768 245.723 245.395V71.0454C245.723 70.8378 245.64 70.6371 245.495 70.4848L242.263 67.2532C242.111 67.101 241.903 67.0248 241.703 67.0248H180.855V59.2537C180.855 56.3404 178.482 53.9668 175.568 53.9668H158.587C155.673 53.9668 153.3 56.3404 153.3 59.2537V76.2354C153.3 79.1487 155.673 81.5222 158.587 81.5222H165.223V110.053H145.895V101.639L150.096 97.4382C150.781 97.9988 151.66 98.3378 152.608 98.3378C154.801 98.3378 156.58 96.5525 156.58 94.3658C156.58 92.179 154.794 90.3937 152.608 90.3937C150.421 90.3937 148.636 92.179 148.636 94.3658C148.636 95.3207 148.975 96.1926 149.535 96.8777L145.099 101.313V110.053H140.615V75.9932C142.622 75.7925 144.193 74.0971 144.193 72.0349C144.193 69.8413 142.408 68.0628 140.221 68.0628C138.034 68.0628 136.249 69.8482 136.249 72.0349C136.249 74.0902 137.82 75.7925 139.826 75.9932V110.053H117.053L106.652 120.447V126.599V150.785C105.046 151.615 103.953 153.29 103.953 155.22C103.953 157.981 106.188 160.216 108.949 160.216C111.71 160.216 113.946 157.981 113.946 155.22C113.946 153.193 112.735 151.449 111.005 150.667V122.246L118.859 114.399H165.223V161.877L172.385 169.046H206.487C207.269 170.783 209.013 171.994 211.04 171.994C213.801 171.994 216.036 169.759 216.036 166.998C216.036 164.237 213.801 162.002 211.04 162.002C209.109 162.002 207.442 163.095 206.604 164.701H174.184L169.569 160.085V81.5292H175.561C178.475 81.5292 180.848 79.1556 180.848 76.2423V76.1177H233.862L236.63 78.8857V91.8123H206.196L201.996 87.6118C202.556 86.9268 202.895 86.0479 202.895 85.093C202.895 82.8993 201.11 81.1209 198.923 81.1209C196.736 81.1209 194.951 82.9062 194.951 85.093C194.951 87.2797 196.736 89.065 198.923 89.065C199.878 89.065 200.75 88.726 201.435 88.1654L205.871 92.6012H236.63V97.0853H202.875C202.674 95.0785 200.978 93.5077 198.916 93.5077C196.723 93.5077 194.944 95.293 194.944 97.4798C194.944 99.6665 196.73 101.452 198.916 101.452C200.972 101.452 202.674 99.881 202.875 97.8742H236.63V107.119H212.064C211.864 105.113 210.168 103.542 208.113 103.542C205.919 103.542 204.141 105.327 204.141 107.514C204.141 109.7 205.926 111.486 208.113 111.486C210.168 111.486 211.871 109.915 212.064 107.908H236.63V117.153H195.975C195.775 115.147 194.079 113.576 192.017 113.576C189.823 113.576 188.045 115.361 188.045 117.548C188.045 119.734 189.83 121.52 192.017 121.52C194.072 121.52 195.775 119.949 195.975 117.942H236.63V127.187H193.622L189.187 131.623C188.502 131.063 187.623 130.723 186.675 130.723C184.481 130.723 182.703 132.509 182.703 134.696C182.703 136.882 184.488 138.668 186.675 138.668C188.862 138.668 190.647 136.882 190.647 134.696C190.647 133.741 190.308 132.869 189.747 132.184L193.948 127.983H236.63V137.228H204.978C204.778 135.221 203.082 133.651 201.027 133.651C198.833 133.651 197.055 135.436 197.055 137.623C197.055 139.809 198.84 141.595 201.027 141.595C203.082 141.595 204.784 140.024 204.978 138.017H236.63V147.262H217.725C217.524 145.255 215.829 143.685 213.767 143.685C211.573 143.685 209.795 145.47 209.795 147.657C209.795 149.843 211.58 151.629 213.767 151.629C215.822 151.629 217.524 150.058 217.725 148.051H236.63V252.903C234.596 253.277 233.053 255.055 233.053 257.2C233.053 259.608 235.011 261.567 237.426 261.567C239.841 261.567 241.8 259.608 241.8 257.2C241.8 255.062 240.256 253.277 238.222 252.903V78.5536C238.222 78.346 238.139 78.1453 237.994 77.993L234.762 74.7614C234.61 74.6092 234.402 74.533 234.201 74.533H180.862V68.6095H241.384L244.152 71.3775V245.402C242.118 245.775 240.575 247.554 240.575 249.699L240.554 249.692ZM152.601 91.1756C154.358 91.1756 155.784 92.6012 155.784 94.3588C155.784 96.1165 154.358 97.542 152.601 97.542C150.843 97.542 149.418 96.1165 149.418 94.3588C149.418 92.6012 150.843 91.1756 152.601 91.1756ZM137.031 72.0349C137.031 70.2772 138.456 68.8517 140.214 68.8517C141.972 68.8517 143.397 70.2772 143.397 72.0349C143.397 73.7926 141.972 75.2181 140.214 75.2181C138.456 75.2181 137.031 73.7926 137.031 72.0349ZM179.263 76.2284C179.263 78.2698 177.603 79.9376 175.554 79.9376H158.573C156.531 79.9376 154.864 78.2768 154.864 76.2284V59.2468C154.864 57.2054 156.524 55.5376 158.573 55.5376H175.554C177.596 55.5376 179.263 57.1984 179.263 59.2468V76.2284ZM198.916 88.2692C197.159 88.2692 195.733 86.8437 195.733 85.086C195.733 83.3284 197.159 81.9028 198.916 81.9028C200.674 81.9028 202.099 83.3284 202.099 85.086C202.099 86.8437 200.674 88.2692 198.916 88.2692ZM198.916 100.656C197.159 100.656 195.733 99.2305 195.733 97.4728C195.733 95.7152 197.159 94.2896 198.916 94.2896C200.674 94.2896 202.099 95.7152 202.099 97.4728C202.099 99.2305 200.674 100.656 198.916 100.656ZM208.106 110.69C206.348 110.69 204.923 109.265 204.923 107.507C204.923 105.749 206.348 104.324 208.106 104.324C209.864 104.324 211.289 105.749 211.289 107.507C211.289 109.265 209.864 110.69 208.106 110.69ZM192.017 120.724C190.259 120.724 188.834 119.299 188.834 117.541C188.834 115.783 190.259 114.358 192.017 114.358C193.775 114.358 195.2 115.783 195.2 117.541C195.2 119.299 193.775 120.724 192.017 120.724ZM186.668 137.872C184.91 137.872 183.485 136.446 183.485 134.689C183.485 132.931 184.91 131.505 186.668 131.505C188.426 131.505 189.851 132.931 189.851 134.689C189.851 136.446 188.426 137.872 186.668 137.872ZM201.02 140.799C199.262 140.799 197.837 139.373 197.837 137.616C197.837 135.858 199.262 134.433 201.02 134.433C202.778 134.433 204.203 135.858 204.203 137.616C204.203 139.373 202.778 140.799 201.02 140.799ZM213.767 150.833C212.009 150.833 210.583 149.407 210.583 147.65C210.583 145.892 212.009 144.467 213.767 144.467C215.524 144.467 216.95 145.892 216.95 147.65C216.95 149.407 215.524 150.833 213.767 150.833ZM240.208 257.186C240.208 258.723 238.955 259.975 237.419 259.975C235.883 259.975 234.63 258.723 234.63 257.186C234.63 255.65 235.883 254.398 237.419 254.398C238.955 254.398 240.208 255.65 240.208 257.186ZM247.716 249.678C247.716 251.214 246.464 252.467 244.927 252.467C243.391 252.467 242.139 251.214 242.139 249.678C242.139 248.142 243.391 246.889 244.927 246.889C246.464 246.889 247.716 248.142 247.716 249.678Z" fill="white" fill-opacity="0.5"/>
<path d="M242.9 249.692C242.9 250.806 243.807 251.713 244.921 251.713C246.035 251.713 246.942 250.806 246.942 249.692C246.942 248.578 246.035 247.671 244.921 247.671C243.807 247.671 242.9 248.578 242.9 249.692Z" fill="#EE1D23"/>
<path d="M250.001 59.5166H180.98V61.1013H250.001V59.5166Z" fill="white" fill-opacity="0.5"/>
<path d="M44.0402 313.474C45.1561 313.474 46.0608 312.569 46.0608 311.453C46.0608 310.337 45.1561 309.433 44.0402 309.433C42.9242 309.433 42.0195 310.337 42.0195 311.453C42.0195 312.569 42.9242 313.474 44.0402 313.474Z" fill="#EE1D23"/>
<path d="M-12.6284 312.242H39.7421C40.1158 314.276 41.8942 315.82 44.0394 315.82C46.4476 315.82 48.4129 313.861 48.4129 311.446C48.4129 309.031 46.4545 307.073 44.0394 307.073C41.9011 307.073 40.1158 308.616 39.7421 310.65H-12.9537C-13.1613 310.65 -13.362 310.733 -13.5142 310.879L-16.7458 314.11C-16.8981 314.263 -16.9811 314.47 -16.9742 314.671V343.354H-15.3895V314.996L-12.6215 312.228L-12.6284 312.242ZM44.0325 308.664C45.5688 308.664 46.8213 309.917 46.8213 311.453C46.8213 312.989 45.5688 314.242 44.0325 314.242C42.4963 314.242 41.2438 312.989 41.2438 311.453C41.2438 309.917 42.4963 308.664 44.0325 308.664Z" fill="white" fill-opacity="0.5"/>
<path d="M3.12891 116.42C3.12891 118.828 5.08727 120.793 7.50235 120.793C9.91743 120.793 11.8689 118.835 11.8689 116.42C11.8689 114.281 10.3257 112.496 8.29123 112.122V79.8545H13.156C13.9864 79.8545 14.6576 79.1832 14.6576 78.3528C14.6576 77.5224 13.9864 76.8512 13.156 76.8512H8.29123V68.0559H13.156C13.9864 68.0559 14.6576 67.3846 14.6576 66.5542C14.6576 65.7238 13.9864 65.0526 13.156 65.0526H8.29123V56.2573H13.156C13.9864 56.2573 14.6576 55.586 14.6576 54.7556C14.6576 53.9252 13.9864 53.254 13.156 53.254H8.29123V44.4587H13.156C13.848 44.4587 14.4223 43.9881 14.6023 43.3515H27.6465C27.8471 45.3583 29.5425 46.9291 31.6047 46.9291C33.7983 46.9291 35.5768 45.1438 35.5768 42.957C35.5768 40.7703 33.7914 38.985 31.6047 38.985C29.5495 38.985 27.8471 40.5558 27.6465 42.5626H14.6023C14.4293 41.926 13.848 41.4554 13.1629 41.4554H8.29815V-2.625H6.71346V112.129C4.67898 112.503 3.13582 114.288 3.13582 116.427L3.12891 116.42ZM31.5978 39.7808C33.3555 39.7808 34.781 41.2063 34.781 42.964C34.781 44.7216 33.3555 46.1472 31.5978 46.1472C29.8401 46.1472 28.4146 44.7216 28.4146 42.964C28.4146 41.2063 29.8401 39.7808 31.5978 39.7808ZM10.2911 116.42C10.2911 117.956 9.03859 119.209 7.50235 119.209C5.96611 119.209 4.71358 117.956 4.71358 116.42C4.71358 114.884 5.96611 113.631 7.50235 113.631C9.03859 113.631 10.2911 114.884 10.2911 116.42Z" fill="white" fill-opacity="0.5"/>
<path d="M7.49525 118.44C8.61122 118.44 9.51589 117.536 9.51589 116.42C9.51589 115.304 8.61122 114.399 7.49525 114.399C6.37928 114.399 5.47461 115.304 5.47461 116.42C5.47461 117.536 6.37928 118.44 7.49525 118.44Z" fill="#EE1D23"/>
<path d="M-0.0132737 113.285C2.39489 113.285 4.36016 111.327 4.36016 108.912C4.36016 106.773 2.817 104.995 0.782522 104.614C1.01088 68.222 1.01088 33.1307 0.782522 -2.63184H-0.802153C-0.573793 33.1307 -0.566873 68.222 -0.802153 104.614C-2.83663 104.988 -4.38672 106.766 -4.38672 108.912C-4.38672 111.32 -2.42835 113.285 -0.0132737 113.285ZM-0.0132737 106.123C1.52297 106.123 2.77549 107.375 2.77549 108.912C2.77549 110.448 1.52297 111.7 -0.0132737 111.7C-1.54951 111.7 -2.80204 110.448 -2.80204 108.912C-2.80204 107.375 -1.54951 106.123 -0.0132737 106.123Z" fill="white" fill-opacity="0.5"/>
<path d="M-0.0125539 110.939C1.10157 110.939 2.00808 110.033 2.00808 108.919C2.00808 107.804 1.10157 106.898 -0.0125539 106.898C-1.12667 106.898 -2.0332 107.804 -2.0332 108.919C-2.0332 110.033 -1.12667 110.939 -0.0125539 110.939Z" fill="#EE1D23"/>
<path d="M4.70619 293.198C5.82215 293.198 6.72682 292.293 6.72682 291.177C6.72682 290.061 5.82215 289.157 4.70619 289.157C3.59022 289.157 2.68555 290.061 2.68555 291.177C2.68555 292.293 3.59022 293.198 4.70619 293.198Z" fill="#EE1D23"/>
<path d="M-27.8871 301.329C-27.8871 301.329 -27.8387 301.357 -27.8179 301.378C-27.7626 301.426 -27.7003 301.475 -27.6311 301.502C-27.5342 301.544 -27.4304 301.565 -27.3266 301.565H-4.88506C-4.78126 301.565 -4.67746 301.544 -4.58057 301.502C-4.51138 301.475 -4.4491 301.426 -4.38682 301.378C-4.36606 301.364 -4.33837 301.35 -4.31761 301.336L2.23563 294.783C2.94147 295.267 3.79262 295.558 4.71297 295.558C7.12114 295.558 9.08642 293.6 9.08642 291.185C9.08642 288.77 7.12806 286.818 4.71297 286.818C2.2979 286.818 0.339546 288.776 0.339546 291.185C0.339546 292.105 0.62326 292.956 1.11458 293.662L-5.2103 299.987H-26.9945L-37.7343 289.247C-37.8035 289.178 -37.8935 289.116 -37.9903 289.081C-38.0872 289.039 -38.191 289.019 -38.2879 289.019H-38.3017C-52.5085 289.282 -72.0783 289.282 -86.2366 289.032V276.701H-36.5925C-36.3918 278.708 -34.6964 280.279 -32.6343 280.279C-30.4406 280.279 -28.6622 278.493 -28.6622 276.307C-28.6622 274.12 -30.4475 272.335 -32.6343 272.335C-34.6895 272.335 -36.3918 273.905 -36.5925 275.912H-86.2573V264.577H-36.6063C-36.4057 266.584 -34.7103 268.155 -32.6481 268.155C-30.4545 268.155 -28.676 266.369 -28.676 264.183C-28.676 261.996 -30.4614 260.211 -32.6481 260.211C-34.7033 260.211 -36.4057 261.781 -36.6063 263.788H-86.2643V252.453H-36.6063C-36.4057 254.46 -34.7103 256.031 -32.6481 256.031C-30.4545 256.031 -28.676 254.246 -28.676 252.059C-28.676 249.872 -30.4614 248.087 -32.6481 248.087C-34.7033 248.087 -36.4057 249.658 -36.6063 251.664H-86.2712V240.33H-36.6063C-36.4057 242.336 -34.7103 243.907 -32.6481 243.907C-30.4545 243.907 -28.676 242.122 -28.676 239.935C-28.676 237.748 -30.4614 235.963 -32.6481 235.963C-34.7033 235.963 -36.4057 237.534 -36.6063 239.541H-86.2781V228.206H-36.6063C-36.4057 230.212 -34.7103 231.783 -32.6481 231.783C-30.4545 231.783 -28.676 229.998 -28.676 227.811C-28.676 225.625 -30.4614 223.839 -32.6481 223.839C-34.7033 223.839 -36.4057 225.41 -36.6063 227.417H-86.285L-86.3335 150.134C-63.4629 150.1 -15.5419 150.134 -11.1061 150.134L-8.33813 152.902V266.916C-10.3726 267.29 -11.9158 269.068 -11.9158 271.213C-11.9158 273.622 -9.95742 275.587 -7.54234 275.587C-5.12726 275.587 -3.1689 273.629 -3.1689 271.213C-3.1689 269.075 -4.71206 267.29 -6.74654 266.916V152.577C-6.74654 152.369 -6.82958 152.169 -6.9749 152.016L-10.2065 148.785C-10.3519 148.64 -10.5525 148.556 -10.7671 148.55C-11.293 148.55 -63.6013 148.515 -87.1154 148.55C-87.5514 148.55 -87.9043 148.902 -87.9043 149.338L-87.8213 289.821C-87.8213 290.25 -87.4753 290.603 -87.0462 290.61C-79.9325 290.742 -71.3586 290.811 -62.757 290.811C-54.1555 290.811 -45.7892 290.749 -38.6131 290.617L-27.8733 301.357L-27.8871 301.329ZM-32.655 273.11C-30.8973 273.11 -29.4718 274.535 -29.4718 276.293C-29.4718 278.05 -30.8973 279.476 -32.655 279.476C-34.4127 279.476 -35.8382 278.05 -35.8382 276.293C-35.8382 274.535 -34.4127 273.11 -32.655 273.11ZM-32.655 260.986C-30.8973 260.986 -29.4718 262.411 -29.4718 264.169C-29.4718 265.927 -30.8973 267.352 -32.655 267.352C-34.4127 267.352 -35.8382 265.927 -35.8382 264.169C-35.8382 262.411 -34.4127 260.986 -32.655 260.986ZM-32.655 248.862C-30.8973 248.862 -29.4718 250.287 -29.4718 252.045C-29.4718 253.803 -30.8973 255.228 -32.655 255.228C-34.4127 255.228 -35.8382 253.803 -35.8382 252.045C-35.8382 250.287 -34.4127 248.862 -32.655 248.862ZM-32.655 236.738C-30.8973 236.738 -29.4718 238.164 -29.4718 239.921C-29.4718 241.679 -30.8973 243.104 -32.655 243.104C-34.4127 243.104 -35.8382 241.679 -35.8382 239.921C-35.8382 238.164 -34.4127 236.738 -32.655 236.738ZM-32.655 224.607C-30.8973 224.607 -29.4718 226.033 -29.4718 227.79C-29.4718 229.548 -30.8973 230.974 -32.655 230.974C-34.4127 230.974 -35.8382 229.548 -35.8382 227.79C-35.8382 226.033 -34.4127 224.607 -32.655 224.607ZM-4.76049 271.193C-4.76049 272.729 -6.01302 273.981 -7.54926 273.981C-9.08549 273.981 -10.338 272.729 -10.338 271.193C-10.338 269.656 -9.08549 268.404 -7.54926 268.404C-6.01302 268.404 -4.76049 269.656 -4.76049 271.193ZM4.69914 288.403C6.23538 288.403 7.4879 289.655 7.4879 291.191C7.4879 292.728 6.23538 293.98 4.69914 293.98C3.1629 293.98 1.91039 292.728 1.91039 291.191C1.91039 289.655 3.1629 288.403 4.69914 288.403Z" fill="white" fill-opacity="0.5"/>
<path d="M18.2553 111.659C17.0858 111.659 16.1309 112.614 16.1309 113.783C16.1309 114.953 17.0789 115.908 18.2553 115.908H23.0647V117.444C23.0647 119.72 24.9123 121.568 27.189 121.568H28.7045V126.378C28.7045 127.547 29.6525 128.502 30.8289 128.502C32.0053 128.502 32.9534 127.547 32.9534 126.378V121.568H34.2197V126.378C34.2197 127.547 35.1678 128.502 36.3442 128.502C37.5206 128.502 38.4686 127.547 38.4686 126.378V121.568H39.735V126.378C39.735 127.547 40.683 128.502 41.8594 128.502C43.0358 128.502 43.9839 127.547 43.9839 126.378V121.568H45.4993C47.776 121.568 49.6237 119.72 49.6237 117.444V115.908H54.4331C55.6025 115.908 56.5575 114.953 56.5575 113.783C56.5575 112.614 55.6095 111.659 54.4331 111.659H49.6237V110.392H54.4331C55.6025 110.392 56.5575 109.437 56.5575 108.268C56.5575 107.098 55.6095 106.143 54.4331 106.143H49.6237V104.877H54.4331C55.6025 104.877 56.5575 103.922 56.5575 102.753C56.5575 101.583 55.6095 100.628 54.4331 100.628H49.6237V99.3618H54.4331C55.6025 99.3618 56.5575 98.4069 56.5575 97.2374C56.5575 96.0679 55.6095 95.113 54.4331 95.113H49.6237V93.5767C49.6237 91.3 47.776 89.4524 45.4993 89.4524H43.9839V84.643C43.9839 83.4735 43.0358 82.5186 41.8594 82.5186C40.683 82.5186 39.735 83.4735 39.735 84.643V89.4524H38.4686V84.643C38.4686 83.4735 37.5206 82.5186 36.3442 82.5186C35.1678 82.5186 34.2197 83.4735 34.2197 84.643V89.4524H32.9534V84.643C32.9534 83.4735 32.0053 82.5186 30.8289 82.5186C29.6525 82.5186 28.7045 83.4735 28.7045 84.643V89.4524H27.189C24.9123 89.4524 23.0647 91.3 23.0647 93.5767V95.113H18.2553C17.0858 95.113 16.1309 96.0679 16.1309 97.2374C16.1309 98.4069 17.0789 99.3618 18.2553 99.3618H23.0647V100.628H18.2553C17.0858 100.628 16.1309 101.583 16.1309 102.753C16.1309 103.922 17.0789 104.877 18.2553 104.877H23.0647V106.143H18.2553C17.0858 106.143 16.1309 107.098 16.1309 108.268C16.1309 109.437 17.0789 110.392 18.2553 110.392H23.0647V111.659H18.2553ZM18.2553 114.323C17.9577 114.323 17.7155 114.081 17.7155 113.783C17.7155 113.486 17.9577 113.243 18.2553 113.243H23.0647V114.323H18.2553ZM31.3618 126.371C31.3618 126.668 31.1196 126.91 30.822 126.91C30.5245 126.91 30.2823 126.668 30.2823 126.371V121.561H31.3618V126.371ZM36.8701 126.371C36.8701 126.668 36.6279 126.91 36.3303 126.91C36.0328 126.91 35.7906 126.668 35.7906 126.371V121.561H36.8701V126.371ZM42.3784 126.371C42.3784 126.668 42.1362 126.91 41.8387 126.91C41.5411 126.91 41.2989 126.668 41.2989 126.371V121.561H42.3784V126.371ZM54.4054 113.243C54.7029 113.243 54.9451 113.486 54.9451 113.783C54.9451 114.081 54.7029 114.323 54.4054 114.323H49.596V113.243H54.4054ZM54.4054 107.735C54.7029 107.735 54.9451 107.977 54.9451 108.275C54.9451 108.572 54.7029 108.815 54.4054 108.815H49.596V107.735H54.4054ZM54.4054 102.227C54.7029 102.227 54.9451 102.469 54.9451 102.766C54.9451 103.064 54.7029 103.306 54.4054 103.306H49.596V102.227H54.4054ZM54.4054 96.7184C54.7029 96.7184 54.9451 96.9606 54.9451 97.2582C54.9451 97.5557 54.7029 97.7979 54.4054 97.7979H49.596V96.7184H54.4054ZM41.2989 84.6707C41.2989 84.3731 41.5411 84.1309 41.8387 84.1309C42.1362 84.1309 42.3784 84.3731 42.3784 84.6707V89.4801H41.2989V84.6707ZM35.7906 84.6707C35.7906 84.3731 36.0328 84.1309 36.3303 84.1309C36.6279 84.1309 36.8701 84.3731 36.8701 84.6707V89.4801H35.7906V84.6707ZM30.2823 84.6707C30.2823 84.3731 30.5245 84.1309 30.822 84.1309C31.1196 84.1309 31.3618 84.3731 31.3618 84.6707V89.4801H30.2823V84.6707ZM18.2553 97.7979C17.9577 97.7979 17.7155 97.5557 17.7155 97.2582C17.7155 96.9606 17.9577 96.7184 18.2553 96.7184H23.0647V97.7979H18.2553ZM18.2553 103.306C17.9577 103.306 17.7155 103.064 17.7155 102.766C17.7155 102.469 17.9577 102.227 18.2553 102.227H23.0647V103.306H18.2553ZM18.2553 108.815C17.9577 108.815 17.7155 108.572 17.7155 108.275C17.7155 107.977 17.9577 107.735 18.2553 107.735H23.0647V108.815H18.2553ZM24.6425 110.399V93.5975C24.6425 92.1927 25.7843 91.0578 27.1821 91.0578H45.4786C46.8833 91.0578 48.0182 92.1996 48.0182 93.5975V117.451C48.0182 118.855 46.8764 119.99 45.4786 119.99H27.1821C25.7773 119.99 24.6425 118.849 24.6425 117.451V110.406V110.399Z" fill="white" fill-opacity="0.5"/>
<path d="M76.4318 107.466C75.7121 107.466 75.1309 108.047 75.1309 108.766C75.1309 109.486 75.7121 110.067 76.4318 110.067H78.1272C78.3556 111.721 79.6635 113.029 81.3173 113.258V114.953C81.3173 115.673 81.8986 116.254 82.6183 116.254C83.338 116.254 83.9193 115.673 83.9193 114.953V113.299H85.068V114.953C85.068 115.673 85.6493 116.254 86.3689 116.254C87.0886 116.254 87.6699 115.673 87.6699 114.953V113.258C89.3238 113.029 90.6317 111.721 90.86 110.067H92.5554C93.2751 110.067 93.8564 109.486 93.8564 108.766C93.8564 108.047 93.2751 107.466 92.5554 107.466H90.9015V106.317H92.5554C93.2751 106.317 93.8564 105.736 93.8564 105.016C93.8564 104.296 93.2751 103.715 92.5554 103.715H90.86C90.6317 102.061 89.3238 100.76 87.6699 100.525V98.8224C87.6699 98.1028 87.0886 97.5215 86.3689 97.5215C85.6493 97.5215 85.068 98.1028 85.068 98.8224V100.483H83.9193V98.8224C83.9193 98.1028 83.338 97.5215 82.6183 97.5215C81.8986 97.5215 81.3173 98.1028 81.3173 98.8224V100.525C79.6635 100.753 78.3625 102.061 78.1272 103.715H76.4318C75.7121 103.715 75.1309 104.296 75.1309 105.016C75.1309 105.736 75.7121 106.317 76.4318 106.317H78.0857V107.466H76.4318ZM91.296 108.254H92.5554C92.8391 108.254 93.0675 108.483 93.0675 108.766C93.0675 109.05 92.8391 109.279 92.5554 109.279H91.296V108.261V108.254ZM91.296 104.511H92.5554C92.8391 104.511 93.0675 104.739 93.0675 105.023C93.0675 105.306 92.8391 105.535 92.5554 105.535H91.296V104.518V104.511ZM83.1304 114.953C83.1304 115.237 82.902 115.465 82.6183 115.465C82.3346 115.465 82.1062 115.237 82.1062 114.953V113.694H83.1235V114.953H83.1304ZM86.8741 114.953C86.8741 115.237 86.6457 115.465 86.362 115.465C86.0783 115.465 85.8499 115.237 85.8499 114.953V113.694H86.8672V114.953H86.8741ZM85.8568 98.8294C85.8568 98.5456 86.0852 98.3173 86.3689 98.3173C86.6527 98.3173 86.881 98.5456 86.881 98.8294V100.089H85.8638V98.8294H85.8568ZM82.1131 98.8294C82.1131 98.5456 82.3415 98.3173 82.6252 98.3173C82.9089 98.3173 83.1373 98.5456 83.1373 98.8294V100.089H82.1201V98.8294H82.1131ZM77.6982 109.272H76.4387C76.155 109.272 75.9267 109.043 75.9267 108.76C75.9267 108.476 76.155 108.247 76.4387 108.247H77.6982V109.265V109.272ZM77.6982 105.528H76.4387C76.155 105.528 75.9267 105.3 75.9267 105.016C75.9267 104.732 76.155 104.504 76.4387 104.504H77.6982V105.521V105.528Z" fill="#EE1D23"/>
<path d="M57.9701 289.932C56.7937 289.932 55.8457 290.887 55.8457 292.056C55.8457 293.226 56.8007 294.188 57.9701 294.188H60.5098C60.9111 296.464 62.7034 298.256 64.9801 298.665V301.197C64.9801 302.374 65.9351 303.329 67.1115 303.329C68.2879 303.329 69.2359 302.374 69.2359 301.197V298.755H70.5161V301.197C70.5161 302.374 71.4711 303.329 72.6475 303.329C73.8239 303.329 74.7719 302.374 74.7719 301.197V298.665C77.0486 298.256 78.8409 296.464 79.2491 294.188H81.7888C82.9652 294.188 83.9201 293.233 83.9201 292.056C83.9201 290.88 82.9652 289.932 81.7888 289.932H79.3391V288.652H81.7888C82.9652 288.652 83.9201 287.697 83.9201 286.527C83.9201 285.358 82.9652 284.396 81.7888 284.396H79.2491C78.8409 282.119 77.0486 280.334 74.7788 279.925V277.386C74.7788 276.209 73.8239 275.254 72.6544 275.254C71.4849 275.254 70.523 276.209 70.523 277.386V279.835H69.2428V277.386C69.2428 276.209 68.2879 275.254 67.1184 275.254C65.9489 275.254 64.987 276.209 64.987 277.386V279.925C62.7103 280.334 60.9181 282.119 60.5167 284.396H57.9771C56.8007 284.396 55.8526 285.351 55.8526 286.527C55.8526 287.703 56.8076 288.652 57.9771 288.652H60.4268V289.932H57.9771H57.9701ZM80.128 291.516H81.7819C82.0864 291.516 82.3286 291.759 82.3286 292.063C82.3286 292.368 82.0864 292.61 81.7819 292.61H80.128V291.516ZM80.128 285.98H81.7819C82.0864 285.98 82.3286 286.223 82.3286 286.527C82.3286 286.832 82.0864 287.074 81.7819 287.074H80.128V285.98ZM67.6512 301.204C67.6512 301.509 67.409 301.751 67.1045 301.751C66.8001 301.751 66.5579 301.509 66.5579 301.204V299.551H67.6512V301.204ZM73.1872 301.204C73.1872 301.509 72.945 301.751 72.6405 301.751C72.3361 301.751 72.0939 301.509 72.0939 301.204V299.551H73.1872V301.204ZM72.0939 277.393C72.0939 277.088 72.3361 276.846 72.6405 276.846C72.945 276.846 73.1872 277.088 73.1872 277.393V279.047H72.0939V277.393ZM66.5579 277.393C66.5579 277.088 66.8001 276.846 67.1045 276.846C67.409 276.846 67.6512 277.088 67.6512 277.393V279.047H66.5579V277.393ZM59.6171 292.617H57.9632C57.6657 292.617 57.4165 292.374 57.4165 292.07C57.4165 291.766 57.6588 291.523 57.9632 291.523H59.6171V292.617ZM59.6171 287.081H57.9632C57.6657 287.081 57.4165 286.838 57.4165 286.534C57.4165 286.23 57.6588 285.987 57.9632 285.987H59.6171V287.081Z" fill="#EE1D23"/>
<path d="M98.2436 289.932C97.0672 289.932 96.1191 290.887 96.1191 292.056C96.1191 293.226 97.0741 294.188 98.2436 294.188H100.783C101.185 296.464 102.977 298.256 105.254 298.665V301.197C105.254 302.374 106.208 303.329 107.385 303.329C108.561 303.329 109.509 302.374 109.509 301.197V298.755H110.79V301.197C110.79 302.374 111.745 303.329 112.921 303.329C114.097 303.329 115.045 302.374 115.045 301.197V298.665C117.322 298.256 119.114 296.464 119.523 294.188H122.062C123.239 294.188 124.194 293.233 124.194 292.056C124.194 290.88 123.239 289.932 122.062 289.932H119.613V288.652H122.062C123.239 288.652 124.194 287.697 124.194 286.527C124.194 285.358 123.239 284.396 122.062 284.396H119.523C119.114 282.119 117.322 280.334 115.052 279.925V277.386C115.052 276.209 114.097 275.254 112.928 275.254C111.758 275.254 110.796 276.209 110.796 277.386V279.835H109.516V277.386C109.516 276.209 108.561 275.254 107.392 275.254C106.222 275.254 105.26 276.209 105.26 277.386V279.925C102.984 280.334 101.192 282.119 100.79 284.396H98.2505C97.0741 284.396 96.1261 285.351 96.1261 286.527C96.1261 287.703 97.081 288.652 98.2505 288.652H100.7V289.932H98.2505H98.2436ZM120.401 291.516H122.055C122.36 291.516 122.602 291.759 122.602 292.063C122.602 292.368 122.36 292.61 122.055 292.61H120.401V291.516ZM120.401 285.98H122.055C122.36 285.98 122.602 286.223 122.602 286.527C122.602 286.832 122.36 287.074 122.055 287.074H120.401V285.98ZM107.925 301.204C107.925 301.509 107.682 301.751 107.378 301.751C107.073 301.751 106.831 301.509 106.831 301.204V299.551H107.925V301.204ZM113.461 301.204C113.461 301.509 113.218 301.751 112.914 301.751C112.609 301.751 112.367 301.509 112.367 301.204V299.551H113.461V301.204ZM112.367 277.393C112.367 277.088 112.609 276.846 112.914 276.846C113.218 276.846 113.461 277.088 113.461 277.393V279.047H112.367V277.393ZM106.831 277.393C106.831 277.088 107.073 276.846 107.378 276.846C107.682 276.846 107.925 277.088 107.925 277.393V279.047H106.831V277.393ZM99.8905 292.617H98.2367C97.9391 292.617 97.69 292.374 97.69 292.07C97.69 291.766 97.9322 291.523 98.2367 291.523H99.8905V292.617ZM99.8905 287.081H98.2367C97.9391 287.081 97.69 286.838 97.69 286.534C97.69 286.23 97.9322 285.987 98.2367 285.987H99.8905V287.081Z" fill="#EE1D23"/>
<path d="M215.378 40.8395C214.202 40.8395 213.254 41.7945 213.254 42.9709C213.254 44.1473 214.209 45.1022 215.378 45.1022H217.918C218.319 47.3789 220.112 49.1712 222.388 49.5795V52.1122C222.388 53.2886 223.343 54.2436 224.52 54.2436C225.696 54.2436 226.644 53.2886 226.644 52.1122V49.6694H227.924V52.1122C227.924 53.2886 228.879 54.2436 230.056 54.2436C231.232 54.2436 232.18 53.2886 232.18 52.1122V49.5795C234.457 49.1712 236.249 47.3789 236.657 45.1022H239.197C240.373 45.1022 241.328 44.1473 241.328 42.9709C241.328 41.7945 240.373 40.8395 239.197 40.8395H236.747V39.5593H239.197C240.373 39.5593 241.328 38.6044 241.328 37.428C241.328 36.2516 240.373 35.2966 239.197 35.2966H236.657C236.249 33.0199 234.457 31.2346 232.187 30.8263V28.2866C232.187 27.1102 231.232 26.1553 230.063 26.1553C228.893 26.1553 227.931 27.1102 227.931 28.2866V30.7363H226.651V28.2866C226.651 27.1102 225.696 26.1553 224.527 26.1553C223.357 26.1553 222.395 27.1102 222.395 28.2866V30.8263C220.119 31.2346 218.326 33.0199 217.925 35.2966H215.385C214.209 35.2966 213.261 36.2516 213.261 37.428C213.261 38.6044 214.216 39.5593 215.385 39.5593H217.835V40.8395H215.385H215.378ZM237.536 42.4242H239.19C239.495 42.4242 239.737 42.6664 239.737 42.9709C239.737 43.2754 239.495 43.5176 239.19 43.5176H237.536V42.4242ZM237.536 36.8882H239.19C239.495 36.8882 239.737 37.1304 239.737 37.4349C239.737 37.7394 239.495 37.9816 239.19 37.9816H237.536V36.8882ZM225.059 52.1053C225.059 52.4097 224.817 52.652 224.513 52.652C224.208 52.652 223.966 52.4097 223.966 52.1053V50.4514H225.059V52.1053ZM230.595 52.1053C230.595 52.4097 230.353 52.652 230.049 52.652C229.744 52.652 229.502 52.4097 229.502 52.1053V50.4514H230.595V52.1053ZM229.502 28.2936C229.502 27.9891 229.744 27.7469 230.049 27.7469C230.353 27.7469 230.595 27.9891 230.595 28.2936V29.9474H229.502V28.2936ZM223.966 28.2936C223.966 27.9891 224.208 27.7469 224.513 27.7469C224.817 27.7469 225.059 27.9891 225.059 28.2936V29.9474H223.966V28.2936ZM217.025 43.5106H215.371C215.074 43.5106 214.825 43.2684 214.825 42.964C214.825 42.6595 215.067 42.4173 215.371 42.4173H217.025V43.5106ZM217.025 37.9746H215.371C215.074 37.9746 214.825 37.7324 214.825 37.428C214.825 37.1235 215.067 36.8813 215.371 36.8813H217.025V37.9746Z" fill="#EE1D23"/>
<path d="M131.911 155.407H143.848C145.038 155.407 146.007 154.438 146.007 153.248V135.754C146.007 134.564 145.038 133.595 143.848 133.595H131.911C130.721 133.595 129.752 134.564 129.752 135.754V153.248C129.752 154.438 130.721 155.407 131.911 155.407ZM130.541 135.747C130.541 134.993 131.157 134.377 131.911 134.377H143.848C144.602 134.377 145.218 134.993 145.218 135.747V153.241C145.218 153.995 144.602 154.611 143.848 154.611H131.911C131.157 154.611 130.541 153.995 130.541 153.241V135.747Z" fill="white" fill-opacity="0.5"/>
<path d="M122.173 150.639C121.004 150.639 120.049 151.594 120.049 152.764C120.049 153.933 120.997 154.888 122.173 154.888H124.609V156.424C124.609 158.701 126.457 160.549 128.733 160.549H130.249V162.984C130.249 164.154 131.197 165.109 132.373 165.109C133.55 165.109 134.498 164.154 134.498 162.984V160.549H135.764V162.984C135.764 164.154 136.712 165.109 137.889 165.109C139.065 165.109 140.013 164.154 140.013 162.984V160.549H141.279V162.984C141.279 164.154 142.227 165.109 143.404 165.109C144.58 165.109 145.528 164.154 145.528 162.984V160.549H147.044C149.32 160.549 151.168 158.701 151.168 156.424V154.888H153.604C154.773 154.888 155.728 153.933 155.728 152.764C155.728 151.594 154.78 150.639 153.604 150.639H151.168V149.373H153.604C154.773 149.373 155.728 148.418 155.728 147.248C155.728 146.079 154.78 145.124 153.604 145.124H151.168V143.858H153.604C154.773 143.858 155.728 142.903 155.728 141.733C155.728 140.564 154.78 139.609 153.604 139.609H151.168V138.342H153.604C154.773 138.342 155.728 137.387 155.728 136.218C155.728 135.048 154.78 134.093 153.604 134.093H151.168V132.557C151.168 130.28 149.32 128.433 147.044 128.433H145.528V125.997C145.528 124.828 144.58 123.873 143.404 123.873C142.227 123.873 141.279 124.828 141.279 125.997V128.433H140.013V125.997C140.013 124.828 139.065 123.873 137.889 123.873C136.712 123.873 135.764 124.828 135.764 125.997V128.433H134.498V125.997C134.498 124.828 133.55 123.873 132.373 123.873C131.197 123.873 130.249 124.828 130.249 125.997V128.433H128.733C126.457 128.433 124.609 130.28 124.609 132.557V134.093H122.173C121.004 134.093 120.049 135.048 120.049 136.218C120.049 137.387 120.997 138.342 122.173 138.342H124.609V139.609H122.173C121.004 139.609 120.049 140.564 120.049 141.733C120.049 142.903 120.997 143.858 122.173 143.858H124.609V145.124H122.173C121.004 145.124 120.049 146.079 120.049 147.248C120.049 148.418 120.997 149.373 122.173 149.373H124.609V150.639H122.173ZM122.173 153.303C121.876 153.303 121.634 153.061 121.634 152.764C121.634 152.466 121.876 152.224 122.173 152.224H124.609V153.303H122.173ZM132.906 162.977C132.906 163.275 132.664 163.517 132.366 163.517C132.069 163.517 131.827 163.275 131.827 162.977V160.542H132.906V162.977ZM138.415 162.977C138.415 163.275 138.172 163.517 137.875 163.517C137.577 163.517 137.335 163.275 137.335 162.977V160.542H138.415V162.977ZM143.923 162.977C143.923 163.275 143.681 163.517 143.383 163.517C143.086 163.517 142.843 163.275 142.843 162.977V160.542H143.923V162.977ZM153.576 152.217C153.874 152.217 154.116 152.459 154.116 152.757C154.116 153.054 153.874 153.296 153.576 153.296H151.14V152.217H153.576ZM153.576 146.709C153.874 146.709 154.116 146.951 154.116 147.248C154.116 147.546 153.874 147.788 153.576 147.788H151.14V146.709H153.576ZM153.576 141.2C153.874 141.2 154.116 141.442 154.116 141.74C154.116 142.038 153.874 142.28 153.576 142.28H151.14V141.2H153.576ZM153.576 135.692C153.874 135.692 154.116 135.934 154.116 136.232C154.116 136.529 153.874 136.771 153.576 136.771H151.14V135.692H153.576ZM142.843 126.018C142.843 125.72 143.086 125.478 143.383 125.478C143.681 125.478 143.923 125.72 143.923 126.018V128.454H142.843V126.018ZM137.335 126.018C137.335 125.72 137.577 125.478 137.875 125.478C138.172 125.478 138.415 125.72 138.415 126.018V128.454H137.335V126.018ZM131.827 126.018C131.827 125.72 132.069 125.478 132.366 125.478C132.664 125.478 132.906 125.72 132.906 126.018V128.454H131.827V126.018ZM122.173 136.778C121.876 136.778 121.634 136.536 121.634 136.239C121.634 135.941 121.876 135.699 122.173 135.699H124.609V136.778H122.173ZM122.173 142.287C121.876 142.287 121.634 142.044 121.634 141.747C121.634 141.449 121.876 141.207 122.173 141.207H124.609V142.287H122.173ZM122.173 147.795C121.876 147.795 121.634 147.553 121.634 147.255C121.634 146.958 121.876 146.715 122.173 146.715H124.609V147.795H122.173ZM126.187 149.38V132.578C126.187 131.173 127.329 130.038 128.733 130.038H147.03C148.435 130.038 149.57 131.18 149.57 132.578V156.431C149.57 157.836 148.428 158.971 147.03 158.971H128.733C127.329 158.971 126.187 157.829 126.187 156.431V149.387V149.38Z" fill="white" fill-opacity="0.5"/>
<path d="M31.591 44.9915C32.7051 44.9915 33.6116 44.085 33.6116 42.9708C33.6116 41.8567 32.7051 40.9502 31.591 40.9502C30.4768 40.9502 29.5703 41.8567 29.5703 42.9708C29.5703 44.085 30.4768 44.9915 31.591 44.9915Z" fill="#EE1D23"/>
<path d="M86.5148 88.5598C87.6308 88.5598 88.5354 87.6552 88.5354 86.5392C88.5354 85.4232 87.6308 84.5186 86.5148 84.5186C85.3988 84.5186 84.4941 85.4232 84.4941 86.5392C84.4941 87.6552 85.3988 88.5598 86.5148 88.5598Z" fill="#EE1D23"/>
<path d="M92.0519 72.3877C90.9378 72.3877 90.0312 73.2942 90.0312 74.4083C90.0312 75.5225 90.9378 76.429 92.0519 76.429C93.166 76.429 94.0725 75.5225 94.0725 74.4083C94.0725 73.2942 93.166 72.3877 92.0519 72.3877Z" fill="#EE1D23"/>
<path d="M79.048 60.2568C77.9339 60.2568 77.0273 61.1634 77.0273 62.2775C77.0273 63.3916 77.9339 64.2981 79.048 64.2981C80.1621 64.2981 81.0686 63.3916 81.0686 62.2775C81.0686 61.1634 80.1621 60.2568 79.048 60.2568Z" fill="#EE1D23"/>
<path d="M92.0519 48.1333C90.9378 48.1333 90.0312 49.0398 90.0312 50.1539C90.0312 51.2681 90.9378 52.1746 92.0519 52.1746C93.166 52.1746 94.0725 51.2681 94.0725 50.1539C94.0725 49.0398 93.166 48.1333 92.0519 48.1333Z" fill="#EE1D23"/>
<path d="M211.698 18.7924C209.56 18.7924 207.781 20.3356 207.4 22.37C181.132 22.1417 154.469 22.1417 128.132 22.37V13.8792C154.075 13.6508 222.811 13.6508 249.993 13.8654V12.2807C222.797 12.0592 154.075 12.0662 128.125 12.2945V4.78632C154.068 4.55796 222.804 4.55796 249.986 4.77248V3.1878C222.791 2.96636 154.068 2.97328 128.118 3.20164V-2.625H123.765V48.6522H107.164V49.7594H95.9954C95.7947 47.7526 94.0993 46.1818 92.0372 46.1818C89.8435 46.1818 88.0651 47.9671 88.0651 50.1538C88.0651 52.3406 89.8505 54.1259 92.0372 54.1259C94.0924 54.1259 95.7947 52.5551 95.9954 50.5483H107.164V51.6555H123.765V60.776H107.164V61.8832H82.9927C82.7921 59.8764 81.0967 58.3056 79.0345 58.3056C76.8409 58.3056 75.0624 60.091 75.0624 62.2777C75.0624 64.4644 76.8478 66.2498 79.0345 66.2498C81.0897 66.2498 82.7921 64.6789 82.9927 62.6721H107.164V63.7793H123.765V72.8999H107.164V74.0071H95.9954C95.7947 72.0003 94.0993 70.4294 92.0372 70.4294C89.8435 70.4294 88.0651 72.2148 88.0651 74.4015C88.0651 76.5882 89.8505 78.3736 92.0372 78.3736C94.0924 78.3736 95.7947 76.8028 95.9954 74.796H107.164V75.9032H123.765V85.0237H107.164V86.1309H90.4594C90.2587 84.1241 88.5633 82.5533 86.5081 82.5533C84.3145 82.5533 82.536 84.3386 82.536 86.5254C82.536 88.7121 84.3214 90.4974 86.5081 90.4974C88.5633 90.4974 90.2657 88.9266 90.4594 86.9198H107.164V88.027H123.765V94.1927L78.0242 139.969V221.154L72.2114 226.967C71.4917 226.565 70.6613 226.33 69.7755 226.33C67.0145 226.33 64.7793 228.565 64.7793 231.326C64.7793 234.087 67.0145 236.323 69.7755 236.323C72.5366 236.323 74.7718 234.087 74.7718 231.326C74.7718 231.084 74.751 230.849 74.7164 230.614L82.3769 222.953L82.2869 222.863H82.3769V141.733L86.9787 137.131V175.62C86.5358 175.696 86.1067 175.89 85.7815 176.222C84.9027 177.101 84.9027 178.534 85.7815 179.413C86.2105 179.842 86.7711 180.07 87.3731 180.07C87.9751 180.07 88.5426 179.835 88.9647 179.413C89.3868 178.99 89.6221 178.423 89.6221 177.821C89.6221 177.219 89.3868 176.651 88.9647 176.229C88.6325 175.897 88.2104 175.703 87.7675 175.627V136.342L91.4351 132.675V171.164C90.9922 171.24 90.5632 171.434 90.238 171.766C89.8089 172.195 89.5806 172.755 89.5806 173.358C89.5806 173.96 89.8159 174.527 90.238 174.949C90.667 175.378 91.2275 175.607 91.8296 175.607C92.4316 175.607 92.9991 175.371 93.4212 174.949C94.3 174.07 94.3 172.638 93.4212 171.759C93.089 171.427 92.6669 171.233 92.224 171.157V132.011C92.224 131.969 92.2102 131.934 92.2033 131.9L95.8916 128.211V166.687C95.4487 166.763 95.0335 166.97 94.6945 167.309C93.8156 168.188 93.8156 169.621 94.6945 170.5C95.1373 170.936 95.7117 171.157 96.2861 171.157C96.8604 171.157 97.4417 170.936 97.8777 170.5C98.7565 169.621 98.7565 168.188 97.8777 167.309C97.5386 166.97 97.1165 166.763 96.6805 166.687V127.423L100.348 123.755V162.223C99.9121 162.299 99.49 162.507 99.1509 162.846C98.2721 163.725 98.2721 165.157 99.1509 166.036C99.5938 166.472 100.168 166.694 100.743 166.694C101.317 166.694 101.898 166.472 102.334 166.036C103.213 165.157 103.213 163.725 102.334 162.846C101.995 162.507 101.573 162.299 101.137 162.223V123.284C101.137 123.194 101.102 123.118 101.054 123.049L128.118 95.985V46.4309C128.166 46.4378 128.208 46.4586 128.256 46.4586C137.979 46.5485 147.536 46.597 157.044 46.597C166.552 46.597 175.548 46.5554 184.869 46.4655C185.243 48.493 187.028 50.0431 189.166 50.0431C191.574 50.0431 193.54 48.0848 193.54 45.6697C193.54 43.2546 191.581 41.2962 189.166 41.2962C187.028 41.2962 185.243 42.8463 184.869 44.8808C165.991 45.0538 147.473 45.0538 128.27 44.8808C128.215 44.8808 128.173 44.9016 128.118 44.9154V38.9365C128.153 38.9365 128.187 38.9573 128.222 38.9573H128.229C149.577 38.7428 171.728 38.7428 192.37 38.9573C192.744 40.9918 194.522 42.5418 196.668 42.5418C199.076 42.5418 201.041 40.5835 201.041 38.1684C201.041 35.7533 199.083 33.795 196.668 33.795C194.529 33.795 192.751 35.3381 192.377 37.3657C171.735 37.1581 149.57 37.1581 128.222 37.3657C128.187 37.3657 128.16 37.3795 128.125 37.3864V31.4145C128.173 31.4214 128.215 31.4422 128.263 31.4422C140.346 31.5252 152.476 31.5667 164.559 31.5667C176.641 31.5667 188.204 31.5252 199.885 31.4422C200.259 33.4697 202.044 35.0198 204.183 35.0198C206.591 35.0198 208.556 33.0614 208.556 30.6464C208.556 28.2313 206.598 26.2729 204.183 26.2729C202.044 26.2729 200.259 27.823 199.885 29.8575C176.281 30.0236 152.193 30.0236 128.27 29.8575C128.222 29.8575 128.173 29.8782 128.125 29.8852V23.934C154.463 23.7056 181.125 23.7056 207.387 23.934C207.76 25.9684 209.539 27.5185 211.684 27.5185C214.092 27.5185 216.057 25.5602 216.057 23.1451C216.057 20.73 214.099 18.7716 211.684 18.7716L211.698 18.7924ZM92.0579 53.337C90.3003 53.337 88.8747 51.9115 88.8747 50.1538C88.8747 48.3962 90.3003 46.9706 92.0579 46.9706C93.8156 46.9706 95.2411 48.3962 95.2411 50.1538C95.2411 51.9115 93.8156 53.337 92.0579 53.337ZM79.0553 65.4609C77.2976 65.4609 75.8721 64.0354 75.8721 62.2777C75.8721 60.52 77.2976 59.0945 79.0553 59.0945C80.8129 59.0945 82.2385 60.52 82.2385 62.2777C82.2385 64.0354 80.8129 65.4609 79.0553 65.4609ZM92.0579 77.5847C90.3003 77.5847 88.8747 76.1592 88.8747 74.4015C88.8747 72.6438 90.3003 71.2183 92.0579 71.2183C93.8156 71.2183 95.2411 72.6438 95.2411 74.4015C95.2411 76.1592 93.8156 77.5847 92.0579 77.5847ZM86.5219 89.7085C84.7643 89.7085 83.3387 88.283 83.3387 86.5254C83.3387 84.7677 84.7643 83.3422 86.5219 83.3422C88.2796 83.3422 89.7051 84.7677 89.7051 86.5254C89.7051 88.283 88.2796 89.7085 86.5219 89.7085ZM88.4319 176.783C89.0062 177.35 89.0062 178.285 88.4319 178.852C87.8783 179.406 86.9164 179.406 86.3628 178.852C85.7884 178.285 85.7884 177.35 86.3628 176.783C86.6396 176.506 87.0063 176.354 87.4008 176.354C87.7952 176.354 88.162 176.506 88.4388 176.783H88.4319ZM92.8883 172.326C93.4627 172.894 93.4627 173.828 92.8883 174.396C92.3347 174.949 91.3729 174.949 90.8193 174.396C90.2449 173.828 90.2449 172.894 90.8193 172.326C91.0961 172.05 91.4628 171.897 91.8573 171.897C92.2517 171.897 92.6185 172.05 92.8953 172.326H92.8883ZM97.3448 167.87C97.9123 168.444 97.9123 169.372 97.3448 169.939C96.7774 170.506 95.8432 170.506 95.2757 169.939C94.7083 169.365 94.7083 168.437 95.2757 167.87C95.8432 167.303 96.7774 167.296 97.3448 167.87ZM101.801 163.413C102.369 163.988 102.369 164.915 101.801 165.483C101.234 166.05 100.3 166.05 99.7322 165.483C99.1648 164.908 99.1648 163.981 99.7322 163.413C100.3 162.846 101.234 162.839 101.801 163.413ZM189.18 42.8878C190.716 42.8878 191.969 44.1404 191.969 45.6766C191.969 47.2128 190.716 48.4654 189.18 48.4654C187.644 48.4654 186.391 47.2128 186.391 45.6766C186.391 44.1404 187.644 42.8878 189.18 42.8878ZM196.688 35.3796C198.225 35.3796 199.477 36.6322 199.477 38.1684C199.477 39.7046 198.225 40.9572 196.688 40.9572C195.152 40.9572 193.9 39.7046 193.9 38.1684C193.9 36.6322 195.152 35.3796 196.688 35.3796ZM204.197 27.8714C205.733 27.8714 206.985 29.124 206.985 30.6602C206.985 32.1964 205.733 33.449 204.197 33.449C202.66 33.449 201.408 32.1964 201.408 30.6602C201.408 29.124 202.66 27.8714 204.197 27.8714ZM211.705 25.9408C210.169 25.9408 208.916 24.6882 208.916 23.152C208.916 21.6158 210.169 20.3632 211.705 20.3632C213.241 20.3632 214.493 21.6158 214.493 23.152C214.493 24.6882 213.241 25.9408 211.705 25.9408Z" fill="white" fill-opacity="0.5"/>
<path d="M245.501 282.41C246.617 282.41 247.522 281.505 247.522 280.389C247.522 279.273 246.617 278.369 245.501 278.369C244.385 278.369 243.48 279.273 243.48 280.389C243.48 281.505 244.385 282.41 245.501 282.41Z" fill="#EE1D23"/>
<path d="M245.904 308.519V284.347C247.91 284.147 249.481 282.451 249.481 280.389C249.481 278.195 247.696 276.417 245.509 276.417C243.322 276.417 241.537 278.202 241.537 280.389C241.537 282.444 243.108 284.147 245.115 284.347V308.519H244.008V343.375H247.011V308.519H245.904ZM242.326 280.389C242.326 278.631 243.752 277.206 245.509 277.206C247.267 277.206 248.692 278.631 248.692 280.389C248.692 282.147 247.267 283.572 245.509 283.572C243.752 283.572 242.326 282.147 242.326 280.389Z" fill="white" fill-opacity="0.5"/>
<path d="M235.399 293.392C235.399 292.278 234.492 291.371 233.378 291.371C232.264 291.371 231.357 292.278 231.357 293.392C231.357 294.506 232.264 295.412 233.378 295.412C234.492 295.412 235.399 294.506 235.399 293.392Z" fill="#EE1D23"/>
<path d="M233.773 308.519V297.35C235.78 297.15 237.35 295.454 237.35 293.392C237.35 291.198 235.565 289.42 233.378 289.42C231.192 289.42 229.406 291.205 229.406 293.392C229.406 295.447 230.977 297.15 232.984 297.35V308.519H231.877V343.375H234.88V308.519H233.773ZM230.195 293.392C230.195 291.634 231.621 290.209 233.378 290.209C235.136 290.209 236.562 291.634 236.562 293.392C236.562 295.15 235.136 296.575 233.378 296.575C231.621 296.575 230.195 295.15 230.195 293.392Z" fill="white" fill-opacity="0.5"/>
<path d="M223.276 287.856C223.276 286.741 222.369 285.835 221.255 285.835C220.141 285.835 219.234 286.741 219.234 287.856C219.234 288.97 220.141 289.876 221.255 289.876C222.369 289.876 223.276 288.97 223.276 287.856Z" fill="#EE1D23"/>
<path d="M221.648 308.519V291.814C223.655 291.613 225.225 289.918 225.225 287.863C225.225 285.669 223.44 283.891 221.253 283.891C219.067 283.891 217.281 285.676 217.281 287.863C217.281 289.918 218.852 291.62 220.859 291.814V308.519H219.752V343.375H222.755V308.519H221.648ZM218.07 287.856C218.07 286.098 219.496 284.673 221.253 284.673C223.011 284.673 224.437 286.098 224.437 287.856C224.437 289.613 223.011 291.039 221.253 291.039C219.496 291.039 218.07 289.613 218.07 287.856Z" fill="white" fill-opacity="0.5"/>
</g>
</g>
<defs>
<clipPath id="clip0_8_2592">
<rect width="250" height="343.75" fill="white"/>
</clipPath>
<clipPath id="clip1_8_2592">
<rect width="346" height="346" fill="white" transform="translate(-96 -2.625)"/>
</clipPath>
</defs>
</svg>
