<svg width="200" height="80" viewBox="0 0 200 80" fill="none" xmlns="http://www.w3.org/2000/svg">
<g clip-path="url(#clip0_8_3241)">
<path d="M62.545 41.788L56.294 35.58L25.0215 35.5733V29.3506H62.545V16.96H0V54.2H25.0215V51.0986H37.5302V63.5093H25.0201V60.408H0V72.8186L6.25772 79.028H56.294L62.545 72.8186V41.788ZM131.27 41.788L125.019 35.5186H93.7396V29.3306H131.27V16.96H68.7248V54.2H93.7396V51.0986H106.247L106.255 63.5093H93.7396V60.408H68.7248V72.8186L74.9758 79.028H125.019L131.27 72.8186V41.788ZM199.995 41.788L193.737 35.5186H162.464V29.3306H199.995V16.96H137.45V54.2H162.464V51.0986H174.973L174.98 63.5093H162.464V60.408H137.45V72.8186L143.701 79.028H193.737L199.995 72.8186V41.788ZM9.09127 10.8506H6.40671V4.49331L2.83356 10.8506H0V0.506643H2.67919V6.86264L6.24966 0.506643H9.07785L9.09127 10.8506ZM19.9638 10.8506H17.2846V6.63464H13.5651V10.8506H10.8859V0.506643H13.5651V4.56798H17.2846V0.506643H19.9638V10.8506ZM22.3477 2.95064C22.2786 2.83313 22.1863 2.73065 22.0765 2.64931C21.9635 2.55876 21.823 2.50894 21.6779 2.50798H21.0819V0.506643C21.2107 0.486643 21.3463 0.459977 21.4953 0.431977C21.8016 0.383009 22.1113 0.358486 22.4215 0.358643C22.949 0.358643 23.3745 0.486643 23.694 0.747977C24.0174 1.00931 24.2886 1.34531 24.5047 1.76131L25.9933 4.56664H27.0349V0.507977H29.7141V4.56798H30.7557L32.2443 1.76264C32.4591 1.34664 32.7369 1.01064 33.055 0.74931C33.3866 0.487977 33.8067 0.359977 34.3342 0.359977C34.6444 0.36023 34.9541 0.38475 35.2604 0.43331C35.4094 0.459977 35.5517 0.486643 35.6805 0.507977V2.50798H35.0846C34.9371 2.50763 34.7941 2.55752 34.6792 2.64931C34.5695 2.72886 34.4791 2.83183 34.4148 2.95064L33.0013 5.60931L35.9101 10.8573H33.0819L30.7691 6.64264H29.7275V10.8573H27.047V6.64264H26.0054L23.6993 10.8573H20.8725L23.7745 5.60931L22.3477 2.95064ZM45.0577 10.8506H36.7919V0.506643H45.051V2.57331H39.4644V4.56798H43.8604V6.63464H39.4644V8.78264H45.051L45.0577 10.8506ZM55.3329 10.8506H52.6537V6.63464H48.9342V10.8506H46.255V0.506643H48.9342V4.56798H52.6537V0.506643H55.3329V10.8506ZM65.3799 10.8506H57.1141V0.506643H65.3799V2.57331H59.7933V4.56798H64.1893V6.63464H59.7933V8.78264H65.3799V10.8506ZM66.5772 0.506643H72.8349C73.8765 0.506643 74.6336 0.74131 75.1074 1.20531C75.5812 1.67464 75.8107 2.42664 75.8107 3.45998V4.93731C75.8107 5.97064 75.5745 6.72264 75.1074 7.19198C74.6336 7.66131 73.8765 7.89731 72.8349 7.89731H69.2617V10.8506H66.5826L66.5772 0.506643ZM73.1315 3.45998C73.1315 2.86931 72.8349 2.57464 72.2389 2.57464H69.2631V5.82264H72.2389C72.8349 5.82264 73.1315 5.52798 73.1315 4.93731V3.45998ZM86.2456 10.8506H83.5664V6.63464H79.847V10.8506H77.1678V0.506643H79.847V4.56798H83.5664V0.506643H86.2456V10.8506ZM89.8819 10.8506H86.9799L90.9235 0.506643H93.9074L97.8577 10.8506H94.9557L94.2792 9.00398H90.5584L89.8819 10.8506ZM91.2148 7.08398H93.596L92.4054 3.61464L91.2148 7.08398ZM107.537 10.8506H104.858V7.44664H102.848L100.989 10.8506H98.1611L100.095 7.30664C99.4604 7.15864 99.0067 6.85598 98.7221 6.40664C98.4456 5.95731 98.3034 5.31864 98.3034 4.49998V3.45998C98.3034 2.42664 98.5396 1.67331 99.0134 1.20531C99.4872 0.734643 100.238 0.506643 101.286 0.506643H107.544L107.537 10.8506ZM100.974 4.49998C100.974 5.09064 101.272 5.38664 101.868 5.38664H104.851V2.57331H101.868C101.272 2.57331 100.974 2.86931 100.974 3.45998V4.49998Z" fill="#E3000B"/>
<path d="M119.808 5.60944L122.71 10.8574H119.881L117.574 6.64277H116.236V10.8574H113.557V0.508107H116.236V4.56811H117.574L119.064 1.76277C119.26 1.37263 119.536 1.02749 119.875 0.749441C120.193 0.488107 120.618 0.360107 121.146 0.360107C121.456 0.360371 121.766 0.384892 122.072 0.433441C122.222 0.460107 122.357 0.486774 122.492 0.508107V2.50811H121.897C121.751 2.50654 121.61 2.55664 121.497 2.64944C121.388 2.73092 121.296 2.83339 121.228 2.95077L119.808 5.60944ZM132.989 8.04544C132.989 9.07878 132.751 9.83211 132.277 10.3014C131.812 10.7708 131.053 10.9988 130.005 10.9988H126.284C125.242 10.9988 124.485 10.7641 124.012 10.3014C123.538 9.83078 123.301 9.08544 123.301 8.04544V3.32011C123.301 2.28677 123.538 1.53477 124.013 1.06544C124.485 0.594774 125.236 0.360107 126.284 0.360107H130.005C131.046 0.360107 131.803 0.594774 132.279 1.06544C132.751 1.53477 132.989 2.27877 132.989 3.32011V8.04544ZM130.308 3.32011C130.308 2.72944 130.01 2.43477 129.416 2.43477H126.879C126.283 2.43477 125.986 2.72944 125.986 3.32011V8.05344C125.986 8.64277 126.283 8.93878 126.879 8.93878H129.416C130.01 8.93878 130.308 8.64278 130.308 8.05211V3.32011ZM143.405 5.09078L141.315 8.78944H139.232L137.148 5.09078V10.8574H134.469V0.506774H137.297L140.28 5.97744L143.256 0.506774H146.084V10.8508H143.405V5.09078ZM156.957 10.8508H154.277V2.57344H150.558V10.8494H147.879V0.506774H156.963V10.8508H156.957ZM160.606 10.8508H157.704L161.648 0.506774H164.632L168.582 10.8508H165.68L165.009 9.00411H161.289L160.606 10.8508ZM161.946 7.08411H164.327L163.136 3.61477L161.946 7.08411ZM178.406 10.8508H175.727V6.64011H172.008V10.8561H169.328V0.506774H172.008V4.56811H175.727V0.506774H178.406V10.8508ZM189.279 10.8508H186.599V4.50011L183.029 10.8574H180.201V0.506774H182.88V6.86277L186.45 0.506774H189.279V10.8508ZM197.328 10.8508V7.44677H195.318L193.459 10.8508H190.63L192.565 7.30678C191.93 7.15877 191.476 6.85611 191.191 6.40677C190.915 5.95744 190.773 5.31877 190.773 4.50011V3.46011C190.773 2.42677 191.009 1.67344 191.483 1.20544C191.957 0.734774 192.707 0.506774 193.755 0.506774H200.013V10.8508H197.328ZM193.452 4.50011C193.452 5.09077 193.748 5.38677 194.344 5.38677H197.327V2.57344H194.344C193.748 2.57344 193.452 2.86944 193.452 3.46011V4.50011Z" fill="#E3000B"/>
</g>
<defs>
<clipPath id="clip0_8_3241">
<rect width="200" height="80" fill="white"/>
</clipPath>
</defs>
</svg>
