<svg width="250" height="345" viewBox="0 0 250 345" fill="none" xmlns="http://www.w3.org/2000/svg">
<g clip-path="url(#clip0_8_2288)">
<g clip-path="url(#clip1_8_2288)">
<rect width="346" height="346" transform="translate(-96 -2)" fill="#231F20"/>
<path d="M203.338 195.781H218.645C219.932 195.781 220.977 194.736 220.977 193.442V186.923C220.977 185.636 219.932 184.584 218.645 184.584H203.338C202.051 184.584 201.006 185.629 201.006 186.923V193.442C201.006 194.729 202.051 195.781 203.338 195.781ZM202.584 186.923C202.584 186.508 202.923 186.169 203.338 186.169H218.645C219.06 186.169 219.399 186.508 219.399 186.923V193.442C219.399 193.857 219.06 194.196 218.645 194.196H203.338C202.923 194.196 202.584 193.857 202.584 193.442V186.923Z" fill="white" fill-opacity="0.5"/>
<path d="M197.58 191.255C197.047 191.255 196.611 191.684 196.611 192.224C196.611 192.763 197.04 193.192 197.58 193.192H199.13V194.867C199.13 196.638 200.57 198.078 202.341 198.078H204.03V199.628C204.03 200.161 204.459 200.597 204.998 200.597C205.538 200.597 205.967 200.168 205.967 199.628V198.078H208.036V199.628C208.036 200.161 208.465 200.597 209.005 200.597C209.545 200.597 209.974 200.168 209.974 199.628V198.078H212.043V199.628C212.043 200.161 212.472 200.597 213.012 200.597C213.551 200.597 213.981 200.168 213.981 199.628V198.078H216.05V199.628C216.05 200.161 216.479 200.597 217.018 200.597C217.558 200.597 217.987 200.168 217.987 199.628V198.078H219.676C221.447 198.078 222.887 196.638 222.887 194.867V193.192H224.437C224.969 193.192 225.405 192.763 225.405 192.224C225.405 191.684 224.976 191.255 224.437 191.255H222.887V189.186H224.437C224.969 189.186 225.405 188.757 225.405 188.217C225.405 187.677 224.976 187.248 224.437 187.248H222.887V185.504C222.887 183.733 221.447 182.293 219.676 182.293H217.987V180.743C217.987 180.21 217.558 179.774 217.018 179.774C216.479 179.774 216.05 180.203 216.05 180.743V182.293H213.981V180.743C213.981 180.21 213.551 179.774 213.012 179.774C212.472 179.774 212.043 180.203 212.043 180.743V182.293H209.974V180.743C209.974 180.21 209.545 179.774 209.005 179.774C208.465 179.774 208.036 180.203 208.036 180.743V182.293H205.967V180.743C205.967 180.21 205.538 179.774 204.998 179.774C204.459 179.774 204.03 180.203 204.03 180.743V182.293H202.341C200.57 182.293 199.13 183.733 199.13 185.504V187.248H197.58C197.047 187.248 196.611 187.677 196.611 188.217C196.611 188.757 197.04 189.186 197.58 189.186H199.13V191.255H197.58ZM200.708 185.511C200.708 184.611 201.435 183.885 202.334 183.885H219.634C220.534 183.885 221.26 184.618 221.26 185.511V194.86C221.26 195.76 220.527 196.486 219.634 196.486H202.334C201.435 196.486 200.708 195.76 200.708 194.86V185.511Z" fill="white" fill-opacity="0.5"/>
<path d="M158.227 236.837H142.92C141.633 236.837 140.588 237.882 140.588 239.176V245.695C140.588 246.982 141.633 248.033 142.92 248.033H158.227C159.514 248.033 160.559 246.989 160.559 245.695V239.176C160.559 237.889 159.514 236.837 158.227 236.837ZM158.981 245.695C158.981 246.11 158.642 246.449 158.227 246.449H142.92C142.505 246.449 142.166 246.11 142.166 245.695V239.176C142.166 238.761 142.505 238.422 142.92 238.422H158.227C158.642 238.422 158.981 238.761 158.981 239.176V245.695Z" fill="white" fill-opacity="0.5"/>
<path d="M163.984 241.439C164.516 241.439 164.952 241.01 164.952 240.47C164.952 239.93 164.523 239.501 163.984 239.501H162.433V237.757C162.433 235.986 160.994 234.546 159.223 234.546H157.534V232.996C157.534 232.463 157.105 232.027 156.565 232.027C156.026 232.027 155.596 232.456 155.596 232.996V234.546H153.527V232.996C153.527 232.463 153.098 232.027 152.559 232.027C152.019 232.027 151.59 232.456 151.59 232.996V234.546H149.521V232.996C149.521 232.463 149.092 232.027 148.552 232.027C148.012 232.027 147.583 232.456 147.583 232.996V234.546H145.514V232.996C145.514 232.463 145.085 232.027 144.545 232.027C144.005 232.027 143.576 232.456 143.576 232.996V234.546H141.888C140.116 234.546 138.677 235.986 138.677 237.757V239.501H137.127C136.594 239.501 136.158 239.93 136.158 240.47C136.158 241.01 136.587 241.439 137.127 241.439H138.677V243.508H137.127C136.594 243.508 136.158 243.937 136.158 244.476C136.158 245.016 136.587 245.445 137.127 245.445H138.677V247.12C138.677 248.891 140.116 250.331 141.888 250.331H143.576V251.881C143.576 252.414 144.005 252.85 144.545 252.85C145.085 252.85 145.514 252.421 145.514 251.881V250.331H147.583V251.881C147.583 252.414 148.012 252.85 148.552 252.85C149.092 252.85 149.521 252.421 149.521 251.881V250.331H151.59V251.881C151.59 252.414 152.019 252.85 152.559 252.85C153.098 252.85 153.527 252.421 153.527 251.881V250.331H155.596V251.881C155.596 252.414 156.026 252.85 156.565 252.85C157.105 252.85 157.534 252.421 157.534 251.881V250.331H159.223C160.994 250.331 162.433 248.891 162.433 247.12V245.445H163.984C164.516 245.445 164.952 245.016 164.952 244.476C164.952 243.937 164.523 243.508 163.984 243.508H162.433V241.439H163.984ZM160.856 247.106C160.856 248.006 160.129 248.732 159.229 248.732H141.929C141.03 248.732 140.303 248.006 140.303 247.106V237.757C140.303 236.858 141.03 236.131 141.929 236.131H159.229C160.129 236.131 160.856 236.864 160.856 237.757V247.106Z" fill="white" fill-opacity="0.5"/>
<path d="M27.9503 195.642C29.0663 195.642 29.971 194.737 29.971 193.621C29.971 192.505 29.0663 191.601 27.9503 191.601C26.8344 191.601 25.9297 192.505 25.9297 193.621C25.9297 194.737 26.8344 195.642 27.9503 195.642Z" fill="#1AC934"/>
<path d="M31.5625 208.25C31.5625 209.364 32.469 210.271 33.5831 210.271C34.6973 210.271 35.6038 209.364 35.6038 208.25C35.6038 207.136 34.6973 206.229 33.5831 206.229C32.469 206.229 31.5625 207.136 31.5625 208.25Z" fill="#1AC934"/>
<path d="M39.1554 226.845C40.2714 226.845 41.176 225.94 41.176 224.824C41.176 223.708 40.2714 222.803 39.1554 222.803C38.0394 222.803 37.1348 223.708 37.1348 224.824C37.1348 225.94 38.0394 226.845 39.1554 226.845Z" fill="#1AC934"/>
<path d="M24.0343 258.213C22.9202 258.213 22.0137 259.119 22.0137 260.234C22.0137 261.348 22.9202 262.254 24.0343 262.254C25.1484 262.254 26.055 261.348 26.055 260.234C26.055 259.119 25.1484 258.213 24.0343 258.213Z" fill="#1AC934"/>
<path d="M24.0343 270.344C22.9202 270.344 22.0137 271.25 22.0137 272.364C22.0137 273.479 22.9202 274.385 24.0343 274.385C25.1484 274.385 26.055 273.479 26.055 272.364C26.055 271.25 25.1484 270.344 24.0343 270.344Z" fill="#1AC934"/>
<path d="M24.0343 282.481C22.9202 282.481 22.0137 283.388 22.0137 284.502C22.0137 285.616 22.9202 286.523 24.0343 286.523C25.1484 286.523 26.055 285.616 26.055 284.502C26.055 283.388 25.1484 282.481 24.0343 282.481Z" fill="#1AC934"/>
<path d="M24.0343 294.612C22.9202 294.612 22.0137 295.518 22.0137 296.632C22.0137 297.747 22.9202 298.653 24.0343 298.653C25.1484 298.653 26.055 297.747 26.055 296.632C26.055 295.518 25.1484 294.612 24.0343 294.612Z" fill="#1AC934"/>
<path d="M100.015 165.824C100.423 166.232 101.088 166.232 101.503 165.824C101.918 165.416 101.911 164.751 101.503 164.336C101.095 163.928 100.43 163.928 100.015 164.336C99.6069 164.744 99.6069 165.409 100.015 165.824Z" fill="#1AC934"/>
<path d="M95.5601 170.281C95.9684 170.689 96.6327 170.689 97.0479 170.281C97.4631 169.872 97.4562 169.208 97.0479 168.793C96.6396 168.377 95.9753 168.384 95.5601 168.793C95.1518 169.201 95.1518 169.865 95.5601 170.281Z" fill="#1AC934"/>
<path d="M91.1031 173.256C90.6948 173.664 90.6948 174.329 91.1031 174.744C91.5114 175.159 92.1757 175.152 92.5909 174.744C92.9992 174.335 92.9992 173.671 92.5909 173.256C92.1826 172.848 91.5183 172.848 91.1031 173.256Z" fill="#1AC934"/>
<path d="M86.6461 177.705C86.2378 178.114 86.2378 178.778 86.6461 179.193C87.0543 179.601 87.7186 179.601 88.1338 179.193C88.549 178.785 88.5421 178.12 88.1338 177.705C87.7256 177.29 87.0613 177.297 86.6461 177.705Z" fill="#1AC934"/>
<path d="M188.482 209.994C189.596 209.994 190.502 209.088 190.502 207.974C190.502 206.86 189.596 205.953 188.482 205.953C187.367 205.953 186.461 206.86 186.461 207.974C186.461 209.088 187.367 209.994 188.482 209.994Z" fill="#1AC934"/>
<path d="M180.98 202.486C182.094 202.486 183 201.58 183 200.465C183 199.351 182.094 198.445 180.98 198.445C179.866 198.445 178.959 199.351 178.959 200.465C178.959 201.58 179.866 202.486 180.98 202.486Z" fill="#1AC934"/>
<path d="M173.472 194.978C174.588 194.978 175.492 194.073 175.492 192.957C175.492 191.841 174.588 190.937 173.472 190.937C172.356 190.937 171.451 191.841 171.451 192.957C171.451 194.073 172.356 194.978 173.472 194.978Z" fill="#1AC934"/>
<path d="M107.407 193.746H169.175C169.549 195.78 171.327 197.324 173.473 197.324C175.881 197.324 177.846 195.365 177.846 192.95C177.846 190.535 175.888 188.577 173.473 188.577C171.334 188.577 169.549 190.12 169.175 192.154H107.075C106.868 192.154 106.667 192.237 106.515 192.383L103.283 195.614C103.138 195.76 103.055 195.967 103.055 196.175V254.026C103.055 254.351 103.248 254.635 103.546 254.76C103.643 254.801 103.74 254.815 103.844 254.815C104.051 254.815 104.259 254.732 104.411 254.573L111.919 246.795C112.065 246.649 112.141 246.449 112.141 246.248V204.008L114.909 201.24H176.677C177.05 203.275 178.829 204.818 180.974 204.818C183.382 204.818 185.347 202.86 185.347 200.444C185.347 198.029 183.389 196.071 180.974 196.071C178.836 196.071 177.05 197.614 176.677 199.649H114.576C114.369 199.649 114.168 199.732 114.016 199.877L110.784 203.109C110.639 203.254 110.556 203.462 110.556 203.669V245.916L104.632 252.054V196.493L107.4 193.725L107.407 193.746ZM173.473 190.168C175.009 190.168 176.261 191.421 176.261 192.957C176.261 194.493 175.009 195.746 173.473 195.746C171.936 195.746 170.684 194.493 170.684 192.957C170.684 191.421 171.936 190.168 173.473 190.168ZM180.981 197.676C182.517 197.676 183.77 198.929 183.77 200.465C183.77 202.001 182.517 203.254 180.981 203.254C179.445 203.254 178.192 202.001 178.192 200.465C178.192 198.929 179.445 197.676 180.981 197.676Z" fill="white" fill-opacity="0.5"/>
<path d="M165.964 187.476C167.078 187.476 167.985 186.57 167.985 185.456C167.985 184.342 167.078 183.435 165.964 183.435C164.85 183.435 163.943 184.342 163.943 185.456C163.943 186.57 164.85 187.476 165.964 187.476Z" fill="#1AC934"/>
<path d="M99.0122 184.889L95.7805 188.12C95.6352 188.266 95.5522 188.473 95.5522 188.681V253.127H67.1248C66.9172 253.127 66.7165 253.21 66.5643 253.355L61.0906 258.829C60.8622 259.057 60.7999 259.396 60.9176 259.694C61.0421 259.991 61.3258 260.185 61.6511 260.185H107.724C107.932 260.185 108.133 260.102 108.285 259.957L119.426 248.816C119.426 248.816 119.454 248.767 119.475 248.739C119.523 248.684 119.565 248.629 119.592 248.56C119.634 248.463 119.655 248.359 119.655 248.255V211.538L122.423 208.77H184.197C184.571 210.804 186.349 212.347 188.495 212.347C190.903 212.347 192.868 210.389 192.868 207.981C192.868 205.572 190.91 203.607 188.495 203.607C186.356 203.607 184.571 205.15 184.197 207.185H121.772L118.077 210.88V247.923L107.399 258.6H63.5679L67.457 254.711H96.348C96.7839 254.711 97.1368 254.358 97.1368 253.923V189.013L99.9048 186.245H161.68C162.053 188.279 163.832 189.823 165.977 189.823C168.385 189.823 170.35 187.864 170.35 185.449C170.35 183.034 168.392 181.076 165.977 181.076C163.839 181.076 162.053 182.619 161.68 184.653H99.5796C99.372 184.653 99.1713 184.736 99.0191 184.882L99.0122 184.889ZM188.488 205.178C190.024 205.178 191.277 206.431 191.277 207.967C191.277 209.503 190.024 210.756 188.488 210.756C186.952 210.756 185.699 209.503 185.699 207.967C185.699 206.431 186.952 205.178 188.488 205.178ZM165.963 182.653C167.499 182.653 168.752 183.906 168.752 185.442C168.752 186.978 167.499 188.231 165.963 188.231C164.427 188.231 163.174 186.978 163.174 185.442C163.174 183.906 164.427 182.653 165.963 182.653Z" fill="white" fill-opacity="0.5"/>
<path d="M211.698 25.8113C212.812 25.8113 213.719 24.9048 213.719 23.7907C213.719 22.6765 212.812 21.77 211.698 21.77C210.584 21.77 209.678 22.6765 209.678 23.7907C209.678 24.9048 210.584 25.8113 211.698 25.8113Z" fill="#1AC934"/>
<path d="M204.191 33.3196C205.305 33.3196 206.211 32.4131 206.211 31.299C206.211 30.1848 205.305 29.2783 204.191 29.2783C203.076 29.2783 202.17 30.1848 202.17 31.299C202.17 32.4131 203.076 33.3196 204.191 33.3196Z" fill="#1AC934"/>
<path d="M196.681 40.8279C197.795 40.8279 198.701 39.9214 198.701 38.8073C198.701 37.6931 197.795 36.7866 196.681 36.7866C195.567 36.7866 194.66 37.6931 194.66 38.8073C194.66 39.9214 195.567 40.8279 196.681 40.8279Z" fill="#1AC934"/>
<path d="M189.173 48.3362C190.287 48.3362 191.194 47.4297 191.194 46.3156C191.194 45.2014 190.287 44.2949 189.173 44.2949C188.059 44.2949 187.152 45.2014 187.152 46.3156C187.152 47.4297 188.059 48.3362 189.173 48.3362Z" fill="#1AC934"/>
<path d="M173.388 304.902C175.727 304.902 177.616 303.006 177.616 300.674C177.616 298.342 175.72 296.446 173.388 296.446C171.056 296.446 169.16 298.342 169.16 300.674C169.16 303.006 171.056 304.902 173.388 304.902Z" fill="white" fill-opacity="0.5"/>
<path d="M202.813 296.439H194.35V304.902H202.813V296.439Z" fill="white" fill-opacity="0.5"/>
<path d="M163.348 301.006C163.425 301.006 163.494 300.985 163.563 300.964C163.722 305.898 167.77 309.864 172.739 309.864H200.024C205.097 309.864 209.221 305.739 209.221 300.667C209.221 295.595 205.097 291.47 200.024 291.47H187.174V262.206H221.352L232.092 272.945C232.092 272.945 232.14 272.973 232.161 272.994C232.216 273.042 232.279 273.091 232.348 273.118C232.445 273.16 232.548 273.181 232.652 273.181H250.001V271.596H232.977L222.238 260.856C222.238 260.856 222.189 260.828 222.168 260.815C222.106 260.766 222.051 260.718 221.982 260.69C221.885 260.649 221.781 260.628 221.677 260.628H186.385C185.949 260.628 185.596 260.981 185.596 261.417V291.47H172.746C168.082 291.47 164.22 294.965 163.639 299.477C163.549 299.442 163.459 299.421 163.355 299.421H142.838V273.748H153.467V285.291H165.923V271.25L180.538 256.635C180.538 256.635 180.572 256.58 180.593 256.552C180.635 256.497 180.683 256.441 180.711 256.379C180.752 256.282 180.773 256.178 180.773 256.074V233.64C180.773 233.536 180.752 233.432 180.711 233.335C180.683 233.266 180.635 233.218 180.593 233.162C180.572 233.135 180.565 233.107 180.538 233.079L173.984 226.526C174.469 225.82 174.759 224.969 174.759 224.049C174.759 221.64 172.801 219.682 170.386 219.682C167.971 219.682 166.013 221.64 166.013 224.049C166.013 226.457 167.971 228.422 170.386 228.422C171.306 228.422 172.158 228.138 172.863 227.647L179.188 233.972V255.756L165.923 269.022V260.635H153.467V272.177H142.049C141.613 272.177 141.26 272.53 141.26 272.966V344H142.844V301.006H163.362H163.348ZM172.739 293.055H200.024C204.225 293.055 207.636 296.473 207.636 300.667C207.636 304.86 204.218 308.279 200.024 308.279H172.739C168.538 308.279 165.127 304.86 165.127 300.667C165.127 296.473 168.545 293.055 172.739 293.055ZM167.597 224.042C167.597 222.505 168.85 221.253 170.386 221.253C171.922 221.253 173.175 222.505 173.175 224.042C173.175 225.578 171.922 226.83 170.386 226.83C168.85 226.83 167.597 225.578 167.597 224.042ZM155.044 262.212H164.338V270.925V283.72H155.044V262.212Z" fill="white" fill-opacity="0.5"/>
<path d="M219.864 220.914C222.864 220.914 225.296 218.482 225.296 215.482C225.296 212.482 222.864 210.05 219.864 210.05C216.864 210.05 214.432 212.482 214.432 215.482C214.432 218.482 216.864 220.914 219.864 220.914Z" fill="#1AC934"/>
<path d="M210.991 241.342C212.105 241.342 213.012 240.435 213.012 239.321C213.012 238.207 212.105 237.3 210.991 237.3C209.877 237.3 208.971 238.207 208.971 239.321C208.971 240.435 209.877 241.342 210.991 241.342Z" fill="#1AC934"/>
<path d="M202.189 216.271H209.503C209.912 221.634 214.396 225.876 219.856 225.876C225.586 225.876 230.25 221.211 230.25 215.482C230.25 209.752 225.586 205.088 219.856 205.088C214.126 205.088 209.905 209.33 209.503 214.693H129.266L125.571 218.388V249.092L110.091 264.572H54.9798L26.511 293.041C25.8051 292.557 24.954 292.266 24.0336 292.266C21.6254 292.266 19.6602 294.224 19.6602 296.639C19.6602 299.055 21.6185 301.013 24.0336 301.013C26.4487 301.013 28.407 299.055 28.407 296.639C28.407 295.719 28.1233 294.868 27.632 294.162L55.6372 266.157H110.748L126.92 249.985C126.92 249.985 126.955 249.929 126.976 249.902C127.017 249.846 127.065 249.791 127.093 249.729C127.135 249.632 127.155 249.528 127.155 249.424V219.046L129.923 216.278H188.64V241.598C188.64 241.702 188.66 241.805 188.702 241.902C188.73 241.965 188.771 242.02 188.813 242.075C188.833 242.103 188.84 242.138 188.868 242.158L195.421 248.712C194.937 249.417 194.646 250.269 194.646 251.189C194.646 253.597 196.605 255.562 199.02 255.562C201.435 255.562 203.393 253.604 203.393 251.189C203.393 248.774 201.435 246.815 199.02 246.815C198.099 246.815 197.248 247.099 196.542 247.591L190.217 241.266V216.271H200.597V229.723C200.597 229.827 200.618 229.931 200.66 230.028C200.687 230.09 200.736 230.145 200.777 230.201C200.798 230.228 200.805 230.256 200.833 230.284L207.386 236.837C206.902 237.543 206.611 238.394 206.611 239.314C206.611 241.722 208.569 243.688 210.984 243.688C213.399 243.688 215.358 241.729 215.358 239.314C215.358 236.899 213.399 234.948 210.984 234.948C210.064 234.948 209.213 235.231 208.507 235.723L202.182 229.398V216.271H202.189ZM24.0336 299.428C22.4974 299.428 21.2448 298.176 21.2448 296.639C21.2448 295.103 22.4974 293.851 24.0336 293.851C25.5698 293.851 26.8224 295.103 26.8224 296.639C26.8224 298.176 25.5698 299.428 24.0336 299.428ZM201.815 251.182C201.815 252.718 200.563 253.971 199.027 253.971C197.49 253.971 196.238 252.718 196.238 251.182C196.238 249.646 197.49 248.393 199.027 248.393C200.563 248.393 201.815 249.646 201.815 251.182ZM219.863 206.666C224.721 206.666 228.679 210.617 228.679 215.482C228.679 220.346 224.727 224.298 219.863 224.298C214.998 224.298 211.047 220.346 211.047 215.482C211.047 210.617 214.998 206.666 219.863 206.666ZM213.78 239.314C213.78 240.85 212.527 242.103 210.991 242.103C209.455 242.103 208.202 240.85 208.202 239.314C208.202 237.778 209.455 236.525 210.991 236.525C212.527 236.525 213.78 237.778 213.78 239.314Z" fill="white" fill-opacity="0.5"/>
<path d="M199.026 253.203C200.141 253.203 201.047 252.296 201.047 251.182C201.047 250.068 200.141 249.162 199.026 249.162C197.912 249.162 197.006 250.068 197.006 251.182C197.006 252.296 197.912 253.203 199.026 253.203Z" fill="#1AC934"/>
<path d="M170.386 222.021C169.272 222.021 168.365 222.928 168.365 224.042C168.365 225.156 169.272 226.062 170.386 226.062C171.5 226.062 172.407 225.156 172.407 224.042C172.407 222.928 171.5 222.021 170.386 222.021Z" fill="#1AC934"/>
<path d="M31.2316 66.9438C30.1175 66.9438 29.2109 67.8504 29.2109 68.9645C29.2109 70.0786 30.1175 70.9851 31.2316 70.9851C32.3457 70.9851 33.2522 70.0786 33.2522 68.9645C33.2522 67.8504 32.3457 66.9438 31.2316 66.9438Z" fill="white" fill-opacity="0.5"/>
<path d="M48.3781 53.3255C49.494 53.3255 50.3987 52.4208 50.3987 51.3048C50.3987 50.1888 49.494 49.2842 48.3781 49.2842C47.2621 49.2842 46.3574 50.1888 46.3574 51.3048C46.3574 52.4208 47.2621 53.3255 48.3781 53.3255Z" fill="#1AC934"/>
<path d="M44.38 78.3894C45.496 78.3894 46.4007 77.4848 46.4007 76.3688C46.4007 75.2528 45.496 74.3481 44.38 74.3481C43.264 74.3481 42.3594 75.2528 42.3594 76.3688C42.3594 77.4848 43.264 78.3894 44.38 78.3894Z" fill="white" fill-opacity="0.5"/>
<path d="M-0.0193146 168.191C0.388965 168.599 1.05329 168.599 1.46849 168.191C1.87677 167.782 1.87677 167.118 1.46849 166.703C1.06021 166.294 0.395885 166.294 -0.0193146 166.703C-0.434515 167.111 -0.427595 167.775 -0.0193146 168.191Z" fill="#1AC934"/>
<path d="M-12.7519 126.594C-12.918 126.643 -13.0425 126.788 -13.0425 126.968V139.971C-13.4854 140.047 -13.9144 140.248 -14.2397 140.573C-15.1185 141.452 -15.1185 142.884 -14.2397 143.763C-13.8106 144.192 -13.2501 144.42 -12.6481 144.42C-12.046 144.42 -11.4786 144.185 -11.0565 143.763C-10.1776 142.884 -10.1776 141.452 -11.0565 140.573C-11.3886 140.241 -11.8108 140.047 -12.2536 139.971V127.093L-8.56528 130.781C-8.57912 130.816 -8.58604 130.857 -8.58604 130.899V144.42C-9.02892 144.496 -9.45796 144.697 -9.7832 145.022C-10.662 145.901 -10.662 147.334 -9.7832 148.212C-9.35416 148.641 -8.79364 148.87 -8.1916 148.87C-7.58956 148.87 -7.02212 148.635 -6.6 148.212C-5.72116 147.334 -5.72116 145.901 -6.6 145.022C-6.93216 144.69 -7.35428 144.496 -7.79716 144.42V131.542L-3.96348 135.376C-4.06036 135.445 -4.12956 135.556 -4.12956 135.687V148.877C-4.57244 148.953 -5.00148 149.154 -5.32672 149.479C-6.20556 150.358 -6.20556 151.79 -5.32672 152.669C-4.89768 153.098 -4.33716 153.326 -3.73512 153.326C-3.13308 153.326 -2.56564 153.091 -2.14351 152.669C-1.26468 151.79 -1.26468 150.358 -2.14351 149.479C-2.47568 149.147 -2.8978 148.953 -3.34068 148.877V135.999L0.32692 139.666V165.243C-0.115961 165.319 -0.544998 165.519 -0.870237 165.845C-1.74908 166.723 -1.74908 168.156 -0.870237 169.035C-0.441198 169.464 0.119324 169.692 0.721365 169.692C1.3234 169.692 1.89085 169.457 2.31297 169.035C3.19181 168.156 3.19181 166.723 2.31297 165.845C1.98081 165.512 1.55868 165.319 1.1158 165.243V140.455L8.96308 148.302V229.432H9.05304L8.96308 229.522L16.6235 237.183C16.5889 237.418 16.5682 237.653 16.5682 237.896C16.5682 240.657 18.8033 242.892 21.5644 242.892C24.3255 242.892 26.5606 240.657 26.5606 237.896C26.5606 235.135 24.3255 232.899 21.5644 232.899C20.6786 232.899 19.8482 233.135 19.1286 233.536L13.3158 227.723V146.538L-16.3641 116.83V-2H-20.7168V118.636L-12.7588 126.594H-12.7519ZM-11.6101 143.202C-12.1637 143.756 -13.1256 143.756 -13.6792 143.202C-14.2466 142.635 -14.2466 141.701 -13.6792 141.133C-13.4024 140.856 -13.0356 140.704 -12.6412 140.704C-12.2467 140.704 -11.88 140.856 -11.6032 141.133C-11.0357 141.708 -11.0357 142.635 -11.6032 143.202H-11.6101ZM-7.1536 147.659C-7.7072 148.212 -8.66908 148.212 -9.22268 147.659C-9.79012 147.091 -9.79012 146.157 -9.22268 145.59C-8.94588 145.313 -8.57912 145.161 -8.18468 145.161C-7.79024 145.161 -7.42348 145.313 -7.14668 145.59C-6.57924 146.164 -6.57924 147.091 -7.14668 147.659H-7.1536ZM-2.69712 152.115C-3.25072 152.669 -4.2126 152.669 -4.7662 152.115C-5.33364 151.548 -5.33364 150.614 -4.7662 150.046C-4.4894 149.769 -4.12264 149.617 -3.7282 149.617C-3.33376 149.617 -2.967 149.769 -2.6902 150.046C-2.12276 150.621 -2.12276 151.548 -2.6902 152.115H-2.69712ZM1.75937 168.481C1.20576 169.035 0.243881 169.035 -0.309719 168.481C-0.877159 167.907 -0.877159 166.979 -0.309719 166.412C-0.0329189 166.135 0.333841 165.983 0.728281 165.983C1.12272 165.983 1.48948 166.135 1.76628 166.412C2.33372 166.979 2.33372 167.914 1.76628 168.481H1.75937Z" fill="white" fill-opacity="0.5"/>
<path d="M63.2508 50.509H52.7255C52.7255 50.509 52.6909 50.5159 52.6701 50.5228C52.3034 48.4814 50.518 46.9313 48.3728 46.9313C45.9646 46.9313 43.9994 48.8897 43.9994 51.3048C43.9994 53.7198 45.9577 55.6782 48.3728 55.6782C50.518 55.6782 52.3034 54.1281 52.6701 52.0867C52.6909 52.0867 52.7047 52.1006 52.7255 52.1006H63.2508V58.5984H40.8162C40.8162 58.5984 40.8023 58.5984 40.7954 58.5984C40.6985 58.5984 40.6086 58.6192 40.5186 58.6538C40.4286 58.6884 40.3525 58.7438 40.2833 58.813C40.2833 58.813 40.2695 58.8199 40.2626 58.8268L33.7093 65.38C33.0035 64.8956 32.1523 64.605 31.232 64.605C28.8238 64.605 26.8654 66.5634 26.8654 68.9784C26.8654 71.3935 28.8238 73.3519 31.232 73.3519C33.6401 73.3519 35.6054 71.3935 35.6054 68.9784C35.6054 68.0581 35.3217 67.2069 34.8304 66.5011L41.1483 60.1831H63.2577V66.0028H53.978C53.978 66.0028 53.9642 66.0028 53.9572 66.0028C53.8604 66.0028 53.7704 66.0236 53.6804 66.0582C53.5905 66.0928 53.5144 66.1482 53.4452 66.2174C53.4452 66.2174 53.4313 66.2243 53.4244 66.2312L46.8712 72.7844C46.1653 72.3 45.3142 72.0094 44.3938 72.0094C41.9856 72.0094 40.0204 73.9678 40.0204 76.3828C40.0204 78.7979 41.9787 80.7563 44.3938 80.7563C46.8089 80.7563 48.7672 78.7979 48.7672 76.3828C48.7672 75.4625 48.4835 74.6113 47.9922 73.9055L54.3102 67.5875H63.2646V126.497L54.0818 135.68H19.6617V139.784C19.634 139.86 19.6133 139.943 19.6133 140.026V147.735C19.6133 147.839 19.634 147.943 19.6756 148.039C19.7102 148.122 19.7586 148.192 19.814 148.254C19.8278 148.268 19.8278 148.282 19.8416 148.295L22.575 151.029V176.896C22.575 177 22.5958 177.103 22.6373 177.2C22.665 177.263 22.7134 177.318 22.755 177.373C22.7757 177.401 22.7826 177.429 22.8103 177.456L27.1768 181.823V189.331C25.1424 189.705 23.5992 191.483 23.5992 193.628C23.5992 196.037 25.5576 198.002 27.9726 198.002C30.3877 198.002 32.3392 196.043 32.3392 193.628C32.3392 191.49 30.796 189.705 28.7615 189.331V181.498C28.7615 181.394 28.7408 181.29 28.6992 181.193C28.6716 181.124 28.6231 181.076 28.5816 181.02C28.5608 180.992 28.5539 180.965 28.5262 180.937L24.1597 176.571V150.704C24.1597 150.6 24.139 150.496 24.0974 150.399C24.0628 150.316 24.0144 150.247 23.9521 150.185C23.9383 150.171 23.9383 150.157 23.9244 150.143L21.191 147.41V140.026H25.2392V147.735C25.2392 147.839 25.26 147.943 25.3015 148.039C25.3361 148.122 25.3846 148.192 25.4399 148.254C25.4538 148.268 25.4538 148.282 25.4676 148.295L28.201 151.029V176.896C28.201 177 28.2218 177.103 28.2633 177.2C28.291 177.263 28.3394 177.318 28.3809 177.373C28.4017 177.401 28.4086 177.429 28.4363 177.456L32.8028 181.823V203.96C30.7683 204.334 29.2252 206.112 29.2252 208.257C29.2252 210.665 31.1835 212.631 33.5986 212.631C36.0137 212.631 37.972 210.672 37.972 208.257C37.972 206.119 36.4289 204.334 34.3944 203.96V181.498C34.3944 181.394 34.3736 181.29 34.3321 181.193C34.3044 181.124 34.256 181.076 34.2145 181.02C34.1937 180.992 34.1868 180.965 34.1591 180.937L29.7926 176.571V150.704C29.7926 150.6 29.7718 150.496 29.7303 150.399C29.7303 150.399 29.7303 150.399 29.7303 150.392C29.7303 150.378 29.7165 150.371 29.7096 150.365C29.675 150.282 29.6265 150.205 29.5642 150.143L26.8308 147.41V140.026H30.8237V147.735C30.8237 147.839 30.8444 147.943 30.886 148.039C30.9206 148.122 30.969 148.192 31.0244 148.254C31.0382 148.268 31.0382 148.282 31.052 148.295L33.7854 151.029V176.896C33.7854 177 33.8062 177.103 33.8477 177.2C33.8754 177.263 33.9238 177.318 33.9654 177.373C33.9861 177.401 33.993 177.429 34.0207 177.456L38.3872 181.823V220.533C36.3528 220.907 34.8096 222.685 34.8096 224.831C34.8096 227.239 36.768 229.204 39.183 229.204C41.5981 229.204 43.5565 227.246 43.5565 224.831C43.5565 222.692 42.0133 220.907 39.9788 220.533V181.498C39.9788 181.394 39.9581 181.29 39.9166 181.193C39.8889 181.124 39.8404 181.076 39.7989 181.02C39.7782 180.992 39.7712 180.965 39.7436 180.937L35.377 176.571V150.704C35.377 150.6 35.3563 150.496 35.3148 150.399C35.2871 150.344 35.2456 150.295 35.211 150.24C35.1902 150.205 35.1764 150.171 35.1487 150.143L32.4153 147.41V140.026H36.4081V147.735C36.4081 147.839 36.4289 147.943 36.4704 148.039C36.505 148.122 36.5534 148.192 36.6088 148.254C36.6226 148.268 36.6226 148.282 36.6365 148.295L39.3699 151.029V176.896C39.3699 177 39.3906 177.103 39.4322 177.2C39.4598 177.27 39.5083 177.325 39.5498 177.38C39.5706 177.408 39.5775 177.436 39.5982 177.456L43.9648 181.823V239.217L26.5402 256.642C25.8344 256.158 24.9832 255.867 24.0628 255.867C21.6547 255.867 19.6894 257.825 19.6894 260.24C19.6894 262.655 21.6478 264.614 24.0628 264.614C26.4779 264.614 28.4363 262.655 28.4363 260.24C28.4363 259.32 28.1526 258.469 27.6612 257.763L45.3211 240.103L45.5494 239.875V181.172L40.9546 176.578V150.711C40.9546 150.607 40.9338 150.503 40.8923 150.406C40.8577 150.323 40.8092 150.254 40.747 150.192C40.7331 150.178 40.7331 150.164 40.7193 150.15L37.9859 147.417V140.033H41.9787V147.742C41.9787 147.846 41.9995 147.949 42.041 148.046C42.0756 148.129 42.124 148.199 42.1794 148.261C42.1932 148.275 42.1932 148.289 42.2071 148.302L44.9405 151.036V176.903C44.9405 177.007 44.9612 177.11 45.0028 177.207C45.0304 177.27 45.0789 177.325 45.1204 177.38C45.1412 177.408 45.1481 177.436 45.1758 177.463L49.5423 181.83V245.784L26.5471 268.78C25.8413 268.295 24.9901 268.005 24.0698 268.005C21.6616 268.005 19.6963 269.963 19.6963 272.378C19.6963 274.793 21.6547 276.751 24.0698 276.751C26.4848 276.751 28.4432 274.793 28.4432 272.378C28.4432 271.458 28.1595 270.606 27.6682 269.901L50.8986 246.67L51.127 246.442V181.505C51.127 181.401 51.1062 181.297 51.0647 181.2C51.037 181.131 50.9886 181.082 50.947 181.027C50.9263 180.999 50.9194 180.972 50.8917 180.944L46.5252 176.578V150.711C46.5252 150.607 46.5044 150.503 46.4629 150.406C46.4283 150.323 46.3798 150.254 46.3176 150.192C46.3037 150.178 46.3037 150.164 46.2899 150.15L43.5565 147.417V140.033H47.5493V147.742C47.5493 147.846 47.5701 147.949 47.6116 148.046C47.6462 148.129 47.6946 148.199 47.75 148.261C47.7638 148.275 47.7638 148.289 47.7777 148.302L50.5111 151.036V176.903C50.5111 177.007 50.5318 177.11 50.5734 177.207C50.601 177.27 50.6495 177.325 50.691 177.38C50.7118 177.408 50.7187 177.436 50.7464 177.463L55.1129 181.83V252.352L26.5471 280.917C25.8413 280.433 24.9901 280.142 24.0698 280.142C21.6616 280.142 19.6963 282.101 19.6963 284.516C19.6963 286.931 21.6547 288.889 24.0698 288.889C26.4848 288.889 28.4432 286.931 28.4432 284.516C28.4432 283.595 28.1595 282.744 27.6682 282.038L56.4692 253.237L56.6976 253.009V181.505C56.6976 181.401 56.6768 181.297 56.6353 181.2C56.6076 181.131 56.5592 181.082 56.5176 181.027C56.4969 180.999 56.49 180.972 56.4623 180.944L52.0958 176.578V150.711C52.0958 150.607 52.075 150.503 52.0335 150.406C51.9989 150.323 51.9504 150.254 51.8882 150.192C51.8743 150.178 51.8743 150.164 51.8605 150.15L49.1271 147.417V140.033H55.9018L67.6312 128.304L67.5412 128.214H67.6312V47.0836L116.673 -2H110.535L63.2577 45.2982V50.509H63.2508ZM48.3728 54.0866C46.8366 54.0866 45.584 52.8341 45.584 51.2978C45.584 49.7616 46.8366 48.5091 48.3728 48.5091C49.909 48.5091 51.1616 49.7616 51.1616 51.2978C51.1616 52.8341 49.909 54.0866 48.3728 54.0866ZM31.225 71.7534C29.6888 71.7534 28.4363 70.5008 28.4363 68.9646C28.4363 67.4284 29.6888 66.1758 31.225 66.1758C32.7613 66.1758 34.0138 67.4284 34.0138 68.9646C34.0138 70.5008 32.7613 71.7534 31.225 71.7534ZM44.38 79.1578C42.8437 79.1578 41.5912 77.9052 41.5912 76.369C41.5912 74.8328 42.8437 73.5802 44.38 73.5802C45.9162 73.5802 47.1687 74.8328 47.1687 76.369C47.1687 77.9052 45.9162 79.1578 44.38 79.1578ZM36.3735 208.25C36.3735 209.787 35.121 211.039 33.5848 211.039C32.0485 211.039 30.796 209.787 30.796 208.25C30.796 206.714 32.0485 205.462 33.5848 205.462C35.121 205.462 36.3735 206.714 36.3735 208.25ZM41.9441 224.824C41.9441 226.36 40.6916 227.613 39.1554 227.613C37.6191 227.613 36.3666 226.36 36.3666 224.824C36.3666 223.288 37.6191 222.035 39.1554 222.035C40.6916 222.035 41.9441 223.288 41.9441 224.824ZM24.0352 263.022C22.4989 263.022 21.2464 261.77 21.2464 260.233C21.2464 258.697 22.4989 257.445 24.0352 257.445C25.5714 257.445 26.8239 258.697 26.8239 260.233C26.8239 261.77 25.5714 263.022 24.0352 263.022ZM24.0352 275.16C22.4989 275.16 21.2464 273.907 21.2464 272.371C21.2464 270.835 22.4989 269.582 24.0352 269.582C25.5714 269.582 26.8239 270.835 26.8239 272.371C26.8239 273.907 25.5714 275.16 24.0352 275.16ZM24.0352 287.298C22.4989 287.298 21.2464 286.045 21.2464 284.509C21.2464 282.973 22.4989 281.72 24.0352 281.72C25.5714 281.72 26.8239 282.973 26.8239 284.509C26.8239 286.045 25.5714 287.298 24.0352 287.298ZM30.7406 193.621C30.7406 195.158 29.4881 196.41 27.9519 196.41C26.4156 196.41 25.1631 195.158 25.1631 193.621C25.1631 192.085 26.4156 190.833 27.9519 190.833C29.4881 190.833 30.7406 192.085 30.7406 193.621Z" fill="white" fill-opacity="0.5"/>
<path d="M170.967 58.9512H163.162C160.116 58.9512 157.646 61.4204 157.646 64.4664V72.2722C157.646 75.3182 160.116 77.7874 163.162 77.7874H170.967C174.013 77.7874 176.483 75.3182 176.483 72.2722V64.4664C176.483 61.4204 174.013 58.9512 170.967 58.9512Z" fill="#1AC934"/>
<path d="M152.601 97.0115C153.715 97.0115 154.621 96.105 154.621 94.9909C154.621 93.8767 153.715 92.9702 152.601 92.9702C151.487 92.9702 150.58 93.8767 150.58 94.9909C150.58 96.105 151.487 97.0115 152.601 97.0115Z" fill="#1AC934"/>
<path d="M142.235 72.6666C142.235 71.5525 141.328 70.646 140.214 70.646C139.1 70.646 138.193 71.5525 138.193 72.6666C138.193 73.7808 139.1 74.6873 140.214 74.6873C141.328 74.6873 142.235 73.7808 142.235 72.6666Z" fill="#1AC934"/>
<path d="M69.8306 18.9189H8.29102V19.7078H69.8306C70.0312 21.7146 71.7267 23.2855 73.7819 23.2855C75.9755 23.2855 77.754 21.5001 77.754 19.3134C77.754 17.1267 75.9686 15.3413 73.7819 15.3413C71.7267 15.3413 70.0243 16.9121 69.8306 18.9189ZM76.972 19.3134C76.972 21.0711 75.5465 22.4966 73.7888 22.4966C72.0311 22.4966 70.6056 21.0711 70.6056 19.3134C70.6056 17.5557 72.0311 16.1302 73.7888 16.1302C75.5465 16.1302 76.972 17.5557 76.972 19.3134Z" fill="white" fill-opacity="0.5"/>
<path d="M71.7617 19.3204C71.7617 20.4346 72.6682 21.3411 73.7824 21.3411C74.8965 21.3411 75.803 20.4346 75.803 19.3204C75.803 18.2063 74.8965 17.2998 73.7824 17.2998C72.6682 17.2998 71.7617 18.2063 71.7617 19.3204Z" fill="#1AC934"/>
<path d="M62.7099 35.4163C64.9035 35.4163 66.682 33.631 66.682 31.4442C66.682 29.2575 64.8966 27.4722 62.7099 27.4722C60.6547 27.4722 58.9523 29.043 58.7586 31.0498H8.29102V31.8387H58.7586C58.9593 33.8455 60.6547 35.4163 62.7099 35.4163ZM62.7099 28.2541C64.4676 28.2541 65.8931 29.6796 65.8931 31.4373C65.8931 33.195 64.4676 34.6205 62.7099 34.6205C60.9522 34.6205 59.5267 33.195 59.5267 31.4373C59.5267 29.6796 60.9522 28.2541 62.7099 28.2541Z" fill="white" fill-opacity="0.5"/>
<path d="M62.7101 33.4651C63.8242 33.4651 64.7307 32.5586 64.7307 31.4445C64.7307 30.3303 63.8242 29.4238 62.7101 29.4238C61.596 29.4238 60.6895 30.3303 60.6895 31.4445C60.6895 32.5586 61.596 33.4651 62.7101 33.4651Z" fill="#1AC934"/>
<path d="M198.917 83.6904C197.803 83.6904 196.896 84.5969 196.896 85.7111C196.896 86.8252 197.803 87.7317 198.917 87.7317C200.031 87.7317 200.938 86.8252 200.938 85.7111C200.938 84.5969 200.031 83.6904 198.917 83.6904Z" fill="#1AC934"/>
<path d="M198.917 100.118C200.033 100.118 200.938 99.2138 200.938 98.0978C200.938 96.9818 200.033 96.0771 198.917 96.0771C197.801 96.0771 196.896 96.9818 196.896 98.0978C196.896 99.2138 197.801 100.118 198.917 100.118Z" fill="#1AC934"/>
<path d="M186.669 133.3C185.555 133.3 184.648 134.206 184.648 135.32C184.648 136.435 185.555 137.341 186.669 137.341C187.783 137.341 188.69 136.435 188.69 135.32C188.69 134.206 187.783 133.3 186.669 133.3Z" fill="#1AC934"/>
<path d="M208.107 106.111C206.992 106.111 206.086 107.018 206.086 108.132C206.086 109.246 206.992 110.153 208.107 110.153C209.221 110.153 210.127 109.246 210.127 108.132C210.127 107.018 209.221 106.111 208.107 106.111Z" fill="#1AC934"/>
<path d="M192.017 116.152C190.903 116.152 189.996 117.058 189.996 118.172C189.996 119.287 190.903 120.193 192.017 120.193C193.131 120.193 194.037 119.287 194.037 118.172C194.037 117.058 193.131 116.152 192.017 116.152Z" fill="#1AC934"/>
<path d="M201.021 140.268C202.137 140.268 203.041 139.364 203.041 138.248C203.041 137.132 202.137 136.227 201.021 136.227C199.905 136.227 199 137.132 199 138.248C199 139.364 199.905 140.268 201.021 140.268Z" fill="#1AC934"/>
<path d="M213.767 146.261C212.653 146.261 211.746 147.168 211.746 148.282C211.746 149.396 212.653 150.303 213.767 150.303C214.881 150.303 215.787 149.396 215.787 148.282C215.787 147.168 214.881 146.261 213.767 146.261Z" fill="#1AC934"/>
<path d="M235.393 257.825C235.393 258.939 236.299 259.846 237.413 259.846C238.527 259.846 239.434 258.939 239.434 257.825C239.434 256.711 238.527 255.805 237.413 255.805C236.299 255.805 235.393 256.711 235.393 257.825Z" fill="#1AC934"/>
<path d="M240.554 250.317C240.554 252.725 242.512 254.691 244.927 254.691C247.342 254.691 249.301 252.732 249.301 250.317C249.301 248.179 247.758 246.393 245.723 246.02V71.6704C245.723 71.4628 245.64 71.2621 245.495 71.1098L242.263 67.8782C242.111 67.726 241.903 67.6498 241.703 67.6498H180.855V59.8787C180.855 56.9654 178.482 54.5918 175.568 54.5918H158.587C155.673 54.5918 153.3 56.9654 153.3 59.8787V76.8604C153.3 79.7737 155.673 82.1472 158.587 82.1472H165.223V110.678H145.895V102.264L150.096 98.0632C150.781 98.6238 151.66 98.9628 152.608 98.9628C154.801 98.9628 156.58 97.1775 156.58 94.9908C156.58 92.804 154.794 91.0187 152.608 91.0187C150.421 91.0187 148.636 92.804 148.636 94.9908C148.636 95.9457 148.975 96.8176 149.535 97.5027L145.099 101.938V110.678H140.615V76.6182C142.622 76.4175 144.193 74.7221 144.193 72.6599C144.193 70.4663 142.408 68.6878 140.221 68.6878C138.034 68.6878 136.249 70.4732 136.249 72.6599C136.249 74.7152 137.82 76.4175 139.826 76.6182V110.678H117.053L106.652 121.072V127.224V151.41C105.046 152.24 103.953 153.915 103.953 155.845C103.953 158.606 106.188 160.841 108.949 160.841C111.71 160.841 113.946 158.606 113.946 155.845C113.946 153.818 112.735 152.074 111.005 151.292V122.871L118.859 115.024H165.223V162.502L172.385 169.671H206.487C207.269 171.408 209.013 172.619 211.04 172.619C213.801 172.619 216.036 170.384 216.036 167.623C216.036 164.862 213.801 162.627 211.04 162.627C209.109 162.627 207.442 163.72 206.604 165.326H174.184L169.569 160.71V82.1542H175.561C178.475 82.1542 180.848 79.7806 180.848 76.8673V76.7427H233.862L236.63 79.5107V92.4373H206.196L201.996 88.2368C202.556 87.5518 202.895 86.6729 202.895 85.718C202.895 83.5243 201.11 81.7459 198.923 81.7459C196.736 81.7459 194.951 83.5312 194.951 85.718C194.951 87.9047 196.736 89.69 198.923 89.69C199.878 89.69 200.75 89.351 201.435 88.7904L205.871 93.2262H236.63V97.7103H202.875C202.674 95.7035 200.978 94.1327 198.916 94.1327C196.723 94.1327 194.944 95.918 194.944 98.1048C194.944 100.291 196.73 102.077 198.916 102.077C200.972 102.077 202.674 100.506 202.875 98.4992H236.63V107.744H212.064C211.864 105.738 210.168 104.167 208.113 104.167C205.919 104.167 204.141 105.952 204.141 108.139C204.141 110.325 205.926 112.111 208.113 112.111C210.168 112.111 211.871 110.54 212.064 108.533H236.63V117.778H195.975C195.775 115.772 194.079 114.201 192.017 114.201C189.823 114.201 188.045 115.986 188.045 118.173C188.045 120.359 189.83 122.145 192.017 122.145C194.072 122.145 195.775 120.574 195.975 118.567H236.63V127.812H193.622L189.187 132.248C188.502 131.688 187.623 131.348 186.675 131.348C184.481 131.348 182.703 133.134 182.703 135.321C182.703 137.507 184.488 139.293 186.675 139.293C188.862 139.293 190.647 137.507 190.647 135.321C190.647 134.366 190.308 133.494 189.747 132.809L193.948 128.608H236.63V137.853H204.978C204.778 135.846 203.082 134.276 201.027 134.276C198.833 134.276 197.055 136.061 197.055 138.248C197.055 140.434 198.84 142.22 201.027 142.22C203.082 142.22 204.784 140.649 204.978 138.642H236.63V147.887H217.725C217.524 145.88 215.829 144.31 213.767 144.31C211.573 144.31 209.795 146.095 209.795 148.282C209.795 150.468 211.58 152.254 213.767 152.254C215.822 152.254 217.524 150.683 217.725 148.676H236.63V253.528C234.596 253.902 233.053 255.68 233.053 257.825C233.053 260.233 235.011 262.192 237.426 262.192C239.841 262.192 241.8 260.233 241.8 257.825C241.8 255.687 240.256 253.902 238.222 253.528V79.1786C238.222 78.971 238.139 78.7703 237.994 78.618L234.762 75.3864C234.61 75.2342 234.402 75.158 234.201 75.158H180.862V69.2345H241.384L244.152 72.0025V246.027C242.118 246.4 240.575 248.179 240.575 250.324L240.554 250.317ZM152.601 91.8006C154.358 91.8006 155.784 93.2262 155.784 94.9838C155.784 96.7415 154.358 98.167 152.601 98.167C150.843 98.167 149.418 96.7415 149.418 94.9838C149.418 93.2262 150.843 91.8006 152.601 91.8006ZM137.031 72.6599C137.031 70.9022 138.456 69.4767 140.214 69.4767C141.972 69.4767 143.397 70.9022 143.397 72.6599C143.397 74.4176 141.972 75.8431 140.214 75.8431C138.456 75.8431 137.031 74.4176 137.031 72.6599ZM179.263 76.8534C179.263 78.8948 177.603 80.5626 175.554 80.5626H158.573C156.531 80.5626 154.864 78.9018 154.864 76.8534V59.8718C154.864 57.8304 156.524 56.1626 158.573 56.1626H175.554C177.596 56.1626 179.263 57.8234 179.263 59.8718V76.8534ZM198.916 88.8942C197.159 88.8942 195.733 87.4687 195.733 85.711C195.733 83.9534 197.159 82.5278 198.916 82.5278C200.674 82.5278 202.099 83.9534 202.099 85.711C202.099 87.4687 200.674 88.8942 198.916 88.8942ZM198.916 101.281C197.159 101.281 195.733 99.8555 195.733 98.0978C195.733 96.3402 197.159 94.9146 198.916 94.9146C200.674 94.9146 202.099 96.3402 202.099 98.0978C202.099 99.8555 200.674 101.281 198.916 101.281ZM208.106 111.315C206.348 111.315 204.923 109.89 204.923 108.132C204.923 106.374 206.348 104.949 208.106 104.949C209.864 104.949 211.289 106.374 211.289 108.132C211.289 109.89 209.864 111.315 208.106 111.315ZM192.017 121.349C190.259 121.349 188.834 119.924 188.834 118.166C188.834 116.408 190.259 114.983 192.017 114.983C193.775 114.983 195.2 116.408 195.2 118.166C195.2 119.924 193.775 121.349 192.017 121.349ZM186.668 138.497C184.91 138.497 183.485 137.071 183.485 135.314C183.485 133.556 184.91 132.13 186.668 132.13C188.426 132.13 189.851 133.556 189.851 135.314C189.851 137.071 188.426 138.497 186.668 138.497ZM201.02 141.424C199.262 141.424 197.837 139.998 197.837 138.241C197.837 136.483 199.262 135.058 201.02 135.058C202.778 135.058 204.203 136.483 204.203 138.241C204.203 139.998 202.778 141.424 201.02 141.424ZM213.767 151.458C212.009 151.458 210.583 150.032 210.583 148.275C210.583 146.517 212.009 145.092 213.767 145.092C215.524 145.092 216.95 146.517 216.95 148.275C216.95 150.032 215.524 151.458 213.767 151.458ZM240.208 257.811C240.208 259.348 238.955 260.6 237.419 260.6C235.883 260.6 234.63 259.348 234.63 257.811C234.63 256.275 235.883 255.023 237.419 255.023C238.955 255.023 240.208 256.275 240.208 257.811ZM247.716 250.303C247.716 251.839 246.464 253.092 244.927 253.092C243.391 253.092 242.139 251.839 242.139 250.303C242.139 248.767 243.391 247.514 244.927 247.514C246.464 247.514 247.716 248.767 247.716 250.303Z" fill="white" fill-opacity="0.5"/>
<path d="M242.9 250.317C242.9 251.431 243.807 252.338 244.921 252.338C246.035 252.338 246.942 251.431 246.942 250.317C246.942 249.203 246.035 248.296 244.921 248.296C243.807 248.296 242.9 249.203 242.9 250.317Z" fill="#1AC934"/>
<path d="M250.001 60.1416H180.98V61.7263H250.001V60.1416Z" fill="white" fill-opacity="0.5"/>
<path d="M44.0402 314.099C45.1561 314.099 46.0608 313.194 46.0608 312.078C46.0608 310.962 45.1561 310.058 44.0402 310.058C42.9242 310.058 42.0195 310.962 42.0195 312.078C42.0195 313.194 42.9242 314.099 44.0402 314.099Z" fill="#1AC934"/>
<path d="M-12.6284 312.867H39.7421C40.1158 314.901 41.8942 316.445 44.0394 316.445C46.4476 316.445 48.4129 314.486 48.4129 312.071C48.4129 309.656 46.4545 307.698 44.0394 307.698C41.9011 307.698 40.1158 309.241 39.7421 311.275H-12.9537C-13.1613 311.275 -13.362 311.358 -13.5142 311.504L-16.7458 314.735C-16.8981 314.888 -16.9811 315.095 -16.9742 315.296V343.979H-15.3895V315.621L-12.6215 312.853L-12.6284 312.867ZM44.0325 309.289C45.5688 309.289 46.8213 310.542 46.8213 312.078C46.8213 313.614 45.5688 314.867 44.0325 314.867C42.4963 314.867 41.2438 313.614 41.2438 312.078C41.2438 310.542 42.4963 309.289 44.0325 309.289Z" fill="white" fill-opacity="0.5"/>
<path d="M3.12891 117.045C3.12891 119.453 5.08727 121.418 7.50235 121.418C9.91743 121.418 11.8689 119.46 11.8689 117.045C11.8689 114.906 10.3257 113.121 8.29123 112.747V80.4795H13.156C13.9864 80.4795 14.6576 79.8082 14.6576 78.9778C14.6576 78.1474 13.9864 77.4762 13.156 77.4762H8.29123V68.6809H13.156C13.9864 68.6809 14.6576 68.0096 14.6576 67.1792C14.6576 66.3488 13.9864 65.6776 13.156 65.6776H8.29123V56.8823H13.156C13.9864 56.8823 14.6576 56.211 14.6576 55.3806C14.6576 54.5502 13.9864 53.879 13.156 53.879H8.29123V45.0837H13.156C13.848 45.0837 14.4223 44.6131 14.6023 43.9765H27.6465C27.8471 45.9833 29.5425 47.5541 31.6047 47.5541C33.7983 47.5541 35.5768 45.7688 35.5768 43.582C35.5768 41.3953 33.7914 39.61 31.6047 39.61C29.5495 39.61 27.8471 41.1808 27.6465 43.1876H14.6023C14.4293 42.551 13.848 42.0804 13.1629 42.0804H8.29815V-2H6.71346V112.754C4.67898 113.128 3.13582 114.913 3.13582 117.052L3.12891 117.045ZM31.5978 40.4058C33.3555 40.4058 34.781 41.8313 34.781 43.589C34.781 45.3466 33.3555 46.7722 31.5978 46.7722C29.8401 46.7722 28.4146 45.3466 28.4146 43.589C28.4146 41.8313 29.8401 40.4058 31.5978 40.4058ZM10.2911 117.045C10.2911 118.581 9.03859 119.834 7.50235 119.834C5.96611 119.834 4.71358 118.581 4.71358 117.045C4.71358 115.509 5.96611 114.256 7.50235 114.256C9.03859 114.256 10.2911 115.509 10.2911 117.045Z" fill="white" fill-opacity="0.5"/>
<path d="M7.49525 119.065C8.61122 119.065 9.51589 118.161 9.51589 117.045C9.51589 115.929 8.61122 115.024 7.49525 115.024C6.37928 115.024 5.47461 115.929 5.47461 117.045C5.47461 118.161 6.37928 119.065 7.49525 119.065Z" fill="#1AC934"/>
<path d="M-0.0132737 113.91C2.39489 113.91 4.36016 111.952 4.36016 109.537C4.36016 107.398 2.817 105.62 0.782522 105.239C1.01088 68.847 1.01088 33.7557 0.782522 -2.00684H-0.802153C-0.573793 33.7557 -0.566873 68.847 -0.802153 105.239C-2.83663 105.613 -4.38672 107.391 -4.38672 109.537C-4.38672 111.945 -2.42835 113.91 -0.0132737 113.91ZM-0.0132737 106.748C1.52297 106.748 2.77549 108 2.77549 109.537C2.77549 111.073 1.52297 112.325 -0.0132737 112.325C-1.54951 112.325 -2.80204 111.073 -2.80204 109.537C-2.80204 108 -1.54951 106.748 -0.0132737 106.748Z" fill="white" fill-opacity="0.5"/>
<path d="M-0.0125539 111.564C1.10157 111.564 2.00808 110.658 2.00808 109.544C2.00808 108.429 1.10157 107.523 -0.0125539 107.523C-1.12667 107.523 -2.0332 108.429 -2.0332 109.544C-2.0332 110.658 -1.12667 111.564 -0.0125539 111.564Z" fill="#1AC934"/>
<path d="M4.70619 293.823C5.82215 293.823 6.72682 292.918 6.72682 291.802C6.72682 290.686 5.82215 289.782 4.70619 289.782C3.59022 289.782 2.68555 290.686 2.68555 291.802C2.68555 292.918 3.59022 293.823 4.70619 293.823Z" fill="#1AC934"/>
<path d="M-27.8871 301.954C-27.8871 301.954 -27.8387 301.982 -27.8179 302.003C-27.7626 302.051 -27.7003 302.1 -27.6311 302.127C-27.5342 302.169 -27.4304 302.19 -27.3266 302.19H-4.88506C-4.78126 302.19 -4.67746 302.169 -4.58057 302.127C-4.51138 302.1 -4.4491 302.051 -4.38682 302.003C-4.36606 301.989 -4.33837 301.975 -4.31761 301.961L2.23563 295.408C2.94147 295.892 3.79262 296.183 4.71297 296.183C7.12114 296.183 9.08642 294.225 9.08642 291.81C9.08642 289.395 7.12806 287.443 4.71297 287.443C2.2979 287.443 0.339546 289.401 0.339546 291.81C0.339546 292.73 0.62326 293.581 1.11458 294.287L-5.2103 300.612H-26.9945L-37.7343 289.872C-37.8035 289.803 -37.8935 289.741 -37.9903 289.706C-38.0872 289.664 -38.191 289.644 -38.2879 289.644H-38.3017C-52.5085 289.907 -72.0783 289.907 -86.2366 289.657V277.326H-36.5925C-36.3918 279.333 -34.6964 280.904 -32.6343 280.904C-30.4406 280.904 -28.6622 279.118 -28.6622 276.932C-28.6622 274.745 -30.4475 272.96 -32.6343 272.96C-34.6895 272.96 -36.3918 274.53 -36.5925 276.537H-86.2573V265.202H-36.6063C-36.4057 267.209 -34.7103 268.78 -32.6481 268.78C-30.4545 268.78 -28.676 266.994 -28.676 264.808C-28.676 262.621 -30.4614 260.836 -32.6481 260.836C-34.7033 260.836 -36.4057 262.406 -36.6063 264.413H-86.2643V253.078H-36.6063C-36.4057 255.085 -34.7103 256.656 -32.6481 256.656C-30.4545 256.656 -28.676 254.871 -28.676 252.684C-28.676 250.497 -30.4614 248.712 -32.6481 248.712C-34.7033 248.712 -36.4057 250.283 -36.6063 252.289H-86.2712V240.955H-36.6063C-36.4057 242.961 -34.7103 244.532 -32.6481 244.532C-30.4545 244.532 -28.676 242.747 -28.676 240.56C-28.676 238.373 -30.4614 236.588 -32.6481 236.588C-34.7033 236.588 -36.4057 238.159 -36.6063 240.166H-86.2781V228.831H-36.6063C-36.4057 230.837 -34.7103 232.408 -32.6481 232.408C-30.4545 232.408 -28.676 230.623 -28.676 228.436C-28.676 226.25 -30.4614 224.464 -32.6481 224.464C-34.7033 224.464 -36.4057 226.035 -36.6063 228.042H-86.285L-86.3335 150.759C-63.4629 150.725 -15.5419 150.759 -11.1061 150.759L-8.33813 153.527V267.541C-10.3726 267.915 -11.9158 269.693 -11.9158 271.838C-11.9158 274.247 -9.95742 276.212 -7.54234 276.212C-5.12726 276.212 -3.1689 274.254 -3.1689 271.838C-3.1689 269.7 -4.71206 267.915 -6.74654 267.541V153.202C-6.74654 152.994 -6.82958 152.794 -6.9749 152.641L-10.2065 149.41C-10.3519 149.265 -10.5525 149.181 -10.7671 149.175C-11.293 149.175 -63.6013 149.14 -87.1154 149.175C-87.5514 149.175 -87.9043 149.527 -87.9043 149.963L-87.8213 290.446C-87.8213 290.875 -87.4753 291.228 -87.0462 291.235C-79.9325 291.367 -71.3586 291.436 -62.757 291.436C-54.1555 291.436 -45.7892 291.374 -38.6131 291.242L-27.8733 301.982L-27.8871 301.954ZM-32.655 273.735C-30.8973 273.735 -29.4718 275.16 -29.4718 276.918C-29.4718 278.675 -30.8973 280.101 -32.655 280.101C-34.4127 280.101 -35.8382 278.675 -35.8382 276.918C-35.8382 275.16 -34.4127 273.735 -32.655 273.735ZM-32.655 261.611C-30.8973 261.611 -29.4718 263.036 -29.4718 264.794C-29.4718 266.552 -30.8973 267.977 -32.655 267.977C-34.4127 267.977 -35.8382 266.552 -35.8382 264.794C-35.8382 263.036 -34.4127 261.611 -32.655 261.611ZM-32.655 249.487C-30.8973 249.487 -29.4718 250.912 -29.4718 252.67C-29.4718 254.428 -30.8973 255.853 -32.655 255.853C-34.4127 255.853 -35.8382 254.428 -35.8382 252.67C-35.8382 250.912 -34.4127 249.487 -32.655 249.487ZM-32.655 237.363C-30.8973 237.363 -29.4718 238.789 -29.4718 240.546C-29.4718 242.304 -30.8973 243.729 -32.655 243.729C-34.4127 243.729 -35.8382 242.304 -35.8382 240.546C-35.8382 238.789 -34.4127 237.363 -32.655 237.363ZM-32.655 225.232C-30.8973 225.232 -29.4718 226.658 -29.4718 228.415C-29.4718 230.173 -30.8973 231.599 -32.655 231.599C-34.4127 231.599 -35.8382 230.173 -35.8382 228.415C-35.8382 226.658 -34.4127 225.232 -32.655 225.232ZM-4.76049 271.818C-4.76049 273.354 -6.01302 274.606 -7.54926 274.606C-9.08549 274.606 -10.338 273.354 -10.338 271.818C-10.338 270.281 -9.08549 269.029 -7.54926 269.029C-6.01302 269.029 -4.76049 270.281 -4.76049 271.818ZM4.69914 289.028C6.23538 289.028 7.4879 290.28 7.4879 291.816C7.4879 293.353 6.23538 294.605 4.69914 294.605C3.1629 294.605 1.91039 293.353 1.91039 291.816C1.91039 290.28 3.1629 289.028 4.69914 289.028Z" fill="white" fill-opacity="0.5"/>
<path d="M18.2553 112.284C17.0858 112.284 16.1309 113.239 16.1309 114.408C16.1309 115.578 17.0789 116.533 18.2553 116.533H23.0647V118.069C23.0647 120.345 24.9123 122.193 27.189 122.193H28.7045V127.003C28.7045 128.172 29.6525 129.127 30.8289 129.127C32.0053 129.127 32.9534 128.172 32.9534 127.003V122.193H34.2197V127.003C34.2197 128.172 35.1678 129.127 36.3442 129.127C37.5206 129.127 38.4686 128.172 38.4686 127.003V122.193H39.735V127.003C39.735 128.172 40.683 129.127 41.8594 129.127C43.0358 129.127 43.9839 128.172 43.9839 127.003V122.193H45.4993C47.776 122.193 49.6237 120.345 49.6237 118.069V116.533H54.4331C55.6025 116.533 56.5575 115.578 56.5575 114.408C56.5575 113.239 55.6095 112.284 54.4331 112.284H49.6237V111.017H54.4331C55.6025 111.017 56.5575 110.062 56.5575 108.893C56.5575 107.723 55.6095 106.768 54.4331 106.768H49.6237V105.502H54.4331C55.6025 105.502 56.5575 104.547 56.5575 103.378C56.5575 102.208 55.6095 101.253 54.4331 101.253H49.6237V99.9868H54.4331C55.6025 99.9868 56.5575 99.0319 56.5575 97.8624C56.5575 96.6929 55.6095 95.738 54.4331 95.738H49.6237V94.2017C49.6237 91.925 47.776 90.0774 45.4993 90.0774H43.9839V85.268C43.9839 84.0985 43.0358 83.1436 41.8594 83.1436C40.683 83.1436 39.735 84.0985 39.735 85.268V90.0774H38.4686V85.268C38.4686 84.0985 37.5206 83.1436 36.3442 83.1436C35.1678 83.1436 34.2197 84.0985 34.2197 85.268V90.0774H32.9534V85.268C32.9534 84.0985 32.0053 83.1436 30.8289 83.1436C29.6525 83.1436 28.7045 84.0985 28.7045 85.268V90.0774H27.189C24.9123 90.0774 23.0647 91.925 23.0647 94.2017V95.738H18.2553C17.0858 95.738 16.1309 96.6929 16.1309 97.8624C16.1309 99.0319 17.0789 99.9868 18.2553 99.9868H23.0647V101.253H18.2553C17.0858 101.253 16.1309 102.208 16.1309 103.378C16.1309 104.547 17.0789 105.502 18.2553 105.502H23.0647V106.768H18.2553C17.0858 106.768 16.1309 107.723 16.1309 108.893C16.1309 110.062 17.0789 111.017 18.2553 111.017H23.0647V112.284H18.2553ZM18.2553 114.948C17.9577 114.948 17.7155 114.706 17.7155 114.408C17.7155 114.111 17.9577 113.868 18.2553 113.868H23.0647V114.948H18.2553ZM31.3618 126.996C31.3618 127.293 31.1196 127.535 30.822 127.535C30.5245 127.535 30.2823 127.293 30.2823 126.996V122.186H31.3618V126.996ZM36.8701 126.996C36.8701 127.293 36.6279 127.535 36.3303 127.535C36.0328 127.535 35.7906 127.293 35.7906 126.996V122.186H36.8701V126.996ZM42.3784 126.996C42.3784 127.293 42.1362 127.535 41.8387 127.535C41.5411 127.535 41.2989 127.293 41.2989 126.996V122.186H42.3784V126.996ZM54.4054 113.868C54.7029 113.868 54.9451 114.111 54.9451 114.408C54.9451 114.706 54.7029 114.948 54.4054 114.948H49.596V113.868H54.4054ZM54.4054 108.36C54.7029 108.36 54.9451 108.602 54.9451 108.9C54.9451 109.197 54.7029 109.44 54.4054 109.44H49.596V108.36H54.4054ZM54.4054 102.852C54.7029 102.852 54.9451 103.094 54.9451 103.391C54.9451 103.689 54.7029 103.931 54.4054 103.931H49.596V102.852H54.4054ZM54.4054 97.3434C54.7029 97.3434 54.9451 97.5856 54.9451 97.8832C54.9451 98.1807 54.7029 98.4229 54.4054 98.4229H49.596V97.3434H54.4054ZM41.2989 85.2957C41.2989 84.9981 41.5411 84.7559 41.8387 84.7559C42.1362 84.7559 42.3784 84.9981 42.3784 85.2957V90.1051H41.2989V85.2957ZM35.7906 85.2957C35.7906 84.9981 36.0328 84.7559 36.3303 84.7559C36.6279 84.7559 36.8701 84.9981 36.8701 85.2957V90.1051H35.7906V85.2957ZM30.2823 85.2957C30.2823 84.9981 30.5245 84.7559 30.822 84.7559C31.1196 84.7559 31.3618 84.9981 31.3618 85.2957V90.1051H30.2823V85.2957ZM18.2553 98.4229C17.9577 98.4229 17.7155 98.1807 17.7155 97.8832C17.7155 97.5856 17.9577 97.3434 18.2553 97.3434H23.0647V98.4229H18.2553ZM18.2553 103.931C17.9577 103.931 17.7155 103.689 17.7155 103.391C17.7155 103.094 17.9577 102.852 18.2553 102.852H23.0647V103.931H18.2553ZM18.2553 109.44C17.9577 109.44 17.7155 109.197 17.7155 108.9C17.7155 108.602 17.9577 108.36 18.2553 108.36H23.0647V109.44H18.2553ZM24.6425 111.024V94.2225C24.6425 92.8177 25.7843 91.6828 27.1821 91.6828H45.4786C46.8833 91.6828 48.0182 92.8246 48.0182 94.2225V118.076C48.0182 119.48 46.8764 120.615 45.4786 120.615H27.1821C25.7773 120.615 24.6425 119.474 24.6425 118.076V111.031V111.024Z" fill="white" fill-opacity="0.5"/>
<path d="M76.4318 108.091C75.7121 108.091 75.1309 108.672 75.1309 109.391C75.1309 110.111 75.7121 110.692 76.4318 110.692H78.1272C78.3556 112.346 79.6635 113.654 81.3173 113.883V115.578C81.3173 116.298 81.8986 116.879 82.6183 116.879C83.338 116.879 83.9193 116.298 83.9193 115.578V113.924H85.068V115.578C85.068 116.298 85.6493 116.879 86.3689 116.879C87.0886 116.879 87.6699 116.298 87.6699 115.578V113.883C89.3238 113.654 90.6317 112.346 90.86 110.692H92.5554C93.2751 110.692 93.8564 110.111 93.8564 109.391C93.8564 108.672 93.2751 108.091 92.5554 108.091H90.9015V106.942H92.5554C93.2751 106.942 93.8564 106.361 93.8564 105.641C93.8564 104.921 93.2751 104.34 92.5554 104.34H90.86C90.6317 102.686 89.3238 101.385 87.6699 101.15V99.4474C87.6699 98.7278 87.0886 98.1465 86.3689 98.1465C85.6493 98.1465 85.068 98.7278 85.068 99.4474V101.108H83.9193V99.4474C83.9193 98.7278 83.338 98.1465 82.6183 98.1465C81.8986 98.1465 81.3173 98.7278 81.3173 99.4474V101.15C79.6635 101.378 78.3625 102.686 78.1272 104.34H76.4318C75.7121 104.34 75.1309 104.921 75.1309 105.641C75.1309 106.361 75.7121 106.942 76.4318 106.942H78.0857V108.091H76.4318ZM91.296 108.879H92.5554C92.8391 108.879 93.0675 109.108 93.0675 109.391C93.0675 109.675 92.8391 109.904 92.5554 109.904H91.296V108.886V108.879ZM91.296 105.136H92.5554C92.8391 105.136 93.0675 105.364 93.0675 105.648C93.0675 105.931 92.8391 106.16 92.5554 106.16H91.296V105.143V105.136ZM83.1304 115.578C83.1304 115.862 82.902 116.09 82.6183 116.09C82.3346 116.09 82.1062 115.862 82.1062 115.578V114.319H83.1235V115.578H83.1304ZM86.8741 115.578C86.8741 115.862 86.6457 116.09 86.362 116.09C86.0783 116.09 85.8499 115.862 85.8499 115.578V114.319H86.8672V115.578H86.8741ZM85.8568 99.4544C85.8568 99.1706 86.0852 98.9423 86.3689 98.9423C86.6527 98.9423 86.881 99.1706 86.881 99.4544V100.714H85.8638V99.4544H85.8568ZM82.1131 99.4544C82.1131 99.1706 82.3415 98.9423 82.6252 98.9423C82.9089 98.9423 83.1373 99.1706 83.1373 99.4544V100.714H82.1201V99.4544H82.1131ZM77.6982 109.897H76.4387C76.155 109.897 75.9267 109.668 75.9267 109.385C75.9267 109.101 76.155 108.872 76.4387 108.872H77.6982V109.89V109.897ZM77.6982 106.153H76.4387C76.155 106.153 75.9267 105.925 75.9267 105.641C75.9267 105.357 76.155 105.129 76.4387 105.129H77.6982V106.146V106.153Z" fill="#1AC934"/>
<path d="M57.9701 290.557C56.7937 290.557 55.8457 291.512 55.8457 292.681C55.8457 293.851 56.8007 294.813 57.9701 294.813H60.5098C60.9111 297.089 62.7034 298.881 64.9801 299.29V301.822C64.9801 302.999 65.9351 303.954 67.1115 303.954C68.2879 303.954 69.2359 302.999 69.2359 301.822V299.38H70.5161V301.822C70.5161 302.999 71.4711 303.954 72.6475 303.954C73.8239 303.954 74.7719 302.999 74.7719 301.822V299.29C77.0486 298.881 78.8409 297.089 79.2491 294.813H81.7888C82.9652 294.813 83.9201 293.858 83.9201 292.681C83.9201 291.505 82.9652 290.557 81.7888 290.557H79.3391V289.277H81.7888C82.9652 289.277 83.9201 288.322 83.9201 287.152C83.9201 285.983 82.9652 285.021 81.7888 285.021H79.2491C78.8409 282.744 77.0486 280.959 74.7788 280.55V278.011C74.7788 276.834 73.8239 275.879 72.6544 275.879C71.4849 275.879 70.523 276.834 70.523 278.011V280.46H69.2428V278.011C69.2428 276.834 68.2879 275.879 67.1184 275.879C65.9489 275.879 64.987 276.834 64.987 278.011V280.55C62.7103 280.959 60.9181 282.744 60.5167 285.021H57.9771C56.8007 285.021 55.8526 285.976 55.8526 287.152C55.8526 288.328 56.8076 289.277 57.9771 289.277H60.4268V290.557H57.9771H57.9701ZM80.128 292.141H81.7819C82.0864 292.141 82.3286 292.384 82.3286 292.688C82.3286 292.993 82.0864 293.235 81.7819 293.235H80.128V292.141ZM80.128 286.605H81.7819C82.0864 286.605 82.3286 286.848 82.3286 287.152C82.3286 287.457 82.0864 287.699 81.7819 287.699H80.128V286.605ZM67.6512 301.829C67.6512 302.134 67.409 302.376 67.1045 302.376C66.8001 302.376 66.5579 302.134 66.5579 301.829V300.176H67.6512V301.829ZM73.1872 301.829C73.1872 302.134 72.945 302.376 72.6405 302.376C72.3361 302.376 72.0939 302.134 72.0939 301.829V300.176H73.1872V301.829ZM72.0939 278.018C72.0939 277.713 72.3361 277.471 72.6405 277.471C72.945 277.471 73.1872 277.713 73.1872 278.018V279.672H72.0939V278.018ZM66.5579 278.018C66.5579 277.713 66.8001 277.471 67.1045 277.471C67.409 277.471 67.6512 277.713 67.6512 278.018V279.672H66.5579V278.018ZM59.6171 293.242H57.9632C57.6657 293.242 57.4165 292.999 57.4165 292.695C57.4165 292.391 57.6588 292.148 57.9632 292.148H59.6171V293.242ZM59.6171 287.706H57.9632C57.6657 287.706 57.4165 287.463 57.4165 287.159C57.4165 286.855 57.6588 286.612 57.9632 286.612H59.6171V287.706Z" fill="#1AC934"/>
<path d="M98.2436 290.557C97.0672 290.557 96.1191 291.512 96.1191 292.681C96.1191 293.851 97.0741 294.813 98.2436 294.813H100.783C101.185 297.089 102.977 298.881 105.254 299.29V301.822C105.254 302.999 106.208 303.954 107.385 303.954C108.561 303.954 109.509 302.999 109.509 301.822V299.38H110.79V301.822C110.79 302.999 111.745 303.954 112.921 303.954C114.097 303.954 115.045 302.999 115.045 301.822V299.29C117.322 298.881 119.114 297.089 119.523 294.813H122.062C123.239 294.813 124.194 293.858 124.194 292.681C124.194 291.505 123.239 290.557 122.062 290.557H119.613V289.277H122.062C123.239 289.277 124.194 288.322 124.194 287.152C124.194 285.983 123.239 285.021 122.062 285.021H119.523C119.114 282.744 117.322 280.959 115.052 280.55V278.011C115.052 276.834 114.097 275.879 112.928 275.879C111.758 275.879 110.796 276.834 110.796 278.011V280.46H109.516V278.011C109.516 276.834 108.561 275.879 107.392 275.879C106.222 275.879 105.26 276.834 105.26 278.011V280.55C102.984 280.959 101.192 282.744 100.79 285.021H98.2505C97.0741 285.021 96.1261 285.976 96.1261 287.152C96.1261 288.328 97.081 289.277 98.2505 289.277H100.7V290.557H98.2505H98.2436ZM120.401 292.141H122.055C122.36 292.141 122.602 292.384 122.602 292.688C122.602 292.993 122.36 293.235 122.055 293.235H120.401V292.141ZM120.401 286.605H122.055C122.36 286.605 122.602 286.848 122.602 287.152C122.602 287.457 122.36 287.699 122.055 287.699H120.401V286.605ZM107.925 301.829C107.925 302.134 107.682 302.376 107.378 302.376C107.073 302.376 106.831 302.134 106.831 301.829V300.176H107.925V301.829ZM113.461 301.829C113.461 302.134 113.218 302.376 112.914 302.376C112.609 302.376 112.367 302.134 112.367 301.829V300.176H113.461V301.829ZM112.367 278.018C112.367 277.713 112.609 277.471 112.914 277.471C113.218 277.471 113.461 277.713 113.461 278.018V279.672H112.367V278.018ZM106.831 278.018C106.831 277.713 107.073 277.471 107.378 277.471C107.682 277.471 107.925 277.713 107.925 278.018V279.672H106.831V278.018ZM99.8905 293.242H98.2367C97.9391 293.242 97.69 292.999 97.69 292.695C97.69 292.391 97.9322 292.148 98.2367 292.148H99.8905V293.242ZM99.8905 287.706H98.2367C97.9391 287.706 97.69 287.463 97.69 287.159C97.69 286.855 97.9322 286.612 98.2367 286.612H99.8905V287.706Z" fill="#1AC934"/>
<path d="M215.378 41.4645C214.202 41.4645 213.254 42.4195 213.254 43.5959C213.254 44.7723 214.209 45.7272 215.378 45.7272H217.918C218.319 48.0039 220.112 49.7962 222.388 50.2045V52.7372C222.388 53.9136 223.343 54.8686 224.52 54.8686C225.696 54.8686 226.644 53.9136 226.644 52.7372V50.2944H227.924V52.7372C227.924 53.9136 228.879 54.8686 230.056 54.8686C231.232 54.8686 232.18 53.9136 232.18 52.7372V50.2045C234.457 49.7962 236.249 48.0039 236.657 45.7272H239.197C240.373 45.7272 241.328 44.7723 241.328 43.5959C241.328 42.4195 240.373 41.4645 239.197 41.4645H236.747V40.1843H239.197C240.373 40.1843 241.328 39.2294 241.328 38.053C241.328 36.8766 240.373 35.9216 239.197 35.9216H236.657C236.249 33.6449 234.457 31.8596 232.187 31.4513V28.9116C232.187 27.7352 231.232 26.7803 230.063 26.7803C228.893 26.7803 227.931 27.7352 227.931 28.9116V31.3613H226.651V28.9116C226.651 27.7352 225.696 26.7803 224.527 26.7803C223.357 26.7803 222.395 27.7352 222.395 28.9116V31.4513C220.119 31.8596 218.326 33.6449 217.925 35.9216H215.385C214.209 35.9216 213.261 36.8766 213.261 38.053C213.261 39.2294 214.216 40.1843 215.385 40.1843H217.835V41.4645H215.385H215.378ZM237.536 43.0492H239.19C239.495 43.0492 239.737 43.2914 239.737 43.5959C239.737 43.9004 239.495 44.1426 239.19 44.1426H237.536V43.0492ZM237.536 37.5132H239.19C239.495 37.5132 239.737 37.7554 239.737 38.0599C239.737 38.3644 239.495 38.6066 239.19 38.6066H237.536V37.5132ZM225.059 52.7303C225.059 53.0347 224.817 53.277 224.513 53.277C224.208 53.277 223.966 53.0347 223.966 52.7303V51.0764H225.059V52.7303ZM230.595 52.7303C230.595 53.0347 230.353 53.277 230.049 53.277C229.744 53.277 229.502 53.0347 229.502 52.7303V51.0764H230.595V52.7303ZM229.502 28.9186C229.502 28.6141 229.744 28.3719 230.049 28.3719C230.353 28.3719 230.595 28.6141 230.595 28.9186V30.5724H229.502V28.9186ZM223.966 28.9186C223.966 28.6141 224.208 28.3719 224.513 28.3719C224.817 28.3719 225.059 28.6141 225.059 28.9186V30.5724H223.966V28.9186ZM217.025 44.1356H215.371C215.074 44.1356 214.825 43.8934 214.825 43.589C214.825 43.2845 215.067 43.0423 215.371 43.0423H217.025V44.1356ZM217.025 38.5996H215.371C215.074 38.5996 214.825 38.3574 214.825 38.053C214.825 37.7485 215.067 37.5063 215.371 37.5063H217.025V38.5996Z" fill="#1AC934"/>
<path d="M131.911 156.032H143.848C145.038 156.032 146.007 155.063 146.007 153.873V136.379C146.007 135.189 145.038 134.22 143.848 134.22H131.911C130.721 134.22 129.752 135.189 129.752 136.379V153.873C129.752 155.063 130.721 156.032 131.911 156.032ZM130.541 136.372C130.541 135.618 131.157 135.002 131.911 135.002H143.848C144.602 135.002 145.218 135.618 145.218 136.372V153.866C145.218 154.62 144.602 155.236 143.848 155.236H131.911C131.157 155.236 130.541 154.62 130.541 153.866V136.372Z" fill="white" fill-opacity="0.5"/>
<path d="M122.173 151.264C121.004 151.264 120.049 152.219 120.049 153.389C120.049 154.558 120.997 155.513 122.173 155.513H124.609V157.049C124.609 159.326 126.457 161.174 128.733 161.174H130.249V163.609C130.249 164.779 131.197 165.734 132.373 165.734C133.55 165.734 134.498 164.779 134.498 163.609V161.174H135.764V163.609C135.764 164.779 136.712 165.734 137.889 165.734C139.065 165.734 140.013 164.779 140.013 163.609V161.174H141.279V163.609C141.279 164.779 142.227 165.734 143.404 165.734C144.58 165.734 145.528 164.779 145.528 163.609V161.174H147.044C149.32 161.174 151.168 159.326 151.168 157.049V155.513H153.604C154.773 155.513 155.728 154.558 155.728 153.389C155.728 152.219 154.78 151.264 153.604 151.264H151.168V149.998H153.604C154.773 149.998 155.728 149.043 155.728 147.873C155.728 146.704 154.78 145.749 153.604 145.749H151.168V144.483H153.604C154.773 144.483 155.728 143.528 155.728 142.358C155.728 141.189 154.78 140.234 153.604 140.234H151.168V138.967H153.604C154.773 138.967 155.728 138.012 155.728 136.843C155.728 135.673 154.78 134.718 153.604 134.718H151.168V133.182C151.168 130.905 149.32 129.058 147.044 129.058H145.528V126.622C145.528 125.453 144.58 124.498 143.404 124.498C142.227 124.498 141.279 125.453 141.279 126.622V129.058H140.013V126.622C140.013 125.453 139.065 124.498 137.889 124.498C136.712 124.498 135.764 125.453 135.764 126.622V129.058H134.498V126.622C134.498 125.453 133.55 124.498 132.373 124.498C131.197 124.498 130.249 125.453 130.249 126.622V129.058H128.733C126.457 129.058 124.609 130.905 124.609 133.182V134.718H122.173C121.004 134.718 120.049 135.673 120.049 136.843C120.049 138.012 120.997 138.967 122.173 138.967H124.609V140.234H122.173C121.004 140.234 120.049 141.189 120.049 142.358C120.049 143.528 120.997 144.483 122.173 144.483H124.609V145.749H122.173C121.004 145.749 120.049 146.704 120.049 147.873C120.049 149.043 120.997 149.998 122.173 149.998H124.609V151.264H122.173ZM122.173 153.928C121.876 153.928 121.634 153.686 121.634 153.389C121.634 153.091 121.876 152.849 122.173 152.849H124.609V153.928H122.173ZM132.906 163.602C132.906 163.9 132.664 164.142 132.366 164.142C132.069 164.142 131.827 163.9 131.827 163.602V161.167H132.906V163.602ZM138.415 163.602C138.415 163.9 138.172 164.142 137.875 164.142C137.577 164.142 137.335 163.9 137.335 163.602V161.167H138.415V163.602ZM143.923 163.602C143.923 163.9 143.681 164.142 143.383 164.142C143.086 164.142 142.843 163.9 142.843 163.602V161.167H143.923V163.602ZM153.576 152.842C153.874 152.842 154.116 153.084 154.116 153.382C154.116 153.679 153.874 153.921 153.576 153.921H151.14V152.842H153.576ZM153.576 147.334C153.874 147.334 154.116 147.576 154.116 147.873C154.116 148.171 153.874 148.413 153.576 148.413H151.14V147.334H153.576ZM153.576 141.825C153.874 141.825 154.116 142.067 154.116 142.365C154.116 142.663 153.874 142.905 153.576 142.905H151.14V141.825H153.576ZM153.576 136.317C153.874 136.317 154.116 136.559 154.116 136.857C154.116 137.154 153.874 137.396 153.576 137.396H151.14V136.317H153.576ZM142.843 126.643C142.843 126.345 143.086 126.103 143.383 126.103C143.681 126.103 143.923 126.345 143.923 126.643V129.079H142.843V126.643ZM137.335 126.643C137.335 126.345 137.577 126.103 137.875 126.103C138.172 126.103 138.415 126.345 138.415 126.643V129.079H137.335V126.643ZM131.827 126.643C131.827 126.345 132.069 126.103 132.366 126.103C132.664 126.103 132.906 126.345 132.906 126.643V129.079H131.827V126.643ZM122.173 137.403C121.876 137.403 121.634 137.161 121.634 136.864C121.634 136.566 121.876 136.324 122.173 136.324H124.609V137.403H122.173ZM122.173 142.912C121.876 142.912 121.634 142.669 121.634 142.372C121.634 142.074 121.876 141.832 122.173 141.832H124.609V142.912H122.173ZM122.173 148.42C121.876 148.42 121.634 148.178 121.634 147.88C121.634 147.583 121.876 147.34 122.173 147.34H124.609V148.42H122.173ZM126.187 150.005V133.203C126.187 131.798 127.329 130.663 128.733 130.663H147.03C148.435 130.663 149.57 131.805 149.57 133.203V157.056C149.57 158.461 148.428 159.596 147.03 159.596H128.733C127.329 159.596 126.187 158.454 126.187 157.056V150.012V150.005Z" fill="white" fill-opacity="0.5"/>
<path d="M31.591 45.6165C32.7051 45.6165 33.6116 44.71 33.6116 43.5958C33.6116 42.4817 32.7051 41.5752 31.591 41.5752C30.4768 41.5752 29.5703 42.4817 29.5703 43.5958C29.5703 44.71 30.4768 45.6165 31.591 45.6165Z" fill="#1AC934"/>
<path d="M86.5148 89.1848C87.6308 89.1848 88.5354 88.2802 88.5354 87.1642C88.5354 86.0482 87.6308 85.1436 86.5148 85.1436C85.3988 85.1436 84.4941 86.0482 84.4941 87.1642C84.4941 88.2802 85.3988 89.1848 86.5148 89.1848Z" fill="#1AC934"/>
<path d="M92.0519 73.0127C90.9378 73.0127 90.0312 73.9192 90.0312 75.0333C90.0312 76.1475 90.9378 77.054 92.0519 77.054C93.166 77.054 94.0725 76.1475 94.0725 75.0333C94.0725 73.9192 93.166 73.0127 92.0519 73.0127Z" fill="#1AC934"/>
<path d="M79.048 60.8818C77.9339 60.8818 77.0273 61.7884 77.0273 62.9025C77.0273 64.0166 77.9339 64.9231 79.048 64.9231C80.1621 64.9231 81.0686 64.0166 81.0686 62.9025C81.0686 61.7884 80.1621 60.8818 79.048 60.8818Z" fill="#1AC934"/>
<path d="M92.0519 48.7583C90.9378 48.7583 90.0312 49.6648 90.0312 50.7789C90.0312 51.8931 90.9378 52.7996 92.0519 52.7996C93.166 52.7996 94.0725 51.8931 94.0725 50.7789C94.0725 49.6648 93.166 48.7583 92.0519 48.7583Z" fill="#1AC934"/>
<path d="M211.698 19.4174C209.56 19.4174 207.781 20.9606 207.4 22.995C181.132 22.7667 154.469 22.7667 128.132 22.995V14.5042C154.075 14.2758 222.811 14.2758 249.993 14.4904V12.9057C222.797 12.6842 154.075 12.6912 128.125 12.9195V5.41132C154.068 5.18296 222.804 5.18296 249.986 5.39748V3.8128C222.791 3.59136 154.068 3.59828 128.118 3.82664V-2H123.765V49.2772H107.164V50.3844H95.9954C95.7947 48.3776 94.0993 46.8068 92.0372 46.8068C89.8435 46.8068 88.0651 48.5921 88.0651 50.7788C88.0651 52.9656 89.8505 54.7509 92.0372 54.7509C94.0924 54.7509 95.7947 53.1801 95.9954 51.1733H107.164V52.2805H123.765V61.401H107.164V62.5082H82.9927C82.7921 60.5014 81.0967 58.9306 79.0345 58.9306C76.8409 58.9306 75.0624 60.716 75.0624 62.9027C75.0624 65.0894 76.8478 66.8748 79.0345 66.8748C81.0897 66.8748 82.7921 65.3039 82.9927 63.2971H107.164V64.4043H123.765V73.5249H107.164V74.6321H95.9954C95.7947 72.6253 94.0993 71.0544 92.0372 71.0544C89.8435 71.0544 88.0651 72.8398 88.0651 75.0265C88.0651 77.2132 89.8505 78.9986 92.0372 78.9986C94.0924 78.9986 95.7947 77.4278 95.9954 75.421H107.164V76.5282H123.765V85.6487H107.164V86.7559H90.4594C90.2587 84.7491 88.5633 83.1783 86.5081 83.1783C84.3145 83.1783 82.536 84.9636 82.536 87.1504C82.536 89.3371 84.3214 91.1224 86.5081 91.1224C88.5633 91.1224 90.2657 89.5516 90.4594 87.5448H107.164V88.652H123.765V94.8177L78.0242 140.594V221.779L72.2114 227.592C71.4917 227.19 70.6613 226.955 69.7755 226.955C67.0145 226.955 64.7793 229.19 64.7793 231.951C64.7793 234.712 67.0145 236.948 69.7755 236.948C72.5366 236.948 74.7718 234.712 74.7718 231.951C74.7718 231.709 74.751 231.474 74.7164 231.239L82.3769 223.578L82.2869 223.488H82.3769V142.358L86.9787 137.756V176.245C86.5358 176.321 86.1067 176.515 85.7815 176.847C84.9027 177.726 84.9027 179.159 85.7815 180.038C86.2105 180.467 86.7711 180.695 87.3731 180.695C87.9751 180.695 88.5426 180.46 88.9647 180.038C89.3868 179.615 89.6221 179.048 89.6221 178.446C89.6221 177.844 89.3868 177.276 88.9647 176.854C88.6325 176.522 88.2104 176.328 87.7675 176.252V136.967L91.4351 133.3V171.789C90.9922 171.865 90.5632 172.059 90.238 172.391C89.8089 172.82 89.5806 173.38 89.5806 173.983C89.5806 174.585 89.8159 175.152 90.238 175.574C90.667 176.003 91.2275 176.232 91.8296 176.232C92.4316 176.232 92.9991 175.996 93.4212 175.574C94.3 174.695 94.3 173.263 93.4212 172.384C93.089 172.052 92.6669 171.858 92.224 171.782V132.636C92.224 132.594 92.2102 132.559 92.2033 132.525L95.8916 128.836V167.312C95.4487 167.388 95.0335 167.595 94.6945 167.934C93.8156 168.813 93.8156 170.246 94.6945 171.125C95.1373 171.561 95.7117 171.782 96.2861 171.782C96.8604 171.782 97.4417 171.561 97.8777 171.125C98.7565 170.246 98.7565 168.813 97.8777 167.934C97.5386 167.595 97.1165 167.388 96.6805 167.312V128.048L100.348 124.38V162.848C99.9121 162.924 99.49 163.132 99.1509 163.471C98.2721 164.35 98.2721 165.782 99.1509 166.661C99.5938 167.097 100.168 167.319 100.743 167.319C101.317 167.319 101.898 167.097 102.334 166.661C103.213 165.782 103.213 164.35 102.334 163.471C101.995 163.132 101.573 162.924 101.137 162.848V123.909C101.137 123.819 101.102 123.743 101.054 123.674L128.118 96.61V47.0559C128.166 47.0628 128.208 47.0836 128.256 47.0836C137.979 47.1735 147.536 47.222 157.044 47.222C166.552 47.222 175.548 47.1804 184.869 47.0905C185.243 49.118 187.028 50.6681 189.166 50.6681C191.574 50.6681 193.54 48.7098 193.54 46.2947C193.54 43.8796 191.581 41.9212 189.166 41.9212C187.028 41.9212 185.243 43.4713 184.869 45.5058C165.991 45.6788 147.473 45.6788 128.27 45.5058C128.215 45.5058 128.173 45.5266 128.118 45.5404V39.5615C128.153 39.5615 128.187 39.5823 128.222 39.5823H128.229C149.577 39.3678 171.728 39.3678 192.37 39.5823C192.744 41.6168 194.522 43.1668 196.668 43.1668C199.076 43.1668 201.041 41.2085 201.041 38.7934C201.041 36.3783 199.083 34.42 196.668 34.42C194.529 34.42 192.751 35.9631 192.377 37.9907C171.735 37.7831 149.57 37.7831 128.222 37.9907C128.187 37.9907 128.16 38.0045 128.125 38.0114V32.0395C128.173 32.0464 128.215 32.0672 128.263 32.0672C140.346 32.1502 152.476 32.1917 164.559 32.1917C176.641 32.1917 188.204 32.1502 199.885 32.0672C200.259 34.0947 202.044 35.6448 204.183 35.6448C206.591 35.6448 208.556 33.6864 208.556 31.2714C208.556 28.8563 206.598 26.8979 204.183 26.8979C202.044 26.8979 200.259 28.448 199.885 30.4825C176.281 30.6486 152.193 30.6486 128.27 30.4825C128.222 30.4825 128.173 30.5032 128.125 30.5102V24.559C154.463 24.3306 181.125 24.3306 207.387 24.559C207.76 26.5934 209.539 28.1435 211.684 28.1435C214.092 28.1435 216.057 26.1852 216.057 23.7701C216.057 21.355 214.099 19.3966 211.684 19.3966L211.698 19.4174ZM92.0579 53.962C90.3003 53.962 88.8747 52.5365 88.8747 50.7788C88.8747 49.0212 90.3003 47.5956 92.0579 47.5956C93.8156 47.5956 95.2411 49.0212 95.2411 50.7788C95.2411 52.5365 93.8156 53.962 92.0579 53.962ZM79.0553 66.0859C77.2976 66.0859 75.8721 64.6604 75.8721 62.9027C75.8721 61.145 77.2976 59.7195 79.0553 59.7195C80.8129 59.7195 82.2385 61.145 82.2385 62.9027C82.2385 64.6604 80.8129 66.0859 79.0553 66.0859ZM92.0579 78.2097C90.3003 78.2097 88.8747 76.7842 88.8747 75.0265C88.8747 73.2688 90.3003 71.8433 92.0579 71.8433C93.8156 71.8433 95.2411 73.2688 95.2411 75.0265C95.2411 76.7842 93.8156 78.2097 92.0579 78.2097ZM86.5219 90.3335C84.7643 90.3335 83.3387 88.908 83.3387 87.1504C83.3387 85.3927 84.7643 83.9672 86.5219 83.9672C88.2796 83.9672 89.7051 85.3927 89.7051 87.1504C89.7051 88.908 88.2796 90.3335 86.5219 90.3335ZM88.4319 177.408C89.0062 177.975 89.0062 178.91 88.4319 179.477C87.8783 180.031 86.9164 180.031 86.3628 179.477C85.7884 178.91 85.7884 177.975 86.3628 177.408C86.6396 177.131 87.0063 176.979 87.4008 176.979C87.7952 176.979 88.162 177.131 88.4388 177.408H88.4319ZM92.8883 172.951C93.4627 173.519 93.4627 174.453 92.8883 175.021C92.3347 175.574 91.3729 175.574 90.8193 175.021C90.2449 174.453 90.2449 173.519 90.8193 172.951C91.0961 172.675 91.4628 172.522 91.8573 172.522C92.2517 172.522 92.6185 172.675 92.8953 172.951H92.8883ZM97.3448 168.495C97.9123 169.069 97.9123 169.997 97.3448 170.564C96.7774 171.131 95.8432 171.131 95.2757 170.564C94.7083 169.99 94.7083 169.062 95.2757 168.495C95.8432 167.928 96.7774 167.921 97.3448 168.495ZM101.801 164.038C102.369 164.613 102.369 165.54 101.801 166.108C101.234 166.675 100.3 166.675 99.7322 166.108C99.1648 165.533 99.1648 164.606 99.7322 164.038C100.3 163.471 101.234 163.464 101.801 164.038ZM189.18 43.5128C190.716 43.5128 191.969 44.7654 191.969 46.3016C191.969 47.8378 190.716 49.0904 189.18 49.0904C187.644 49.0904 186.391 47.8378 186.391 46.3016C186.391 44.7654 187.644 43.5128 189.18 43.5128ZM196.688 36.0046C198.225 36.0046 199.477 37.2572 199.477 38.7934C199.477 40.3296 198.225 41.5822 196.688 41.5822C195.152 41.5822 193.9 40.3296 193.9 38.7934C193.9 37.2572 195.152 36.0046 196.688 36.0046ZM204.197 28.4964C205.733 28.4964 206.985 29.749 206.985 31.2852C206.985 32.8214 205.733 34.074 204.197 34.074C202.66 34.074 201.408 32.8214 201.408 31.2852C201.408 29.749 202.66 28.4964 204.197 28.4964ZM211.705 26.5658C210.169 26.5658 208.916 25.3132 208.916 23.777C208.916 22.2408 210.169 20.9882 211.705 20.9882C213.241 20.9882 214.493 22.2408 214.493 23.777C214.493 25.3132 213.241 26.5658 211.705 26.5658Z" fill="white" fill-opacity="0.5"/>
<path d="M245.501 283.035C246.617 283.035 247.522 282.13 247.522 281.014C247.522 279.898 246.617 278.994 245.501 278.994C244.385 278.994 243.48 279.898 243.48 281.014C243.48 282.13 244.385 283.035 245.501 283.035Z" fill="#1AC934"/>
<path d="M245.904 309.144V284.972C247.91 284.772 249.481 283.076 249.481 281.014C249.481 278.82 247.696 277.042 245.509 277.042C243.322 277.042 241.537 278.827 241.537 281.014C241.537 283.069 243.108 284.772 245.115 284.972V309.144H244.008V344H247.011V309.144H245.904ZM242.326 281.014C242.326 279.256 243.752 277.831 245.509 277.831C247.267 277.831 248.692 279.256 248.692 281.014C248.692 282.772 247.267 284.197 245.509 284.197C243.752 284.197 242.326 282.772 242.326 281.014Z" fill="white" fill-opacity="0.5"/>
<path d="M235.399 294.017C235.399 292.903 234.492 291.996 233.378 291.996C232.264 291.996 231.357 292.903 231.357 294.017C231.357 295.131 232.264 296.037 233.378 296.037C234.492 296.037 235.399 295.131 235.399 294.017Z" fill="#1AC934"/>
<path d="M233.773 309.144V297.975C235.78 297.775 237.35 296.079 237.35 294.017C237.35 291.823 235.565 290.045 233.378 290.045C231.192 290.045 229.406 291.83 229.406 294.017C229.406 296.072 230.977 297.775 232.984 297.975V309.144H231.877V344H234.88V309.144H233.773ZM230.195 294.017C230.195 292.259 231.621 290.834 233.378 290.834C235.136 290.834 236.562 292.259 236.562 294.017C236.562 295.775 235.136 297.2 233.378 297.2C231.621 297.2 230.195 295.775 230.195 294.017Z" fill="white" fill-opacity="0.5"/>
<path d="M223.276 288.481C223.276 287.366 222.369 286.46 221.255 286.46C220.141 286.46 219.234 287.366 219.234 288.481C219.234 289.595 220.141 290.501 221.255 290.501C222.369 290.501 223.276 289.595 223.276 288.481Z" fill="#1AC934"/>
<path d="M221.648 309.144V292.439C223.655 292.238 225.225 290.543 225.225 288.488C225.225 286.294 223.44 284.516 221.253 284.516C219.067 284.516 217.281 286.301 217.281 288.488C217.281 290.543 218.852 292.245 220.859 292.439V309.144H219.752V344H222.755V309.144H221.648ZM218.07 288.481C218.07 286.723 219.496 285.298 221.253 285.298C223.011 285.298 224.437 286.723 224.437 288.481C224.437 290.238 223.011 291.664 221.253 291.664C219.496 291.664 218.07 290.238 218.07 288.481Z" fill="white" fill-opacity="0.5"/>
</g>
</g>
<defs>
<clipPath id="clip0_8_2288">
<rect width="250" height="343.75" fill="white" transform="translate(0 0.625)"/>
</clipPath>
<clipPath id="clip1_8_2288">
<rect width="346" height="346" fill="white" transform="translate(-96 -2)"/>
</clipPath>
</defs>
</svg>
